<?xml version="1.0" encoding="utf-8"?>
<!-- Generator: Adobe Illustrator 27.5.0, SVG Export Plug-In . SVG Version: 6.00 Build 0)  -->
<svg version="1.1" id="Слой_1" xmlns="http://www.w3.org/2000/svg" xmlns:xlink="http://www.w3.org/1999/xlink" x="0px" y="0px"
	 viewBox="0 0 2008 2008" style="enable-background:new 0 0 2008 2008;" xml:space="preserve">
<linearGradient id="SVGID_1_" gradientUnits="userSpaceOnUse" x1="999.0251" y1="-926.699" x2="1009.3129" y2="1026.662" gradientTransform="matrix(1 0 0 -1 0 1021.8898)">
	<stop  offset="0" style="stop-color:#2A011E"/>
	<stop  offset="1" style="stop-color:#2087B0"/>
</linearGradient>
<path style="fill:url(#SVGID_1_);" d="M0.48,0.48h2007.04v269.392V1889.92v117.6h-96.945h-251.102h-33.189h-51.201h-366.228
	h-205.882H823.345h-20.788H433.373h-55.752h-7.96H98.744H0.48v-74.764V342.71V0.48z"/>
<path style="fill:#21739D;" d="M1310.128,313.804l3.681,1.366c1.507,2.254,0.894,3.079,0.592,5.641l-2.166,0.811
	C1310.281,319.448,1310.521,316.657,1310.128,313.804z"/>
<path style="fill:#4AE8E8;" d="M1882.051,301.205c0.58,0.229,1.186,0.406,1.745,0.688c2.415,1.217,2.679,1.915,3.608,4.29
	c-0.441,3.044-1.768,4.437-3.697,6.662c-2.338-1.919-4.13-3.212-5.202-6.168C1879.262,303.706,1879.802,303.361,1882.051,301.205z"
	/>
<path style="fill:#4AE8E8;" d="M1871.231,785.178c1.019,0.314,1.558,0.443,2.569,0.951c2.328,1.168,3.101,2.346,3.996,4.684
	c-0.4,3.064-1.915,4.639-3.802,6.925c-0.898-0.186-2.256-0.41-3.048-0.839c-2.423-1.309-2.742-2.66-3.463-5.063
	C1868.047,788.451,1868.938,787.532,1871.231,785.178z"/>
<path style="fill:#4AE8E8;" d="M308.682,360.605c-1.639-3.32-2.889-5.674-1.793-9.373c2.236-1.38,2.94-1.737,5.704-1.445
	c2.489,0.263,4.604,1.893,6.329,3.548c0.69,2.129,1.06,2.103,0.272,4.328c-2.064,2.023-4.62,3.461-7.405,4.234L308.682,360.605z"/>
<path style="fill:#A1BEC2;" d="M88.505,926.2c1.355,0.559,2.926,1.117,4.125,1.962c2.198,1.546,2.503,3.187,2.991,5.666
	c-0.792,3.075-2.195,4.334-4.413,6.419c-1.977-0.47-4.431-1.031-5.917-2.538c-1.559-1.58-2.229-3.444-1.749-5.619
	C84.121,929.469,86.53,927.764,88.505,926.2z"/>
<path style="fill:#4AE8E8;" d="M1568.527,250.176c2.336-0.094,4.835-0.331,6.87,1.117c1.931,1.376,2.93,2.993,3.032,5.378
	c0.127,3.013-1.837,5.018-3.693,7.08c-1.878,0.129-3.424-0.225-5.253-0.633c-2.07-1.754-3.289-2.456-3.685-5.339
	C1565.395,254.839,1567.024,252.497,1568.527,250.176z"/>
<path style="fill:#4AE8E8;" d="M1922.899,1323.135c1.658,0.417,3.949,1.096,5.271,2.291c1.693,1.531,2.634,3.048,2.619,5.378
	c-0.021,3.138-2.413,5.049-4.498,7.009c-1.991-0.233-4.285-0.635-5.97-1.799c-2.193-1.515-2.285-2.697-2.689-5.092
	C1918.518,1327.273,1920.249,1325.703,1922.899,1323.135z"/>
<path style="fill:#A1BEC2;" d="M163.819,1274.176c1.678,0.335,4.453,0.762,5.906,1.754c2.457,1.682,2.612,2.587,3.238,5.29
	c-0.796,3.512-2.36,4.933-4.92,7.377c-2.258-0.114-4.669-0.233-6.473-1.823c-1.788-1.576-2.587-3.491-2.373-5.86
	C159.472,1277.867,161.701,1276.044,163.819,1274.176z"/>
<path style="fill:#4AE8E8;" d="M171.727,171.655c2.382,0.025,5.043,0.014,7.106,1.427c1.992,1.365,3.054,3.219,3.059,5.644
	c0.006,2.917-1.96,5.181-3.702,7.288c-2.443-0.032-5.048-0.026-7.177-1.456c-2.034-1.367-3.121-3.142-3.218-5.606
	C167.678,175.979,169.913,173.717,171.727,171.655z"/>
<path style="fill:#4AE8E8;" d="M1835.015,546.22c3.738,0.472,6.942,1.033,9.267,4.402c1.395,2.019,1.74,4.347,1.054,6.699
	c-1.123,3.847-3.965,5.39-7.244,7.089c-3.448-0.29-6.27-0.664-8.736-3.452c-1.848-2.089-2.14-4.034-1.641-6.707
	C1828.48,550.162,1831.777,548.233,1835.015,546.22z"/>
<path style="fill:#4AE8E8;" d="M435.588,197.509c2.532-0.163,5.345-0.267,7.846,0.272c3.822,0.821,7.554,3.663,9.641,6.925
	c2.056,3.209,2.711,7.095,1.801,10.798c-1.413,5.757-4.775,8.226-9.665,11.113c-2.444,0.265-5.202,0.447-7.638-0.006
	c-3.726-0.694-7.375-3.136-9.492-6.264c-2.225-3.289-2.756-7.199-1.974-11.052C427.278,203.53,430.861,200.551,435.588,197.509z"/>
<path style="fill:#4AE8E8;" d="M1877.198,1022.834c3.181-0.412,6.399-0.868,9.588-0.274c5.025,0.937,9.81,4.159,12.663,8.381
	c2.846,4.208,3.773,9.484,2.507,14.406c-1.691,6.582-5.77,9.914-11.333,13.318c-2.826,0.288-5.758,0.666-8.585,0.227
	c-5.611-0.868-11.001-4.418-14.087-9.165c-2.74-4.218-3.557-9.296-2.277-14.163
	C1867.378,1029.092,1871.649,1026.005,1877.198,1022.834z"/>
<path style="fill:#4AE8E8;" d="M1011.946,117.258c3.777-0.189,7.92-0.633,11.568,0.55c5.96,1.933,10.956,6.348,13.416,12.127
	c2.205,5.185,2.272,11.334-0.069,16.485c-2.962,6.523-8.14,9.514-14.618,11.83c-3.379,0.211-6.905,0.2-10.157-0.863
	c-5.755-1.882-10.854-6.125-13.516-11.592c-2.346-4.818-2.785-10.47-0.945-15.526
	C1000.176,123.272,1005.403,120.068,1011.946,117.258z"/>
<path style="fill:#4AE8E8;" d="M181.236,591.526c4.283-0.249,8.426-0.339,12.534,1.113c5.893,2.081,10.646,6.337,13.282,12.005
	c2.789,5.994,2.856,13.077,0.259,19.147c-3.361,7.854-9.216,11.46-16.83,14.539c-4.522,0.288-8.691,0.076-12.933-1.68
	c-6.193-2.564-11.31-7.417-13.739-13.722c-2.161-5.61-2.126-11.815,0.322-17.324C167.565,597.876,173.599,594.299,181.236,591.526z"
	/>
<path style="fill:#150D31;" d="M0.48,1932.756l1.138,3.122c0.556,0.045,1.115,0.063,1.668,0.139
	c14.313,1.94,13.849-1.021,25.816-3.934c3.925-0.957,8.531-0.492,12.621-1.141c18.887-2.995,20.255-6.17,42.116-5.458
	c4.827,3.367,7.733,13.736,10.024,19.271l1.269-0.122c2.044-2.575,2.057-6.115,2.18-9.273c0.254-6.537-0.922-12.852-1.199-19.351
	c-0.66-15.486-1.467-53.694,0.833-67.585c0.016,2.956-0.048,5.868,0.752,8.738c0.166,0.594,0.35,1.182,0.525,1.774l0.521,148.584
	H0.48V1932.756z"/>
<path style="fill:#150D31;" d="M1910.867,1853.519c0.194,0.584,0.402,1.162,0.582,1.752c5.445,17.754-4.508,25.245,9.757,42.557
	c1.997,2.423,4.496,5.772,7.421,7.123c1.801,0.833,3.859,0.555,5.772,0.494c6.862-0.218,15.37,4.087,19.306,3.736
	c4.824-0.429,44.741-18.846,48.778-22.358c1.784-1.541,1.333-3.15,1.411-5.323c1.372,1.431,1.333,15.651,1.784,19.02
	c1.156-3.552,0.47-7.111,1.842-10.6v117.6h-96.945L1910.867,1853.519z"/>
<linearGradient id="SVGID_00000090269783889949411170000002845410011222476435_" gradientUnits="userSpaceOnUse" x1="802.8738" y1="-979.6426" x2="133.8051" y2="-617.0558" gradientTransform="matrix(1 0 0 -1 0 1021.8898)">
	<stop  offset="0" style="stop-color:#C2C9C6"/>
	<stop  offset="1" style="stop-color:#FCF4EA"/>
</linearGradient>
<path style="fill:url(#SVGID_00000090269783889949411170000002845410011222476435_);" d="M363.813,1436.28
	c1.492-0.862,2.766-1.913,4.169-2.909c3.74-2.65,47.326-27.46,49.153-27.832c0.566-0.116,1.139,0.2,1.709,0.302
	c-0.445,11.07,9.073,27.722,13.404,37.971c58.498,135.085,158.26,247.975,277.105,333.38c23.792,17.097,48.547,34.043,74.057,48.514
	c-3.61,22.569-19.32,55.317-32.516,74.423c16.678,10.027,33.963,18.906,51.36,27.609c0.345,26.568-0.461,53.244,0.304,79.782
	H433.373h-55.752h-7.96H98.744l-0.521-148.584l0.164-20.214l-0.041-28.824c-0.266-45.217,5.138-89.241,19.918-132.104
	c27.32-79.231,77.016-146.606,148.899-190.792c25.21-15.498,52.785-27.879,79.386-40.815
	C351.89,1443.171,359.589,1440.598,363.813,1436.28z"/>
<path style="fill:#150D31;" d="M352.063,1823.215c10.106,15.494,17.168,33.877,24.743,50.746
	c13.816,30.766,27.054,61.76,40.029,92.888c5.621,13.485,10.619,27.322,16.538,40.67h-55.752
	c-0.931-45.041-1.352-90.828-11.184-135.005c-3.691-16.58-10.114-32.167-14.181-48.49L352.063,1823.215z"/>
<path style="fill:#A1BEC2;" d="M98.346,1809.899c34.193-31.503,87.616-106.187,137.6-103.956
	c26.523,1.182,48.641,18.93,65.652,37.871c9.3,10.357,49.251,66.391,50.464,79.402l0.194,0.809
	c4.067,16.323,10.49,31.911,14.181,48.49c9.831,44.177,10.253,89.964,11.184,135.005h-7.96
	c-10.633-68.055-36.926-135.732-80.789-189.267c-18.704-22.83-50.56-59.858-81.571-62.24c-5.519-0.423-10.588,0.47-15.421,3.183
	c-15.824,8.883-29.755,25.278-43.474,37.311c-16.407,14.39-33.541,27.914-50.019,42.216L98.346,1809.899z"/>
<linearGradient id="SVGID_00000103961988371466687290000000252012649645556866_" gradientUnits="userSpaceOnUse" x1="808.3296" y1="-793.2495" x2="379.4625" y2="-487.784" gradientTransform="matrix(1 0 0 -1 0 1021.8898)">
	<stop  offset="0" style="stop-color:#372B4C"/>
	<stop  offset="1" style="stop-color:#915662"/>
</linearGradient>
<path style="fill:url(#SVGID_00000103961988371466687290000000252012649645556866_);" d="M363.813,1436.28
	c1.492-0.862,2.766-1.913,4.169-2.909c3.74-2.65,47.326-27.46,49.153-27.832c0.566-0.116,1.139,0.2,1.709,0.302
	c-0.445,11.07,9.073,27.722,13.404,37.971c58.498,135.085,158.26,247.975,277.105,333.38c23.792,17.097,48.547,34.043,74.057,48.514
	c-3.61,22.569-19.32,55.317-32.516,74.423c-5.231-2.352-10.508-6.101-15.464-9.042c-17.383-10.312-34.273-21.346-51.011-32.669
	c-101.052-68.357-185.157-153.058-252.648-254.649c-19.643-29.567-38.234-59.894-53.814-91.822
	c-8.436-10.406-24.388-50.972-31.407-65.76C351.89,1443.171,359.589,1440.598,363.813,1436.28z"/>
<path style="fill:#9D5D63;" d="M363.813,1436.28c1.492-0.862,2.766-1.913,4.169-2.909c3.74-2.65,47.326-27.46,49.153-27.832
	c0.566-0.116,1.139,0.2,1.709,0.302c-0.445,11.07,9.073,27.722,13.404,37.971c-3.571,1.778-5.513,2.536-6.872,6.589
	c-2.033,6.072-2.495,12.613-3.951,18.834c-3.824,3.501-5.615,7.354-8.446,11.509c-9.096,13.352-19.874,24.265-34.692,30.997
	c-0.118,0.055-0.221,0.137-0.331,0.206c-8.436-10.406-24.388-50.972-31.407-65.76C351.89,1443.171,359.589,1440.598,363.813,1436.28
	z"/>
<linearGradient id="SVGID_00000111908102244606278090000008101587382958901684_" gradientUnits="userSpaceOnUse" x1="369.0212" y1="-981.1346" x2="95.9555" y2="-824.1459" gradientTransform="matrix(1 0 0 -1 0 1021.8898)">
	<stop  offset="0" style="stop-color:#BDCAC9"/>
	<stop  offset="1" style="stop-color:#E6E2DD"/>
</linearGradient>
<path style="fill:url(#SVGID_00000111908102244606278090000008101587382958901684_);" d="M98.387,1838.723
	c16.478-14.302,33.612-27.826,50.019-42.216c13.719-12.033,27.65-28.428,43.474-37.311c4.833-2.713,9.901-3.606,15.421-3.183
	c31.011,2.381,62.867,39.41,81.571,62.24c43.863,53.536,70.156,121.212,80.789,189.267H98.744l-0.521-148.584L98.387,1838.723z"/>
<linearGradient id="SVGID_00000018944421915721074700000009388744205251131821_" gradientUnits="userSpaceOnUse" x1="1003.4348" y1="332.7199" x2="1001.3951" y2="764.6976" gradientTransform="matrix(1 0 0 -1 0 1021.8898)">
	<stop  offset="0" style="stop-color:#EA9A6D"/>
	<stop  offset="1" style="stop-color:#EDCAAF"/>
</linearGradient>
<path style="fill:url(#SVGID_00000018944421915721074700000009388744205251131821_);" d="M650.224,347.079
	c126.716-69.649,272.695-101.242,416.798-87.93c38.465,3.553,76.021,10.649,113.613,19.304
	c33.102,8.879,65.372,18.499,97.214,31.303c156.933,63.114,290.49,180.073,375.117,326.536
	c41.05,71.048,70.295,149.476,87.006,229.781c3.195,15.349,6.915,31.485,8.205,47.097c5.457,18.479,6.605,57.618,7.544,77.536
	c7.177,152.033-32.299,299.933-104.744,433.144c-1.868,3.436-3.614,7.083-5.778,10.339c-17.744-7.354-35.114-16.958-52.34-25.545
	c-17.822-9.602-36.064-18.933-54.535-27.224c-3.761-1.876-7.375-3.689-10.849-6.082c2.722-7.956,0.933-30.741,0.91-40.205
	c-0.067-25.976,1.819-117.318-7.689-137.966c-5.8-52.391-31.556-104.062-65.303-144.26c-2.625-11.264-0.578-48.212-0.586-61.493
	c13.475-1.307,26.674-4.373,36.809-14.034c5.041-4.802,8.789-10.896,10.696-17.597c4.445-15.611,0.778-56.503,1.456-75.638
	c-1.107-22.046,0.155-44.218-0.149-66.289c-0.225-16.335-1.758-32.73-14.504-44.614c-10.488-9.776-22.756-11.439-36.409-11.186
	c-0.772-51.272-14.132-105.446-33.885-152.609c-47.581-113.594-132.427-197.815-246.254-244.377
	c-115.744-45.829-240.38-44.153-354.84,5.415C711.054,416.68,626.78,505.937,584.323,614.091
	c-17.158,43.708-27.683,90.07-29.79,137.012c-14.782,0.539-27.497,0.984-38.328,12.556c-6.139,6.558-9.396,14.618-11.013,23.369
	c-2.338,12.658-1.135,26.876-1.133,39.743l0.029,71.948c-0.037,13.191,0.541,26.889-0.694,40.002
	c0.225,15.504-0.163,32.385,12.017,44.028c8.373,8.007,20.215,10.284,31.397,10.747c-0.237,24.796-0.496,49.578,0.606,74.36
	c-38.861,44.419-63.892,94.372-65.305,154.225c-1.709,5.639-1.564,11.776-1.648,17.628c-0.858,18.408,0.964,127.69-1.203,133.243
	l-4.198,3.201c-10.378,5.631-46.407,27.368-56.215,29.69c-0.57-0.102-1.143-0.417-1.709-0.302
	c-1.827,0.372-45.413,25.182-49.153,27.832c-1.403,0.996-2.677,2.046-4.169,2.909c-76.222-133.268-114.578-282.558-109.946-436.11
	c0.888-29.408,1.492-61.246,7.816-90.003c2.693-31.105,10.484-63.653,18.787-93.719C336.314,614.246,468.45,450.149,650.224,347.079
	z"/>
<path style="fill:#DC6A43;" d="M261.683,910.167l1.078,2.813c1.493-14.124,4.475-27.857,7.174-41.779
	c8.918-46.019,21.754-89.746,38.98-133.403c5.212-13.203,10.314-26.799,16.893-39.382c0.257-0.49,0.494-0.988,0.755-1.474
	c1.105-2.078,2.307-3.61,4.289-4.92c6.315-4.173,30.778-16.035,38.126-18.152c5.169-1.49,11.072-1.084,16.417-1.703
	c16.709-1.938,33.577-3.61,50.239-5.829c15.95-2.125,32.661-6.742,48.445-10.125c13.322-2.856,26.766-4.547,40.045-7.762
	c8.963-2.17,18.267-4.579,26.685-8.406c6.488-2.95,17.822-11.717,24.696-10.788c0.233,0.827,0.713,1.621,0.698,2.479
	c-0.008,0.512-10.239,32.046-11.487,36.864c-4.963,19.116-8.281,39.282-10.492,58.918c-0.786,6.979-0.553,14.202-1.535,21.092
	c-5.231,1.668-10.751,1.241-16.137,2.093c-9.767,1.544-22.35,8.943-27.04,18.042c-1.825,3.54-3.191,7.299-4.894,10.894
	c-2.07,4.369-2.048,10.364-2.199,15.135c-0.862,27.336,0.441,55.178,0.47,82.583c0.022,19.108-1.758,42.836,0.506,61.366
	c0.225,15.504-0.163,32.385,12.017,44.028c8.373,8.007,20.215,10.284,31.397,10.747c-0.237,24.796-0.496,49.578,0.606,74.36
	c-38.861,44.419-63.892,94.372-65.305,154.225c-1.709,5.639-1.564,11.776-1.648,17.628c-0.858,18.408,0.964,127.69-1.203,133.243
	l-4.198,3.201c-10.378,5.631-46.407,27.368-56.215,29.69c-0.57-0.102-1.143-0.417-1.709-0.302
	c-1.827,0.372-45.413,25.182-49.153,27.832c-1.403,0.996-2.677,2.046-4.169,2.909c-76.222-133.268-114.578-282.558-109.946-436.11
	C254.755,970.762,255.358,938.924,261.683,910.167z"/>
<path style="fill:#DC6A43;" d="M1454.3,759.498c0.547-31.76-7.575-66.434-14.912-97.181c-1.525-6.39-6.46-14.694-6.286-21.078
	c2.074-0.086,2.601,0.19,4.537,0.688c0.576,0.149,1.166,0.245,1.745,0.38c10.153,2.389,4.759,5.713,16.734,1.401
	c1.533-0.553,1.829-0.77,3.52-0.257c0.321,0.098,0.551,0.386,0.827,0.58c5.843-3.794,34.449-0.88,42.45,0.525
	c6.078,1.066,13.794,0.639,19.498,2.426c5.419,1.699,10.596,4.92,16.303,5.57c10.451,1.19,30.805-0.653,39.233,3.959
	c1.035,0.566,1.844,1.084,3.048,1.247c2.975,0.402,6.527-0.221,9.573-0.182c6.076,0.078,12.295,1.39,18.191,2.738
	c16.889,3.865,34.273,12.099,50.321,18.796c4.422,1.844,10.86-0.447,14.563,1.938c4.273,2.756,20.229,41.803,22.809,47.94
	c1.417,3.371,2.564,6.529,3.563,10.049c3.038,10.704,8.126,21.225,11.754,31.807c8.35,24.355,15.782,48.91,21.693,73.978
	c3.281,13.91,6.202,28.028,8.728,42.091c1.533,8.544,1.346,19.976,5.223,27.712l0.76-1.458c5.457,18.479,6.605,57.618,7.544,77.536
	c7.177,152.033-32.299,299.933-104.744,433.144c-1.868,3.436-3.614,7.083-5.778,10.339c-17.744-7.354-35.114-16.958-52.34-25.545
	c-17.822-9.602-36.064-18.933-54.535-27.224c-3.761-1.876-7.375-3.689-10.849-6.082c2.722-7.956,0.933-30.741,0.91-40.205
	c-0.067-25.976,1.819-117.318-7.689-137.966c-5.8-52.391-31.556-104.062-65.303-144.26c-2.625-11.264-0.578-48.212-0.586-61.493
	c13.475-1.307,26.674-4.373,36.809-14.034c5.041-4.802,8.789-10.896,10.696-17.597c4.445-15.611,0.778-56.503,1.456-75.638
	c2.84-7.005,2.205-68.459,1.162-79.274c-0.608-6.284-1.827-12.566-4.281-18.408c-4.445-10.582-12.681-18.957-23.487-23.001
	C1470.607,761.009,1461.266,759.214,1454.3,759.498z"/>
<linearGradient id="SVGID_00000132063509429833559800000006303115691626857870_" gradientUnits="userSpaceOnUse" x1="1427.5465" y1="-262.4384" x2="442.1531" y2="-36.5378" gradientTransform="matrix(1 0 0 -1 0 1021.8898)">
	<stop  offset="0" style="stop-color:#8FB3BA"/>
	<stop  offset="1" style="stop-color:#FFFFF8"/>
</linearGradient>
<path style="fill:url(#SVGID_00000132063509429833559800000006303115691626857870_);" d="M554.533,751.103
	c2.107-46.942,12.632-93.304,29.79-137.012C626.78,505.937,711.054,416.68,817.726,370.485
	c114.46-49.568,239.096-51.244,354.84-5.415c113.827,46.562,198.673,130.783,246.254,244.377
	c19.753,47.164,33.112,101.338,33.885,152.609c13.653-0.253,25.921,1.409,36.409,11.186c12.746,11.884,14.279,28.279,14.504,44.614
	c0.304,22.072-0.958,44.243,0.149,66.289c-0.678,19.135,2.989,60.027-1.456,75.638c-1.907,6.701-5.655,12.795-10.696,17.597
	c-10.135,9.661-23.334,12.726-36.809,14.034c0.008,13.281-2.038,50.229,0.586,61.493c33.747,40.198,59.504,91.869,65.303,144.26
	c9.508,20.649,7.622,111.99,7.689,137.966c0.023,9.465,1.813,32.25-0.91,40.205c3.473,2.393,7.087,4.206,10.849,6.082
	c18.471,8.291,36.713,17.622,54.535,27.224c17.226,8.587,34.596,18.191,52.34,25.545c5.874,2.654,15.157,5.245,19.712,9.553
	l0.745,0.463c9.471,5.764,19.939,10.221,29.792,15.325c14.267,7.389,28.346,15.441,41.962,23.969
	c80.97,50.715,139.213,124.85,162.478,218.113c9.067,36.342,10.602,71.009,10.66,108.315c0.353,9.392,0.435,18.714,0.343,28.112
	c-0.02,5.149-0.149,10.333-0.023,15.48l-0.292,154.001h-251.102h-33.189h-51.201h-366.228h-205.882H823.345h-20.788
	c-0.764-26.538,0.041-53.214-0.304-79.782c-17.397-8.702-34.682-17.581-51.36-27.609c13.197-19.106,28.906-51.854,32.516-74.423
	c-25.509-14.471-50.264-31.417-74.057-48.514c-118.845-85.405-218.607-198.295-277.105-333.38
	c-4.332-10.249-13.849-26.901-13.404-37.971c9.808-2.323,45.837-24.059,56.215-29.69l4.198-3.201
	c2.168-5.553,0.345-114.834,1.203-133.243c0.084-5.853-0.061-11.989,1.648-17.628c1.413-59.853,26.444-109.805,65.305-154.225
	c-1.102-24.782-0.843-49.564-0.606-74.36c-11.182-0.463-23.024-2.74-31.397-10.747c-12.179-11.642-11.791-28.524-12.017-44.028
	c1.235-13.112,0.657-26.811,0.694-40.002l-0.029-71.948c-0.002-12.867-1.205-27.085,1.133-39.743
	c1.617-8.751,4.875-16.811,11.013-23.369C527.036,752.087,539.75,751.642,554.533,751.103z"/>
<path style="fill:#67A2AD;" d="M897.958,1477.022l-0.339-1.064c-1.358-0.723-2.513-0.958-4.016-1.174
	c-2.358-0.339-1.846-0.212-3.346-1.686c1.153-2.799,9.284-6,11.989-8.939c29.512-32.091-7.125-48.661-7.475-55.74
	c3.947,0.694,11.168,2.918,14.912,1.776c0.437-0.133,0.86-0.306,1.29-0.457c30.807,2.195,61.125,6.303,92.144,5.992
	c-1.607,11.705-2.354,58.708-0.416,69.743C968.759,1484.998,931.002,1485.521,897.958,1477.022z"/>
<path style="fill:#150D31;" d="M1463.344,773.847c8.626,1.411,16.133,5.386,21.521,12.419c3.393,4.43,5.469,9.298,6.317,14.808
	c3.124,20.296,1.321,47.528,1.394,68.694l-0.171,53.847c-0.078,10.249,0.578,21.217-1.135,31.331
	c-1.495,8.83-7.262,13.971-14.159,18.961c-5.139,2.697-10.216,3.683-15.87,4.518c-2.793-2.399-5.172-5.029-7.619-7.773
	l-0.449-126.857c-0.055-10.952-1.956-53.41,0.698-61.54C1455.333,777.777,1459.377,775.734,1463.344,773.847z"/>
<path style="fill:#295778;" d="M552.438,763.181l1.003,0.447c2.111,7.583,0.504,46.887,0.517,57.82
	c0.071,53.367,1.107,106.924-0.106,160.269l-1.646,1.292c-7.934,1.102-16.932-5.006-23.081-9.449
	c-4.904-5.059-9.549-11.274-11.007-18.306c-3.161-15.262-1.196-55.141-1.215-72.195l-0.035-51.493
	c-0.002-11.462-0.565-23.31,0.853-34.692c0.86-6.919,2.432-12.003,6.55-17.763C531.356,769.196,540.891,765.319,552.438,763.181z"/>
<linearGradient id="SVGID_00000116947318571763617410000004443140149234224815_" gradientUnits="userSpaceOnUse" x1="896.9305" y1="-266.5533" x2="563.0137" y2="-300.3422" gradientTransform="matrix(1 0 0 -1 0 1021.8898)">
	<stop  offset="0" style="stop-color:#81A7AC"/>
	<stop  offset="1" style="stop-color:#BFCDCC"/>
</linearGradient>
<path style="fill:url(#SVGID_00000116947318571763617410000004443140149234224815_);" d="M897.958,1477.022
	c-0.533,0.014-1.068,0.063-1.601,0.043c-13.789-0.502-35.105-6.885-48.908-10.431c-84.121-21.611-182.98-66.185-239.602-134.454
	c-33.093-39.898-57.955-89.57-58.506-142.331c-0.192-18.512,2.607-36.962,4.359-55.358c8.54,30.656,20.302,60.135,38,86.728
	c52.077,78.251,136.31,135.432,224.641,165.087c31.413,10.547,62.287,16.93,94.631,23.432c-0.429,0.151-0.853,0.323-1.29,0.457
	c-3.744,1.143-10.964-1.082-14.912-1.776c0.351,7.079,36.987,23.649,7.475,55.74c-2.705,2.94-10.837,6.141-11.989,8.939
	c1.499,1.474,0.988,1.347,3.346,1.686c1.503,0.216,2.658,0.451,4.016,1.174L897.958,1477.022z"/>
<path style="fill:#67A2AD;" d="M1002.199,585.995c22.714-0.176,45.764,0.265,68.467,1.011c12.105,0.4,38.238,4.165,48.508,1.552
	c20.817,0.241,42.381,3.246,62.987,6.203c68.833,9.875,143.152,28.15,193.44,79.388c60.895,62.05,60.538,138.349,59.435,219.032
	c-1.588,115.979-28.52,255.259-115.213,339.496c-71.142,69.127-180.83,102.847-278.016,108.317
	c-12.06,0.678-24.39,1.635-36.468,1.199c-0.523-0.019-1.045-0.063-1.568-0.094c-0.417-5.943-0.37-11.633-0.02-17.579l-0.459-0.135
	c1.074-7.907,0.151-16.942,0.339-25.019c-3.161,0.012-7.43,0.566-10.159-1.09c81.769-0.365,165.383-10.633,237.736-51.505
	c83.99-47.446,130.264-135.289,155.209-225.414c8.855-44.637,19.11-88.486,23.716-133.864
	c5.645-57.851-3.307-113.704-35.049-163.333c-33.883-52.973-90.042-77.965-149.619-90.352c-14.678-3.052-30.143-3.957-44.586-7.456
	c-0.38-0.092-0.755-0.206-1.131-0.31l1.303-0.527l-0.414-0.77c-58.537-5.813-117.128-8.804-175.959-9.014
	c-1.252-0.98-1.413-24.406-2.246-28.643C1002.361,586.722,1002.277,586.359,1002.199,585.995z"/>
<path style="fill:#A1BEC2;" d="M1410.641,912.574c1.603-5.811-1.529-13.622,3.373-17.965c0.045,1.582,0.18,1.637,0.663,3.028
	c2.383,6.864,1.019,27.663,1.035,36.017c0.143,82.82-27.215,182.176-76.301,249.929c-58.198,80.332-153.135,118.864-248.322,133.817
	c-28.99,4.553-58.041,6.17-87.338,7.121l-0.459-0.135c1.074-7.907,0.151-16.942,0.339-25.019c-3.161,0.012-7.43,0.566-10.159-1.09
	c81.769-0.365,165.383-10.633,237.736-51.505c83.99-47.446,130.264-135.289,155.209-225.414c0.872-0.541,1.548-0.898,2.291-1.666
	C1397.072,1011.052,1412.068,928.124,1410.641,912.574z"/>
<linearGradient id="SVGID_00000178168581866154001680000011195524715314818968_" gradientUnits="userSpaceOnUse" x1="1004.2977" y1="58.5223" x2="577.0688" y2="53.6905" gradientTransform="matrix(1 0 0 -1 0 1021.8898)">
	<stop  offset="0" style="stop-color:#82AEB5"/>
	<stop  offset="1" style="stop-color:#B6C7C6"/>
</linearGradient>
<path style="fill:url(#SVGID_00000178168581866154001680000011195524715314818968_);" d="M1001.37,584.587
	c28.806-0.041,57.408,0.004,86.181,1.49c10.296,0.533,21.487,0.531,31.623,2.481c-10.271,2.613-36.403-1.153-48.508-1.552
	c-22.703-0.747-45.752-1.188-68.467-1.011c0.078,0.365,0.163,0.727,0.235,1.094c0.833,4.237,0.994,27.663,2.246,28.643
	c58.831,0.21,117.422,3.201,175.959,9.014l0.414,0.77l-1.303,0.527c-104.858-9.057-210.722-12.983-315.766-3.965
	c-34.535,2.964-69.835,6.815-103.508,15.317c-32.45,8.197-65.099,20.233-91.015,41.932c-42.712,35.766-65.627,88.811-70.066,143.791
	c-1.413,17.499-0.247,34.984-1.245,52.41c1.123,25.296,2.423,50.617,5.911,75.717c13.02,93.643,48.798,195.365,120.183,260.458
	c14.5,13.222,30.405,25.913,47.493,35.572c60.964,34.463,152.31,48.634,221.735,50.999c2.728,1.656,6.997,1.102,10.159,1.09
	c-0.188,8.077,0.735,17.113-0.339,25.019l0.459,0.135c-0.351,5.947-0.398,11.637,0.02,17.579l-0.496,0.092
	c-117.484-1.745-223.411-19.586-311.818-103.186c-62.806-59.392-93.092-135.154-107.118-218.936
	c-4.624-27.618-7.867-55.346-8.614-83.363c-0.645-24.261-0.304-48.624-0.339-72.898c-0.023-18.449-0.925-37.471,0.512-55.86
	c3.922-50.141,23.726-99.935,58.608-136.445C714.269,588.016,892.676,587.163,1001.37,584.587z"/>
<path style="fill:#F3EEE6;" d="M1003.292,1324.385c-52.72,0.878-131.945-10.255-182.547-27.214
	c-78.559-26.333-144.16-83.057-181.075-157.292c-32.493-65.343-43.057-134.683-46.154-206.87
	c-0.702-16.331-2.621-41.427,2.472-56.646l2.162-0.833c1.123,25.296,2.423,50.617,5.911,75.717
	c13.02,93.643,48.798,195.365,120.183,260.458c14.5,13.222,30.405,25.913,47.493,35.572c60.964,34.463,152.31,48.634,221.735,50.999
	c2.728,1.656,6.997,1.102,10.159,1.09C1003.443,1307.443,1004.367,1316.479,1003.292,1324.385z"/>
<path style="fill:#A1BEC2;" d="M1455.392,1052.906c33.747,40.198,59.504,91.869,65.303,144.26
	c9.508,20.649,7.622,111.99,7.689,137.966c0.023,9.465,1.813,32.25-0.91,40.205c-8.657,23.018-17.136,44.998-29.97,66.193
	c-38.265,63.204-105.497,110.262-171.884,140.432c-21.903,9.955-45.688,20.186-68.919,26.444
	c-14.724,4.902-29.733,8.855-44.459,13.689l-0.513-101.146c-68.294,19.061-137.061,28.939-208.079,28.81
	c-1.021-21.18,1.564-43.33-0.949-64.288c-1.938-11.035-1.192-58.037,0.416-69.743c68.808,0.114,137.78-11.554,202.301-35.554
	c91.999-34.218,174.287-97.922,220.622-185.687c5.396-10.219,10.186-20.825,13.796-31.809c2.675-8.14,4.688-17.411,8.35-25.117
	c0.249-0.525,0.511-1.049,0.766-1.574c-1.454-7.099,2.94-29.202,3.853-37.522
	C1454.469,1083.288,1453.728,1067.986,1455.392,1052.906z"/>
<path style="fill:#150D31;" d="M1520.695,1197.166c9.508,20.649,7.622,111.99,7.689,137.966c0.023,9.465,1.813,32.25-0.91,40.205
	c-8.657,23.018-17.136,44.998-29.97,66.193c-38.265,63.204-105.497,110.262-171.884,140.432
	c-21.903,9.955-45.688,20.186-68.919,26.444c-14.724,4.902-29.733,8.855-44.459,13.689l-0.513-101.146
	c14.727-4.965,29.486-9.61,44.069-15.012c63.696-25.788,124.307-58.226,173.772-106.742
	C1487.849,1342.031,1519.968,1280.148,1520.695,1197.166z"/>
<path style="fill:#0E1235;" d="M1211.729,1520.95c14.727-4.965,29.486-9.61,44.069-15.012c2.813,8.608,0.913,87.996,0.904,102.469
	c-14.724,4.902-29.733,8.855-44.459,13.689L1211.729,1520.95z"/>
<linearGradient id="SVGID_00000114037947688924199540000002248219796479511218_" gradientUnits="userSpaceOnUse" x1="1397.892" y1="-355.8246" x2="1069.3082" y2="-227.9091" gradientTransform="matrix(1 0 0 -1 0 1021.8898)">
	<stop  offset="0" style="stop-color:#2E627C"/>
	<stop  offset="1" style="stop-color:#5A8D9B"/>
</linearGradient>
<path style="fill:url(#SVGID_00000114037947688924199540000002248219796479511218_);" d="M1003.116,1415.729
	c68.808,0.114,137.78-11.554,202.301-35.554c91.999-34.218,174.287-97.922,220.622-185.687
	c5.396-10.219,10.186-20.825,13.796-31.809c2.675-8.14,4.688-17.411,8.35-25.117c0.249-0.525,0.511-1.049,0.766-1.574
	c15.341,55.198,9.812,107.655-18.463,157.694c-49.696,87.951-153.176,143.531-247.566,169.271
	c-57.338,15.635-120.777,23.994-180.222,22.519C1000.762,1474.437,1001.509,1427.435,1003.116,1415.729z"/>
<linearGradient id="SVGID_00000134960113754931956670000009199771702912409217_" gradientUnits="userSpaceOnUse" x1="835.8204" y1="-646.9232" x2="787.8999" y2="-169.887" gradientTransform="matrix(1 0 0 -1 0 1021.8898)">
	<stop  offset="0" style="stop-color:#3E0329"/>
	<stop  offset="1" style="stop-color:#00D8E8"/>
</linearGradient>
<path style="fill:url(#SVGID_00000134960113754931956670000009199771702912409217_);" d="M482.109,1222.079
	c6.913,57.146,32.977,106.783,70.713,149.689c9.745,11.082,21.035,20.841,30.666,31.887c10.717,8.181,20.331,17.783,30.958,26.095
	c15.604,12.203,32.497,22.766,49.184,33.396c19.369,9.543,37.699,20.735,57.502,29.531c88.598,39.357,185.888,57.136,282.516,57.081
	c71.019,0.129,139.785-9.749,208.079-28.81l0.513,101.146c-69.298,16.976-138.205,25.606-209.551,25.823
	c0.076,13.136-1.086,27.371,0.457,40.35c1.311,8.087,2.525,39.435,0.196,46.724c-23.373,0.37-46.76,0.121-70.135,0.065
	c-12.089-0.029-25.082-1.004-37.03,0.588c-25.098-1.885-52.011-2.472-72.114,14.955c-12.836,11.125-19.99,27.677-20.888,44.5
	c-0.586,10.982,2.913,31.472-1.096,40.997c-6.137-3.624-12.409-6.993-18.671-10.392c-25.509-14.471-50.264-31.417-74.057-48.514
	c-118.845-85.405-218.607-198.295-277.105-333.38c-4.332-10.249-13.849-26.901-13.404-37.971
	c9.808-2.323,45.837-24.059,56.215-29.69l4.198-3.201c2.168-5.553,0.345-114.834,1.203-133.243
	C480.545,1233.855,480.4,1227.718,482.109,1222.079z"/>
<path style="fill:#A1BEC2;" d="M475.059,1376.151l4.198-3.201c2.168-5.553,0.345-114.834,1.203-133.243
	c0.96,29.435,0.084,59.121-0.069,88.582c-0.084,16.507-1.607,34.474,1.933,50.672c4.475,20.466,14.745,40.782,25.56,58.565
	c13.399,22.034,29.447,42.099,48.322,59.694c2.605,2.428,5.296,4.757,8.03,7.038c24.21,23.063,56.887,45.686,87.267,59.713
	c16.948,9.767,35.552,17.44,53.604,24.906c93,38.463,196.794,60.033,297.583,59.041c0.076,13.136-1.086,27.371,0.457,40.35
	c-158.303,0.921-348.076-65.401-461.774-177.596C505.07,1474.851,475.411,1428.654,475.059,1376.151z"/>
<linearGradient id="SVGID_00000182519111004311835240000007187425203613803448_" gradientUnits="userSpaceOnUse" x1="958.8893" y1="-777.374" x2="398.2166" y2="-419.9116" gradientTransform="matrix(1 0 0 -1 0 1021.8898)">
	<stop  offset="0" style="stop-color:#C4C8C6"/>
	<stop  offset="1" style="stop-color:#F5EEE4"/>
</linearGradient>
<path style="fill:url(#SVGID_00000182519111004311835240000007187425203613803448_);" d="M475.059,1376.151
	c0.353,52.503,30.012,98.7,66.315,134.523c113.698,112.194,303.471,178.517,461.774,177.596c1.311,8.087,2.525,39.435,0.196,46.724
	c-23.373,0.37-46.76,0.121-70.135,0.065c-12.089-0.029-25.082-1.004-37.03,0.588c-25.098-1.885-52.011-2.472-72.114,14.955
	c-12.836,11.125-19.99,27.677-20.888,44.5c-0.586,10.982,2.913,31.472-1.096,40.997c-6.137-3.624-12.409-6.993-18.671-10.392
	c-25.509-14.471-50.264-31.417-74.057-48.514c-118.845-85.405-218.607-198.295-277.105-333.38
	c-4.332-10.249-13.849-26.901-13.404-37.971C428.652,1403.519,464.681,1381.782,475.059,1376.151z"/>
<path style="fill:#150D31;" d="M598.151,875.53c0.998-17.426-0.169-34.912,1.245-52.41c4.439-54.98,27.354-108.025,70.066-143.791
	c25.915-21.699,58.565-33.736,91.015-41.932c33.673-8.503,68.972-12.354,103.508-15.317c105.044-9.018,210.908-5.092,315.766,3.965
	c0.376,0.104,0.751,0.218,1.131,0.31c14.443,3.499,29.908,4.404,44.586,7.456c59.576,12.387,115.736,37.379,149.619,90.352
	c31.742,49.629,40.693,105.481,35.049,163.333c-4.606,45.378-14.861,89.227-23.716,133.864
	c-24.945,90.125-71.219,177.968-155.209,225.414c-72.353,40.872-155.967,51.14-237.736,51.505
	c-69.425-2.366-160.771-16.537-221.735-50.999c-17.087-9.659-32.993-22.35-47.493-35.572
	c-71.385-65.094-107.163-166.816-120.183-260.458C600.573,926.147,599.274,900.826,598.151,875.53z"/>
<linearGradient id="SVGID_00000000914659717294570330000008907096392813520312_" gradientUnits="userSpaceOnUse" x1="1200.9651" y1="42.1087" x2="1367.4585" y2="26.9085" gradientTransform="matrix(1 0 0 -1 0 1021.8898)">
	<stop  offset="0" style="stop-color:#953D2F"/>
	<stop  offset="1" style="stop-color:#763233"/>
</linearGradient>
<path style="fill:url(#SVGID_00000000914659717294570330000008907096392813520312_);" d="M1276.985,720.415
	c41.677,17.991,77.951,33.867,95.572,78.682c8.275,21.043,10.029,44.016,8.597,66.411c-2.401,37.532-13.448,74.782-23.298,110.881
	c-12.177,44.635-24.508,89.58-43.332,131.961c-29.913,67.34-69.304,108.359-138.305,135.477
	c-1.803-4.89,14.216-74.951,16.288-85.152l56.979-295.474C1258.483,815.795,1266.005,767.361,1276.985,720.415z"/>
<path style="fill:#DC6A43;" d="M759.086,708.277c3.555,14.418,5.035,29.818,7.24,44.508l10.263,66.646l29.994,191.365
	c7.785,49.463,15.513,98.99,24.041,148.329l10.272,60.199c1.521,9.347,3.75,19.134,4.408,28.561
	c-14.11-4.543-28.036-9.441-41.485-15.713c-66.377-30.946-108.953-92.555-133.288-159.705
	c-28.14-77.651-45.788-175.155-37.024-257.597c1.458-13.712,3.099-30.962,9.322-43.485
	C655.588,745.705,731.129,717.589,759.086,708.277z"/>
<path style="fill:#A34435;" d="M759.086,708.277c77.696-25.98,163.378-34.79,244.957-34.52l-0.1,597.802
	c-53.145,0.433-107.908-7.936-158.638-23.675c-0.659-9.428-2.887-19.214-4.408-28.561l-10.272-60.199
	c-8.528-49.339-16.256-98.866-24.041-148.329l-29.994-191.365l-10.263-66.646C764.122,738.095,762.642,722.695,759.086,708.277z"/>
<path style="fill:#56252C;" d="M1004.043,673.758c79.255,1.007,159.742,8.757,235.572,32.969
	c12.276,3.92,25.894,7.854,37.369,13.689c-10.98,46.946-18.502,95.38-27.501,142.786l-56.979,295.474
	c-2.072,10.202-18.091,80.262-16.288,85.152c-50.717,20.554-117.859,28.871-172.274,27.732L1004.043,673.758z"/>
<linearGradient id="SVGID_00000148638390921390290740000011340185051150824629_" gradientUnits="userSpaceOnUse" x1="1474.092" y1="-1039.6658" x2="1257.825" y2="-653.2147" gradientTransform="matrix(1 0 0 -1 0 1021.8898)">
	<stop  offset="0" style="stop-color:#739DAC"/>
	<stop  offset="1" style="stop-color:#99B6BD"/>
</linearGradient>
<path style="fill:url(#SVGID_00000148638390921390290740000011340185051150824629_);" d="M1527.475,1375.338
	c3.473,2.393,7.087,4.206,10.849,6.082c18.471,8.291,36.713,17.622,54.535,27.224c17.226,8.587,34.596,18.191,52.34,25.545
	c5.874,2.654,15.157,5.245,19.712,9.553l0.745,0.463c9.471,5.764,19.939,10.221,29.792,15.325
	c14.267,7.389,28.346,15.441,41.962,23.969c80.97,50.715,139.213,124.85,162.478,218.113c9.067,36.342,10.602,71.009,10.66,108.315
	c0.353,9.392,0.435,18.714,0.343,28.112c-0.02,5.149-0.149,10.333-0.023,15.48l-0.292,154.001h-251.102h-33.189h-51.201h-366.228
	h-205.882H823.345h-20.788c-0.764-26.538,0.041-53.214-0.304-79.782c-17.397-8.702-34.682-17.581-51.36-27.609
	c13.197-19.106,28.906-51.854,32.516-74.423c6.262,3.399,12.534,6.768,18.671,10.392c4.008-9.526,0.51-30.015,1.096-40.997
	c0.898-16.823,8.052-33.375,20.888-44.5c20.104-17.426,47.016-16.84,72.114-14.955c11.948-1.592,24.941-0.617,37.03-0.588
	c23.375,0.057,46.762,0.306,70.135-0.065c2.328-7.289,1.115-38.638-0.196-46.724c-1.542-12.979-0.38-27.215-0.457-40.35
	c71.346-0.218,140.254-8.848,209.551-25.823c14.725-4.833,29.735-8.787,44.459-13.689c23.232-6.258,47.016-16.489,68.919-26.444
	c66.387-30.17,133.619-77.228,171.884-140.432C1510.339,1420.335,1518.818,1398.356,1527.475,1375.338z"/>
<path style="fill:#0E1235;" d="M1623.94,1885.524c2.125,4.531,0.151,24.516,0.098,30.929c-0.257,30.494,0.082,60.629,2.246,91.068
	h-51.201c5.171-12.76,9.177-26.146,13.93-39.082C1599.387,1940.198,1610.573,1912.482,1623.94,1885.524z"/>
<path style="fill:#295778;" d="M1623.94,1885.524c24.09-50.913,70.009-116.453,112.234-153.801
	c15.755-13.938,32.875-24.535,54.676-22.999c11.337,0.798,25.066,5.084,34.663,11.066c20.776,12.954,67.195,69.372,85.035,90.136
	c0.353,9.392,0.435,18.714,0.343,28.112c-14.006-9.812-29.004-18.312-43.53-27.334c-14.194-8.816-28.79-21.446-45.068-25.843
	c-7.562-2.044-17.93-1.372-25.625,0.031c-9.335,1.701-19.957,5.839-27.781,11.164c-22.117,15.053-40.396,38.634-58.391,58.259
	c-17.289,18.859-36.628,37.973-51.001,59.214c-2.673,3.953-5.314,8.15-6.672,12.756c-5.713,19.361,0.661,51.579,4.6,71.356
	l2.05,9.878h-33.189c-2.164-30.439-2.503-60.574-2.246-91.068C1624.091,1910.039,1626.065,1890.055,1623.94,1885.524z"/>
<linearGradient id="SVGID_00000066473294309779981260000015041788723265218715_" gradientUnits="userSpaceOnUse" x1="1858.7773" y1="-1016.3653" x2="1723.6504" y2="-804.3442" gradientTransform="matrix(1 0 0 -1 0 1021.8898)">
	<stop  offset="0" style="stop-color:#3B758E"/>
	<stop  offset="1" style="stop-color:#58899B"/>
</linearGradient>
<path style="fill:url(#SVGID_00000066473294309779981260000015041788723265218715_);" d="M1659.473,2007.52l-2.05-9.878
	c-3.94-19.776-10.313-51.995-4.6-71.356c1.358-4.606,3.999-8.802,6.672-12.756c14.373-21.241,33.712-40.354,51.001-59.214
	c17.995-19.625,36.274-43.206,58.391-58.259c7.824-5.325,18.446-9.463,27.781-11.164c7.695-1.403,18.063-2.076,25.625-0.031
	c16.278,4.396,30.874,17.026,45.068,25.843c14.526,9.022,29.523,17.522,43.53,27.334c-0.02,5.149-0.149,10.333-0.023,15.48
	l-0.292,154.001H1659.473z"/>
<path style="fill:#150D31;" d="M1592.858,1408.644c17.226,8.587,34.596,18.191,52.34,25.545c5.874,2.654,15.157,5.245,19.712,9.553
	c-12.885,41.825-33.012,82.132-55.176,119.76c-88.608,150.428-229.998,274.339-383.648,355.701l-17.279,8.94
	c-0.355-31.846,1.331-63.541-0.145-95.421c5.862-3.138,11.57-6.744,17.289-10.141c126.012-74.843,224.498-162.351,305.105-285.56
	C1555.189,1500.131,1581.971,1451.319,1592.858,1408.644z"/>
<linearGradient id="SVGID_00000172422564403064970470000005095147832275216001_" gradientUnits="userSpaceOnUse" x1="1404.1124" y1="-665.3182" x2="1222.8125" y2="-467.9807" gradientTransform="matrix(1 0 0 -1 0 1021.8898)">
	<stop  offset="0" style="stop-color:#5A90A2"/>
	<stop  offset="1" style="stop-color:#89B0B6"/>
</linearGradient>
<path style="fill:url(#SVGID_00000172422564403064970470000005095147832275216001_);" d="M1527.475,1375.338
	c3.473,2.393,7.087,4.206,10.849,6.082c18.471,8.291,36.713,17.622,54.535,27.224c-10.888,42.675-37.669,91.487-61.803,128.376
	c-80.607,123.209-179.093,210.718-305.105,285.56c-5.719,3.397-11.427,7.003-17.289,10.141c-0.394-11.039,0.143-22.136,0.122-33.183
	c-0.037-18.673-4.443-33.685-18.012-46.995c-6.954-6.821-15.551-12.534-25.037-15.008c-19.737-5.143-49.122-2.548-69.874-2.542
	l-92.151,0.208l-0.365-0.208c2.328-7.289,1.115-38.638-0.196-46.724c-1.542-12.979-0.38-27.215-0.457-40.35
	c71.346-0.218,140.254-8.848,209.551-25.823c14.725-4.833,29.735-8.787,44.459-13.689c23.232-6.258,47.016-16.489,68.919-26.444
	c66.387-30.17,133.619-77.228,171.884-140.432C1510.339,1420.335,1518.818,1398.356,1527.475,1375.338z"/>
<linearGradient id="SVGID_00000113333228311095085980000014538198805318699676_" gradientUnits="userSpaceOnUse" x1="1344.1055" y1="-601.1454" x2="1217.679" y2="-449.1808" gradientTransform="matrix(1 0 0 -1 0 1021.8898)">
	<stop  offset="0" style="stop-color:#356177"/>
	<stop  offset="1" style="stop-color:#4B8594"/>
</linearGradient>
<path style="fill:url(#SVGID_00000113333228311095085980000014538198805318699676_);" d="M1527.475,1375.338
	c3.473,2.393,7.087,4.206,10.849,6.082c-6.005,68.89-47.638,122.228-98.851,165.293c-84.76,71.275-202.193,115.375-310.776,132.388
	c-41.977,6.576-83.153,9.026-125.55,9.169c-1.542-12.979-0.38-27.215-0.457-40.35c71.346-0.218,140.254-8.848,209.551-25.823
	c14.725-4.833,29.735-8.787,44.459-13.689c23.232-6.258,47.016-16.489,68.919-26.444c66.387-30.17,133.619-77.228,171.884-140.432
	C1510.339,1420.335,1518.818,1398.356,1527.475,1375.338z"/>
<path style="fill:#295778;" d="M1003.343,1734.994l0.365,0.208l92.151-0.208c20.752-0.006,50.137-2.601,69.874,2.542
	c9.486,2.474,18.083,8.187,25.037,15.008c13.569,13.31,17.975,28.322,18.012,46.995c0.021,11.047-0.516,22.144-0.122,33.183
	c1.476,31.879-0.21,63.575,0.145,95.421c-0.347,26.45-0.055,52.918,0.049,79.378h-205.882H823.345h-20.788
	c-0.764-26.538,0.041-53.214-0.304-79.782c-17.397-8.702-34.682-17.581-51.36-27.609c13.197-19.106,28.906-51.854,32.516-74.423
	c6.262,3.399,12.534,6.768,18.671,10.392c4.008-9.526,0.51-30.015,1.096-40.997c0.898-16.823,8.052-33.375,20.888-44.5
	c20.104-17.426,47.016-16.84,72.114-14.955c11.948-1.592,24.941-0.617,37.03-0.588
	C956.584,1735.115,979.97,1735.364,1003.343,1734.994z"/>
<path style="fill:#67A2AD;" d="M802.081,1836.098c4.008-9.526,0.51-30.015,1.096-40.997c0.898-16.823,8.052-33.375,20.888-44.5
	c20.104-17.426,47.016-16.84,72.114-14.955c-26.609,17.103-63.782,23.614-70.993,59.96c-3.971,20.021-1.566,52.316-1.541,73.373
	l-0.3,138.541h-20.788c-0.764-26.538,0.041-53.214-0.304-79.782c-17.397-8.702-34.682-17.581-51.36-27.609
	c13.197-19.106,28.906-51.854,32.516-74.423C789.672,1829.105,795.944,1832.474,802.081,1836.098z"/>
<path style="fill:#0E1235;" d="M783.41,1825.706c6.262,3.399,12.534,6.768,18.671,10.392l0.172,91.64
	c-17.397-8.702-34.682-17.581-51.36-27.609C764.09,1881.024,779.799,1848.276,783.41,1825.706z"/>
<path style="fill:#0E1235;" d="M1003.24,1811.44l0.57,0.171c-0.829,29.994-0.039,60.129-0.227,90.146
	c-0.076,12.246-1.962,38.345,0.11,49.366c2.209,0.484,4.402,0.69,6.607,1.1c0.131,0.024,0.243,0.11,0.363,0.165l-7.023,0.18
	c-22.595-0.794-45.511,0.021-68.135,0.071l-0.139-141.153L1003.24,1811.44z"/>
<linearGradient id="SVGID_00000101806350027653121370000008532312338516933801_" gradientUnits="userSpaceOnUse" x1="1208.2649" y1="-850.5057" x2="1003.5848" y2="-848.3622" gradientTransform="matrix(1 0 0 -1 0 1021.8898)">
	<stop  offset="0" style="stop-color:#071D4C"/>
	<stop  offset="1" style="stop-color:#0F3D63"/>
</linearGradient>
<path style="fill:url(#SVGID_00000101806350027653121370000008532312338516933801_);" d="M1003.708,1735.202l92.151-0.208
	c20.752-0.006,50.137-2.601,69.874,2.542c9.486,2.474,18.083,8.187,25.037,15.008c13.569,13.31,17.975,28.322,18.012,46.995
	c0.021,11.047-0.516,22.144-0.122,33.183c1.476,31.879-0.21,63.575,0.145,95.421c-0.347,26.45-0.055,52.918,0.049,79.378h-205.882
	l0.666-54.953l7.023-0.18c-0.12-0.055-0.231-0.141-0.363-0.165c-2.205-0.41-4.398-0.615-6.607-1.1
	c-2.072-11.021-0.186-37.12-0.11-49.366c0.188-30.017-0.602-60.152,0.227-90.146l-0.57-0.171
	C1003.069,1802.292,1001.105,1739.794,1003.708,1735.202z"/>
<path style="fill:#150D31;" d="M1003.81,1811.61l70.746-0.01l0.145,140.981c-21.333-0.049-42.712,0.19-64.039-0.194
	c-0.12-0.055-0.231-0.141-0.363-0.165c-2.205-0.41-4.398-0.615-6.607-1.1c-2.072-11.021-0.186-37.12-0.11-49.366
	C1003.771,1871.739,1002.981,1841.604,1003.81,1811.61z"/>
</svg>
