<?xml version="1.0" encoding="utf-8"?>
<!-- Generator: Adobe Illustrator 27.5.0, SVG Export Plug-In . SVG Version: 6.00 Build 0)  -->
<svg version="1.1" id="Слой_1" xmlns="http://www.w3.org/2000/svg" xmlns:xlink="http://www.w3.org/1999/xlink" x="0px" y="0px"
	 viewBox="0 0 2008 2008" style="enable-background:new 0 0 2008 2008;" xml:space="preserve">
<path style="fill:#1E1C42;" d="M0.48,0.48h2007.04v2007.04h-72.938h-147.76h-106.653h-71.662h-34.935h-49.988h-355.605h-26.666
	h-79.468h-114.29h-77.641h-29.521H490.284h-47.963h-50.433h-63.086H210.519H72.1H0.48V0.48z"/>
<path style="fill:#FBB88A;" d="M252.215,545.438c3.677,6.625,7.132,13.175,8.74,20.649c-0.241,0.312-0.41,0.694-0.723,0.935
	c-1.709,1.311-2.746,1.031-4.584,0.521c-1.36-1.421-2.105-2.374-2.903-4.212c-0.606-1.39-1.137-2.613-1.88-3.928l-1.156,0.416
	C249.116,555.276,250.699,549.705,252.215,545.438z"/>
<path style="fill:#FCFBEF;" d="M1835.334,853.076c1.46,0.002,2.93-0.008,4.38,0.176c2.981,0.376,6.239,2.446,7.836,5.02
	c1.737,2.797,2.246,5.776,1.521,8.975c-1.096,4.833-4.165,7.076-8.228,9.477c-0.788-0.045-1.578-0.088-2.364-0.159
	c-4.051-0.37-7.499-1.795-9.98-5.174c-1.827-2.489-2.276-5.549-1.633-8.534C1827.966,857.749,1831.114,855.706,1835.334,853.076z"/>
<path style="fill:#FCFBEF;" d="M1849.873,576.669c1.505,0.037,3.02,0.061,4.512,0.27c3.115,0.433,6.098,2.346,7.903,4.916
	c1.88,2.675,2.305,5.992,1.501,9.13c-1.305,5.094-4.559,7.338-8.91,9.825c-1.376-0.072-2.754-0.145-4.12-0.321
	c-3.22-0.416-6.784-2.211-8.581-5.035c-1.578-2.477-2.062-5.014-1.501-7.873C1841.755,582.081,1845.389,579.476,1849.873,576.669z"
	/>
<path style="fill:#FCFBEF;" d="M700.521,217.111c1.954-0.308,3.951-0.476,5.929-0.31c3.281,0.276,6.452,2.083,8.452,4.692
	c1.948,2.542,2.709,5.678,2.182,8.844c-0.862,5.18-3.624,7.622-7.715,10.58c-1.69,0.188-3.322,0.343-5.023,0.235
	c-3.408-0.22-6.76-2.033-8.891-4.696c-2.054-2.566-2.76-5.907-2.305-9.13C693.834,222.481,696.784,219.886,700.521,217.111z"/>
<path style="fill:#FCFBEF;" d="M245.327,238.604c1.764-0.163,3.518-0.263,5.288-0.141c3.704,0.255,6.862,2.078,9.112,5.043
	c1.946,2.562,2.675,5.709,2.176,8.875c-0.802,5.1-3.618,7.654-7.628,10.555c-2.04,0.321-4.159,0.574-6.231,0.423
	c-3.236-0.233-6.286-2.187-8.222-4.741c-2.017-2.658-2.597-6.051-2.058-9.304C238.606,244.245,241.358,241.558,245.327,238.604z"/>
<path style="fill:#F19C6B;" d="M1325.63,125.18c8.226,5.161,13.979,12.853,15.976,22.454c1.929,9.265,0.335,19.936-5.027,27.825
	c-5.539,8.147-14.88,13.649-24.573,15.104c-9.369,1.407-18.875-1.422-26.413-7.052c-8.496-6.347-13.342-15.726-14.506-26.203
	c-0.19-1.709-0.172-3.442-0.121-5.158c3.569,7.976,6.917,13.352,15.139,17.236c8.056,3.807,18.003,3.809,26.207,0.447
	c7.148-2.929,13.052-8.545,16.007-15.716C1332.543,143.872,1329.746,134.777,1325.63,125.18z"/>
<path style="fill:#FCFBEF;" d="M1557.451,1452.871c30.359,11.121,60.062,22.042,89.039,36.476l-9.702,11.927
	c-14.569-2.089-28.63-9.996-42.128-15.662c-12.726-5.343-26.644-10.141-40.17-12.995L1557.451,1452.871z"/>
<path style="fill:#FACD9D;" d="M1270.966,152.15c0.529-7.048,2.123-12.916,6.272-18.748c5.657-7.947,14.249-13.718,23.951-15.242
	c8.998-1.414,17.318,1.609,24.441,7.02c4.116,9.597,6.913,18.692,2.689,28.937c-2.956,7.171-8.859,12.788-16.007,15.716
	c-8.204,3.361-18.151,3.36-26.207-0.447C1277.883,165.502,1274.535,160.127,1270.966,152.15z"/>
<path style="fill:#F19C6B;" d="M249.708,559.819l1.156-0.416c0.743,1.315,1.274,2.538,1.88,3.928
	c0.798,1.839,1.543,2.791,2.903,4.212c1.838,0.51,2.875,0.79,4.584-0.521c0.314-0.241,0.482-0.623,0.723-0.935
	c3.416,14.902,0.972,30.488-7.201,43.471c-8.44,13.41-23.412,23.275-38.812,26.58c-15.982,3.432-32.925-0.057-46.491-9.098
	c-13.285-8.853-22.882-22.493-25.774-38.306c-1.219-6.666-1.535-13.651-0.308-20.333c3.055,5.809,5.871,11.917,9.902,17.128
	c8.177,10.57,22.239,15.78,35.195,17.199c15.828,1.733,34.573-1.397,46.972-11.946C244.026,582.624,248.542,572.183,249.708,559.819
	z"/>
<path style="fill:#FACD9D;" d="M142.368,568.4c0.072-1.002,0.132-2.007,0.27-3.001c1.925-13.893,11.457-27.836,22.647-36.031
	c12.637-9.255,29.341-13.781,44.895-11.299c17.952,2.862,31.364,13.173,42.034,27.37c-1.515,4.267-3.099,9.837-2.507,14.381
	c-1.166,12.364-5.682,22.805-15.27,30.962c-12.399,10.549-31.144,13.679-46.972,11.946c-12.956-1.419-27.018-6.629-35.195-17.199
	C148.24,580.317,145.423,574.209,142.368,568.4z"/>
<path style="fill:#BDCDCF;" d="M1554.49,1472.616c13.526,2.854,27.444,7.652,40.17,12.995c13.499,5.667,27.56,13.573,42.128,15.662
	c-36.546,49.259-60.913,104.225-80.664,162.049c-19.821-10.166-39.859-19.7-60.333-28.485c2.489-11.613,12.444-26.56,10.594-38.31
	c3.877-8.597,10.629-16.488,15.027-24.978C1537.571,1540.356,1548.948,1507.33,1554.49,1472.616z"/>
<path style="fill:#F19C6B;" d="M1775.007,247.318c17.546,30.19,22.769,67.779,13.955,101.597
	c-9.108,34.943-31.783,64.69-62.951,82.906c-29.445,17.213-65.978,21.664-98.853,12.746c-33.316-9.04-64.845-32.444-81.946-62.573
	c-3.983-7.015-7.521-14.608-10.255-22.197c7.685,3.269,15.002,7.758,22.683,11.186c20.568,9.183,43.53,13.33,65.976,13.593
	c42.957,0.502,86.201-14.426,117.045-44.833C1767.373,313.408,1774.701,283.918,1775.007,247.318z"/>
<path style="fill:#BDCDCF;" d="M1689.851,1509.488c62.496,27.381,97.996,57.93,140.544,110.277
	c-12.432,8.242-24.741,16.529-36.115,26.221c-36.781,31.346-67.022,74.166-88.218,117.385c-1.876,2.811-3.452,5.656-5.006,8.655
	c-30.921-33.489-63.998-61.55-103.725-84.168C1615.7,1629.42,1644.481,1551.961,1689.851,1509.488z"/>
<path style="fill:#649CB1;" d="M1597.331,1687.858c39.727,22.619,72.804,50.68,103.725,84.168c1.554-2.999,3.13-5.845,5.006-8.655
	l2.773,0.429l-5.043,10.255c-15.425,38.612-21.086,184.246-23.624,233.465h-71.662h-34.935
	C1562.886,1896.49,1568.605,1795.675,1597.331,1687.858z"/>
<path style="fill:#0E416F;" d="M1706.062,1763.371l2.773,0.429l-5.043,10.255c-15.425,38.612-21.086,184.246-23.624,233.465h-71.662
	c20.633-78.459,56.205-163.207,92.549-235.494C1702.611,1769.027,1704.186,1766.181,1706.062,1763.371z"/>
<path style="fill:#FACD9D;" d="M1534.958,359.797c-12.781-29.261-12.467-66.342-1.431-96.085
	c11.74-31.642,38.322-59.159,69.035-72.908c32.465-14.534,69.876-16.622,103.227-3.712c26.732,10.348,57.391,33.351,69.217,60.226
	c-0.306,36.599-7.634,66.089-34.345,92.424c-30.844,30.407-74.088,45.335-117.045,44.833c-22.446-0.263-45.407-4.41-65.976-13.593
	C1549.96,367.555,1542.643,363.066,1534.958,359.797z"/>
<path style="fill:#953D42;" d="M1411.349,430.096c12.562,7.232,24.145,18.261,35.305,27.487
	c65.586,54.206,116.25,115.981,161.357,187.801c-31.742,19.398-64.853,36.523-97.475,54.38
	c-21.199,11.603-41.928,24.026-63.045,35.768c-14.283,7.944-29.218,15.204-43.187,23.641
	c-30.335-101.838-79.064-168.24-162.678-233.283c24.449-12.079,48.973-27.099,72.808-40.501
	C1346.782,467.201,1379.722,449.508,1411.349,430.096z"/>
<path style="fill:#BDCDCF;" d="M1831.428,1621.247c12.73,16.876,22.483,36.048,29.633,55.915
	c12.132,33.706,18.612,69.725,26.25,104.668c16.399,75.009,29.719,150.969,47.271,225.69h-147.76h-106.653
	c2.538-49.219,8.199-194.853,23.624-233.465l5.043-10.255C1744.702,1699.206,1769.941,1664.741,1831.428,1621.247z"/>
<path style="fill:#357E9D;" d="M1703.792,1774.055c26.025,42.62,39.061,88.753,53.118,136.222
	c9.624,32.507,19.4,65.021,29.911,97.244h-106.653C1682.707,1958.301,1688.367,1812.667,1703.792,1774.055z"/>
<path style="fill:#FCFBEF;" d="M318.129,1506.254c48.5,44.733,76.275,115.062,94.641,177.084
	c28.081,111.861,30.552,210.083,29.551,324.182h-50.433h-63.086H210.519H72.1c5.389-21.697,8.709-44.355,13.245-66.293
	l33.891-161.069c7.398-34.384,13.677-70.017,26.287-102.951C175.674,1598.456,242.362,1539.815,318.129,1506.254z"/>
<path style="fill:#BDCDCF;" d="M305.427,1772.232c-22.221-45.652-52.54-91.261-92.091-123.674
	c-7.864-6.444-16.386-11.668-24.672-17.493l0.232-1.431l1.751-0.163c10.151,3.846,18.589,11.482,26.77,18.422
	c40.311,34.208,65.713,75.752,89.893,122.012c22.021-23.528,38.892-40.864,65.401-59.547c12.816-9.032,26.928-16.607,39.212-26.339
	l0.847-0.682c28.081,111.861,30.552,210.083,29.551,324.182h-50.433h-63.086H210.519c17.85-53.216,35.345-106.814,56.848-158.686
	C278.386,1822.253,289.359,1796.257,305.427,1772.232z"/>
<path style="fill:#0F71B3;" d="M328.802,2007.52c0.666-52.432-0.312-104.023-6.278-156.206c-1.539-13.463-2.724-27.364-5.366-40.654
	c-2.483-12.489-6.46-24.882-10.014-37.105l-1.864-0.006l2.323-0.469l-0.496-1.637c5.49,7.752,9.071,19.357,13.159,28.156
	c30.97,66.675,53.747,136.675,71.622,207.921H328.802z"/>
<path style="fill:#953D42;" d="M1404.305,759.174c13.969-8.438,28.904-15.698,43.187-23.641
	c21.117-11.742,41.846-24.165,63.045-35.768c32.622-17.858,65.733-34.982,97.475-54.38c13.669,23.365,27.352,47.561,38.245,72.359
	c7.146,16.219,14.965,33.549,19.767,50.613c6.823,20.378,13.026,40.939,18.632,61.685c8.283,37.808,15.394,75.609,18.786,114.211
	c1.45,18.828,2.625,37.855,2.413,56.742c-3.757,128.705-30.882,240.022-94.735,352.537c-14.669,25.848-31.168,53.53-51.328,75.468
	c-0.214-16.803-0.725-33.584-1.821-50.356c-0.964-14.78-2.673-29.384-2.132-44.222c-0.02-7.697-0.382-15.276-1.205-22.932
	c-7.858-73.106-49.563-120.034-104.288-164.223c-7.999-6.162-16.968-10.472-25.682-15.492c11.115-0.696,22.062-4.343,31.003-11.058
	c11.633-8.736,17.075-20.445,19.257-34.451c0.265-5.367-0.216-11.284,3.073-15.77c6.981-26.411,7.985-95.005-2.336-119.711
	c-4.2-10.637-10.551-28.667-21.648-33.749c-7.846-4.763-15.404-7.962-24.151-10.702l-4.565-0.026
	c-0.504-20.343-0.668-40.566-3.414-60.766c-0.97-12.581-2.995-25.511-5.888-37.779
	C1413.969,791.593,1408.871,774.807,1404.305,759.174z"/>
<path style="fill:#F19C6B;" d="M1477.997,1070.497c21.438-9.449,43.455-23.916,63.919-35.582l114.562-64.478
	c14.984-8.305,30.811-20.572,46.964-26.184c1.45,18.828,2.625,37.855,2.413,56.742c-21.364,10.527-41.713,23.1-62.54,34.635
	c-47.603,26.368-95.211,53.192-142.102,80.807c-17.046,10.039-33.579,21.258-50.868,30.831
	c-7.999-6.162-16.968-10.472-25.682-15.492c11.115-0.696,22.062-4.343,31.003-11.058c11.633-8.736,17.075-20.445,19.257-34.451
	C1475.188,1080.901,1474.708,1074.983,1477.997,1070.497z"/>
<path style="fill:#953D42;" d="M1684.655,830.042c8.283,37.808,15.394,75.609,18.786,114.211
	c-16.152,5.612-31.979,17.879-46.964,26.184l-114.562,64.478c-20.464,11.666-42.481,26.133-63.919,35.582
	c6.981-26.411,7.985-95.005-2.336-119.711C1545.191,910.361,1614.424,869.246,1684.655,830.042z"/>
<path style="fill:#F19C6B;" d="M1404.305,759.174c13.969-8.438,28.904-15.698,43.187-23.641
	c21.117-11.742,41.846-24.165,63.045-35.768c32.622-17.858,65.733-34.982,97.475-54.38c13.669,23.365,27.352,47.561,38.245,72.359
	c7.146,16.219,14.965,33.549,19.767,50.613c6.823,20.378,13.026,40.939,18.632,61.685
	c-70.231,39.204-139.464,80.319-208.995,120.744c-4.2-10.637-10.551-28.667-21.648-33.749c-7.846-4.763-15.404-7.962-24.151-10.702
	l-4.565-0.026c-0.504-20.343-0.668-40.566-3.414-60.766c-0.97-12.581-2.995-25.511-5.888-37.779
	C1413.969,791.593,1408.871,774.807,1404.305,759.174z"/>
<path style="fill:#953D42;" d="M1646.257,717.744c7.146,16.219,14.965,33.549,19.767,50.613
	c-22.622,13.116-44.747,27.087-67.404,40.143c-56.368,32.483-113.204,63.919-168.758,97.835l-4.565-0.026
	c-0.504-20.343-0.668-40.566-3.414-60.766c6.07-2.56,11.985-6.703,17.683-10.029c13.449-7.852,26.791-15.954,40.39-23.538
	l106.785-60.393C1606.465,740.447,1627.388,730.241,1646.257,717.744z"/>
<path style="fill:#F19C6B;" d="M1404.305,759.174c13.969-8.438,28.904-15.698,43.187-23.641
	c21.117-11.742,41.846-24.165,63.045-35.768c32.622-17.858,65.733-34.982,97.475-54.38c13.669,23.365,27.352,47.561,38.245,72.359
	c-18.869,12.497-39.792,22.703-59.517,33.839l-106.785,60.393c-13.598,7.583-26.94,15.686-40.39,23.538
	c-5.698,3.326-11.613,7.47-17.683,10.029c-0.97-12.581-2.995-25.511-5.888-37.779
	C1413.969,791.593,1408.871,774.807,1404.305,759.174z"/>
<path style="fill:#F19C6B;" d="M284.794,1115.118c-1.362-7.515-2.583-15.043-3.683-22.599
	c-26.217-179.999,25.77-366.15,134.017-511.111C526.654,432.052,701.023,330.262,885.32,303.618
	c155.11-22.424,317.753,6.405,455.137,81.932c24.414,13.422,48.561,27.846,70.891,44.547
	c-31.627,19.412-64.566,37.105-96.914,55.294c-23.836,13.402-48.359,28.422-72.808,40.501
	c-95.546-64.419-201.633-91.132-315.801-69.043c-114.472,22.15-209.591,89.611-274.3,185.616
	c-40.472,60.047-63.23,130.946-70.088,202.717c-1.684,17.62-3.271,37.087-0.639,54.643c-14.673,1.882-28.083,6.537-37.438,18.81
	c-14.065,18.451-10.651,42.338-10.672,64.006l-0.284,62.722c-0.073,13.847-1.946,30.162,1.484,43.616
	c2.029,7.954,6.691,15.441,12.323,21.342c3.601,3.775,7.638,6.676,11.956,9.539c-26.256,16.274-54.104,30.384-81.254,45.125
	c-52.209,28.348-104.77,56.281-156.486,85.499C304.121,1202.956,293.592,1164.73,284.794,1115.118z"/>
<path style="fill:#953D42;" d="M532.689,982.64l-0.284,62.722c-0.073,13.847-1.946,30.162,1.484,43.616
	c2.029,7.954,6.691,15.441,12.323,21.342c3.601,3.775,7.638,6.676,11.956,9.539c-26.256,16.274-54.104,30.384-81.254,45.125
	c-52.209,28.348-104.77,56.281-156.486,85.499c-16.305-47.528-26.834-85.754-35.633-135.365
	c26.974-16.654,56.687-30.27,84.815-45.015C424.224,1041.475,478.861,1012.722,532.689,982.64z"/>
<linearGradient id="SVGID_1_" gradientUnits="userSpaceOnUse" x1="1455.009" y1="144.6369" x2="532.9487" y2="-28.7088" gradientTransform="matrix(1 0 0 -1 0 1021.8898)">
	<stop  offset="0" style="stop-color:#B7CBCF"/>
	<stop  offset="1" style="stop-color:#FFFFFD"/>
</linearGradient>
<path style="fill:url(#SVGID_1_);" d="M580.799,899.824c-2.632-17.556-1.045-37.022,0.639-54.643
	c6.858-71.771,29.616-142.67,70.088-202.717c64.709-96.005,159.828-163.466,274.3-185.616
	c114.168-22.089,220.255,4.624,315.801,69.043c83.614,65.043,132.343,131.445,162.678,233.283
	c4.567,15.633,9.665,32.418,11.689,48.59c2.893,12.268,4.918,25.198,5.888,37.779c2.746,20.2,2.911,40.423,3.414,60.766l4.565,0.026
	c8.748,2.74,16.305,5.939,24.151,10.702c11.098,5.082,17.448,23.112,21.648,33.749c10.321,24.706,9.318,93.3,2.336,119.711
	c-3.289,4.486-2.809,10.404-3.073,15.77c-2.182,14.006-7.624,25.715-19.257,34.451c-8.942,6.715-19.888,10.362-31.003,11.058
	c8.714,5.02,17.683,9.33,25.682,15.492c54.725,44.188,96.43,91.116,104.288,164.223c0.823,7.656,1.186,15.235,1.205,22.932
	l-2.048-0.016c-1.025-17.405-3.72-34.49-8.82-51.182c-18.92-61.905-65.415-116.381-122.631-146.533l-2.328-3.299
	c-2.16,11.039-3.561,22.526-6.65,33.336c-20.948,73.329-69.233,139.528-132.414,182.025
	c-60.544,40.723-130.495,62.444-202.333,71.589c-19.616,2.495-40.07,4.828-59.876,4.241c-5.319,0.414-10.494,0.484-15.827,0.363
	c0.067,18.926,1.058,38.381-0.276,57.248c-15.515,0.433-31.38-1.241-46.87-2.293c-15.004-3.44-31.062-4.063-46.289-6.825
	c-30.819-5.592-60.46-14.78-89.862-25.439c-44.192-17.736-85.944-39.467-121.92-71.062c-6.848-9.247-24.071-22.699-33.042-32.242
	c-11.897-12.658-20.905-27.226-31.676-40.743c-25.264-37.244-38.712-70.981-46.752-115.319c-1.789-16.593-2.309-32.507-1.886-49.186
	l-0.782-0.178c-2.221-1.507-2.068-2.669-2.834-5.125c0.078-3.087,0.476-4.884-0.953-7.662c-3.097-1.433-5.766-1.97-9.153-2.35
	c-4.304-0.482-7.221-1.423-11.099-3.263l-1.35-0.649c-4.318-2.864-8.355-5.764-11.956-9.539
	c-5.631-5.901-10.294-13.389-12.323-21.342c-3.43-13.453-1.556-29.768-1.484-43.616l0.284-62.722
	c0.022-21.668-3.393-45.554,10.672-64.006C552.716,906.361,566.126,901.706,580.799,899.824z"/>
<path style="fill:#1E1C42;" d="M1403.789,778.167c6.985,7.813,10.649,37.318,12.297,48.438c-0.031-5.559,0.667-12.144-2.719-16.84
	l1-2.029l0.345,0.367l1.282-0.337c2.893,12.268,4.918,25.198,5.888,37.779c-0.664,1.252-1.327,2.505-1.968,3.769
	c-0.027-0.48-0.043-0.958-0.08-1.437c-0.167-2.168-0.045-1.337-0.796-3.553c-0.112,5.204,0.01,10.541-0.557,15.707
	c-2.099-10.56-2.699-21.674-4.339-32.362C1411.574,810.926,1407.85,794.603,1403.789,778.167z"/>
<path style="fill:#1E1C42;" d="M1418.481,860.03c0.566-5.167,0.445-10.504,0.557-15.707c0.751,2.217,0.629,1.386,0.796,3.553
	c0.037,0.478,0.053,0.956,0.08,1.437c0.641-1.264,1.303-2.517,1.968-3.769c2.746,20.2,2.911,40.423,3.414,60.766
	c-2.074,0.376-2.634,0.466-4.743-0.118C1418.054,899.785,1418.775,868.48,1418.481,860.03z"/>
<path style="fill:#1E1C42;" d="M532.689,982.64c0.022-21.668-3.393-45.554,10.672-64.006c9.355-12.274,22.765-16.929,37.438-18.81
	l0.635,3.824c-13.606,0.923-25.055,6.282-33.969,16.883c-4.292,5.104-7.515,10.709-8.755,17.295
	c-3.865,20.504-1.125,56.718-1.08,78.949c0.041,20.678-1.678,42.616,0.367,63.143c1.298,13.006,5.194,23.424,15.755,31.899
	c9.13,7.327,19.449,9.24,30.792,9.529l0.125,13.81l-0.329,3.93l-0.782-0.178c-2.221-1.507-2.068-2.669-2.834-5.125
	c0.078-3.087,0.476-4.884-0.953-7.662c-3.097-1.433-5.766-1.97-9.153-2.35c-4.304-0.482-7.221-1.423-11.099-3.263l-1.35-0.649
	c-4.318-2.864-8.355-5.764-11.956-9.539c-5.631-5.901-10.294-13.389-12.323-21.342c-3.43-13.453-1.556-29.768-1.484-43.616
	L532.689,982.64z"/>
<path style="fill:#1E1C42;" d="M1454.012,917.037c11.098,5.082,17.448,23.112,21.648,33.749c10.321,24.706,9.318,93.3,2.336,119.711
	c-3.289,4.486-2.809,10.404-3.073,15.77c-2.182,14.006-7.624,25.715-19.257,34.451c-8.942,6.715-19.888,10.362-31.003,11.058
	c8.714,5.02,17.683,9.33,25.682,15.492c54.725,44.188,96.43,91.116,104.288,164.223c0.823,7.656,1.186,15.235,1.205,22.932
	l-2.048-0.016c-1.025-17.405-3.72-34.49-8.82-51.182c-18.92-61.905-65.415-116.381-122.631-146.533l-2.328-3.299l0.839-3.973
	l-0.333-1.407c1.129-1.938,5.572-1.615,7.901-1.942c9.044-1.276,19.484-4.539,26.644-10.247
	c12.417-9.896,15.623-24.463,17.287-39.378c-0.717-26.862-0.559-53.788-0.635-80.658c-0.047-16.468,2.138-36.922-2.221-52.775
	C1466.66,932.713,1460.639,925.128,1454.012,917.037z"/>
<path style="fill:#0E416F;" d="M609.442,866.518c0.037,0.588,0.086,1.176,0.114,1.764c0.357,7.387-2.34,16.321-3.5,23.69
	c-1.47,9.326-2.148,18.841-2.17,28.279c-0.314,128.874,5.78,263.751,105.289,358.994c78.016,74.67,207.564,106.532,313.12,103.796
	c81.989-2.127,171.706-21.723,240.784-67.745c20.41-13.599,38.849-30.111,55.823-47.765l6.382-3.201l1.056,1.48
	c-16.05,22.579-46.47,45.882-69.417,60.321c-102.471,64.484-247.229,76.581-363.351,49.786
	c-95.389-22.011-183.417-73.667-235.996-158.041c-45.815-73.52-56.044-168.533-56.276-253.293
	C601.21,930.829,601.73,899.557,609.442,866.518z"/>
<path style="fill:#1E1C42;" d="M1419.451,923.728c9.867,0.657,18.779,2.125,26.417,9.041c9.606,8.702,11.454,18.563,11.781,30.929
	c0.465,17.503,1.958,112.963-1.484,124.074c-1.59,5.133-5.653,9.314-9.271,13.108c-8.359,6.352-16.131,7.781-26.309,8.63
	L1419.451,923.728z"/>
<path style="fill:#1E1C42;" d="M580.799,899.824c-2.632-17.556-1.045-37.022,0.639-54.643
	c6.858-71.771,29.616-142.67,70.088-202.717c64.709-96.005,159.828-163.466,274.3-185.616
	c114.168-22.089,220.255,4.624,315.801,69.043c83.614,65.043,132.343,131.445,162.678,233.283
	c4.567,15.633,9.665,32.418,11.689,48.59l-1.282,0.337l-0.345-0.367l-1,2.029c3.385,4.696,2.687,11.282,2.719,16.84
	c-1.648-11.119-5.312-40.625-12.297-48.438c-5.461-20.566-11.064-40.931-18.994-60.707
	c-33.496-83.543-95.752-159.227-173.95-204.524c-97.179-56.289-204.005-72.451-312.891-43.23
	c-106.41,28.557-198.203,99.69-253.197,195.14c-40.86,70.921-66.775,164.877-58.379,247.042c1.29,27.05,0.139,54.47,0.345,81.577
	c0.286,37.246,1.588,74.647,1.121,111.881c-10.825-1.278-23.444-2.078-30.882-11.235c-3.842-4.731-4.982-12.589-5.633-18.571
	c-2.078-19.071-0.476-39.818-0.502-59.041c-0.031-22.336-2.038-46.724,0.964-68.847c1.086-7.999,4.7-14.565,11.341-19.353
	c5.29-3.816,17.481-6.537,18.742-7.513c0.41-0.319,0.453-0.935,0.68-1.401l-0.114-2.348c-0.855-4.339-0.786-8.969-1.007-13.389
	L580.799,899.824z"/>
<path style="fill:#BDCDCF;" d="M584.668,1135.157c0.367,0.329,0.751,0.637,1.1,0.986c4.475,4.463,12.583,37.752,15.335,45.893
	c3.606,10.678,8.92,21.436,13.818,31.589c59.237,122.821,161.135,181.461,292.371,202.168c17.636,2.783,35.274,5.611,53.093,6.909
	c11.631,0.847,23.326,1.413,34.986,1.523c7.658,0.071,15.774-0.535,23.367,0.359c-5.319,0.414-10.494,0.484-15.827,0.363
	c0.067,18.926,1.058,38.381-0.276,57.248c-15.515,0.433-31.38-1.241-46.87-2.293c-15.004-3.44-31.062-4.063-46.289-6.825
	c-30.819-5.592-60.46-14.78-89.862-25.439c-44.192-17.736-85.944-39.467-121.92-71.062c-6.848-9.247-24.071-22.699-33.042-32.242
	c-11.897-12.658-20.905-27.226-31.676-40.743c-25.264-37.244-38.712-70.981-46.752-115.319c-1.789-16.593-2.309-32.507-1.886-49.186
	L584.668,1135.157z"/>
<path style="fill:#357E9D;" d="M1004.851,654.258c17.546-0.621,35.439,0.59,52.939,1.893
	c98.941,7.362,206.316,38.89,280.317,108.102c47.536,44.461,70.042,103.394,72.138,167.707c0.51,15.676-6.96,135.846-10.874,145.285
	c-0.315-0.782-0.821-1.521-1.246-2.252l-0.163,5.97c-1.06,1.674-1.833,3.295-2.589,5.125l1.023-1.051l-0.866,1.39l0.319-2.389
	l-0.594,1.507l0.182-0.8l0.831-0.178c0.004-3.444,0.139-6.983-0.566-10.37c-0.13-0.625-0.278-1.246-0.417-1.872
	c-1.821-10.817,0.947-24.627,1.107-35.825c0.229-15.882-1.266-31.664-3.295-47.397c-3.763-4.296-8.169-7.358-10.778-12.632
	c-0.139-14.392,0.582-28.877,1.015-43.261c-0.498-48.251-22.681-92.637-56.407-126.246
	c-80.47-80.188-212.221-105.658-321.752-105.716L1004.851,654.258z"/>
<path style="fill:#30C1E4;" d="M1383.334,933.211c8.301,16.284,11.419,37.775,9.763,55.893c-3.763-4.296-8.169-7.358-10.778-12.632
	C1382.18,962.08,1382.901,947.595,1383.334,933.211z"/>
<linearGradient id="SVGID_00000049924003060194937390000002468680930121599661_" gradientUnits="userSpaceOnUse" x1="1054.7184" y1="357.1909" x2="938.6224" y2="-354.0361" gradientTransform="matrix(1 0 0 -1 0 1021.8898)">
	<stop  offset="0" style="stop-color:#B3C6C9"/>
	<stop  offset="1" style="stop-color:#F2F5EB"/>
</linearGradient>
<path style="fill:url(#SVGID_00000049924003060194937390000002468680930121599661_);" d="M609.442,866.518
	c2.105-21.009,23.557-55.872,36.383-73.316c63.62-86.528,179.124-121.64,280.874-133.897c15.439-1.86,31.217-3.479,46.756-3.94
	c10.094-0.3,20.555,0.617,30.547-0.96c0.284-0.045,0.566-0.098,0.849-0.147l0.325,46.991
	c-113.304,0.811-243.732,24.288-326.563,108.664c-44.87,45.707-54.606,90.438-53.782,152.543c0.447,33.61,3.918,67.497,8.43,100.777
	c10.284,75.878,25.892,144.156,83.416,199.842c76.585,74.135,196.768,99.337,300.115,97.153
	c105.448-2.227,214.587-28.763,290.168-107.177c17.964-18.634,33.838-41.248,44.327-64.935
	c26.838-60.615,30.012-146.085,31.033-211.645c2.609,5.274,7.015,8.336,10.778,12.632c2.029,15.733,3.524,31.515,3.295,47.397
	c-0.161,11.198-2.928,25.008-1.107,35.825c0.139,0.625,0.288,1.247,0.417,1.872c0.706,3.387,0.57,6.927,0.566,10.37l-0.831,0.178
	l-0.182,0.8l0.594-1.507l-0.319,2.389l0.866-1.39l-1.023,1.051c0.756-1.831,1.529-3.452,2.589-5.125l0.163-5.97
	c0.425,0.731,0.931,1.47,1.246,2.252c-4.81,33.71-9.712,66.563-20.196,99.09c-10.37,28.724-23.994,55.689-43.6,79.321
	c-2.705,3.261-5.77,7.87-9.236,10.153l-1.056-1.48l-6.382,3.201c-16.974,17.654-35.413,34.167-55.823,47.765
	c-69.078,46.023-158.795,65.619-240.784,67.745c-105.556,2.736-235.104-29.126-313.12-103.796
	c-99.509-95.242-105.603-230.12-105.289-358.994c0.022-9.437,0.7-18.953,2.17-28.279c1.16-7.37,3.857-16.303,3.5-23.69
	C609.528,867.694,609.479,867.106,609.442,866.518z"/>
<path style="fill:#0E416F;" d="M1395.285,1072.326c0.139,0.625,0.288,1.247,0.417,1.872c0.706,3.387,0.57,6.927,0.566,10.37
	l-0.831,0.178l-0.182,0.8l0.594-1.507l-0.319,2.389l0.866-1.39l-1.023,1.051c0.756-1.831,1.529-3.452,2.589-5.125l0.163-5.97
	c0.425,0.731,0.931,1.47,1.246,2.252c-4.81,33.71-9.712,66.563-20.196,99.09c-0.931-1.65-1.952-2.515-3.33-3.789
	C1385.494,1137.07,1391.163,1109.097,1395.285,1072.326z"/>
<path style="fill:#0E416F;" d="M1375.845,1172.546c1.378,1.274,2.399,2.138,3.33,3.789c-10.37,28.724-23.994,55.689-43.6,79.321
	c-2.705,3.261-5.77,7.87-9.236,10.153l-1.056-1.48l-6.382,3.201C1344.519,1237.571,1362.159,1209.739,1375.845,1172.546z"/>
<path style="fill:#1E1C42;" d="M1005.176,701.249c109.531,0.059,241.282,25.529,321.752,105.716
	c33.726,33.608,55.909,77.994,56.407,126.246c-0.433,14.384-1.155,28.869-1.015,43.261c-1.021,65.56-4.194,151.03-31.033,211.645
	c-10.49,23.687-26.364,46.301-44.327,64.935c-75.582,78.414-184.72,104.95-290.168,107.177
	c-103.347,2.183-223.53-23.018-300.115-97.153c-57.524-55.686-73.132-123.964-83.416-199.842
	c-4.512-33.281-7.983-67.167-8.43-100.777c-0.823-62.104,8.912-106.836,53.782-152.543
	C761.444,725.537,891.872,702.06,1005.176,701.249z"/>
<path style="fill:#0F71B3;" d="M1273.11,905.763c0.537,0.318,1.096,0.6,1.613,0.949c10.672,7.189,17.105,33.095,20,44.762
	c5.265,21.217,8.422,42.857,10.602,64.59c3.791,37.836,10.39,162.917-8.5,192.931c-18.12,28.791-58.057,48.898-90.148,56.405
	c-7.095,1.276-14.006,2.091-21.201,2.542c8.052-3.452,16.317-4.814,23.99-9.433c33.132-19.943,53.443-81.026,62.54-117.445
	c12.505-50.058,17.489-99.98,17.276-151.48c-0.075-18.324-0.2-37.122-4.385-55.052
	C1282.442,924.018,1278.657,914.998,1273.11,905.763z"/>
<path style="fill:#0F71B3;" d="M970.359,759.423c10.555-0.633,21.144-0.543,31.713-0.598l0.341,594.152
	c-63.475,0.686-132.488-11.981-190.908-37.052c-19.767-8.483-38.553-19.067-56.883-30.274c-10.827-6.887-20.962-14.3-30.537-22.867
	c-18.555-16.607-37.385-37.71-48.006-60.386c-17.967-38.363-20.517-118.114-22.942-161.769c-1.113-20.053-1.315-40.164-1.266-60.245
	c0.108-44.498,2.905-82.869,34.063-117.349C750.646,791.422,877.864,764.071,970.359,759.423z"/>
<path style="fill:#30C1E4;" d="M920.306,809.409l2.558,0.123c-35.631,12.413-69.58,24.304-101.452,45.1
	c-45.684,29.808-72.786,73.069-83.629,126.422c-14.969,73.655,8.456,181.874,39.741,249.565
	c10.678,23.101,24.335,44.549,38.324,65.746c-17.06-3.273-32.93-9.042-48.773-16.003c-10.284-4.169-19.925-9.59-28.879-16.142
	c-45.654-33.41-57.091-73.263-65.47-126.369c-8.722-55.278-14.432-197.235,18.794-242.178
	C726.678,848.117,863.511,817.918,920.306,809.409z"/>
<path style="fill:#357E9D;" d="M558.167,1119.859l1.35,0.649c3.879,1.84,6.795,2.781,11.099,3.263
	c3.387,0.38,6.056,0.917,9.153,2.35c1.429,2.777,1.031,4.575,0.953,7.662c0.766,2.456,0.614,3.618,2.834,5.125l0.782,0.178
	c-0.423,16.68,0.096,32.593,1.886,49.186c8.04,44.337,21.487,78.075,46.752,115.319c10.77,13.516,19.778,28.085,31.676,40.743
	c8.971,9.543,26.193,22.995,33.042,32.242c35.976,31.595,77.728,53.326,121.92,71.062c29.402,10.658,59.043,19.847,89.862,25.439
	c15.227,2.762,31.285,3.385,46.289,6.825c15.49,1.052,31.354,2.726,46.87,2.293c1.335-18.867,0.343-38.322,0.276-57.248
	c5.333,0.122,10.508,0.051,15.827-0.363c19.806,0.586,40.26-1.746,59.876-4.241c71.838-9.145,141.788-30.866,202.333-71.589
	c63.181-42.497,111.465-108.696,132.414-182.025c3.089-10.809,4.49-22.297,6.65-33.336l2.328,3.299
	c57.216,30.153,103.711,84.629,122.631,146.533c5.1,16.692,7.795,33.777,8.82,51.182l2.048,0.016
	c-0.541,14.837,1.168,29.441,2.132,44.222c1.096,16.772,1.607,33.553,1.821,50.356c-0.177,7.995-1.631,15.913-2.34,23.871
	l-2.962,19.745c-5.541,34.714-16.919,67.74-33.077,98.933c-4.398,8.491-11.151,16.382-15.027,24.978
	c1.85,11.75-8.104,26.697-10.594,38.31c20.474,8.785,40.511,18.318,60.333,28.485c-33.573,105.436-45.595,234.395-32.54,344.198
	h-355.605h-26.666h-79.468h-114.29h-77.641h-29.521H490.284h-47.963c1.002-114.099-1.47-212.321-29.551-324.182
	c-18.365-62.022-46.14-132.351-94.641-177.084c10.974-5.11,23.016-8.892,34.373-13.15c28.779-11.86,57.61-23.548,85.924-36.493
	c-12.675-15.747-25.415-31.703-36.325-48.745c-5.125-7.385-9.651-15.143-14.261-22.856c-9.716-15.592-18.612-31.613-27.546-47.657
	c-15.494-28.032-28.714-56.85-39.868-86.869c51.717-29.218,104.278-57.152,156.486-85.499
	C504.063,1150.243,531.91,1136.133,558.167,1119.859z"/>
<path style="fill:#1E1C42;" d="M580.722,1133.783c0.766,2.456,0.614,3.618,2.834,5.125l-0.106,14.216
	c-42.134,9.933-85.103,46.913-107.404,83.255c-31.795,51.82-32.838,105.062-21.803,162.968c0.037,15.549,1.793,32.526,5.706,47.655
	l-6.303,2.387c-5.053,2.452-10.092,4.927-15.219,7.221c-12.675-15.747-25.415-31.703-36.325-48.745
	c14.435-6.617,28.665-16.297,42.295-24.59l-3.301-29.792c-1.497-20.662-0.463-40.282,3.079-60.67
	c3.383-12.007,6.819-24.132,11.676-35.637c23.626-55.993,69.982-90.319,124.868-112.502L580.722,1133.783z"/>
<path style="fill:#953D42;" d="M402.102,1407.866c14.435-6.617,28.665-16.297,42.295-24.59c2.285,21.848,8.389,44.29,9.249,66.115
	c-5.053,2.452-10.092,4.927-15.219,7.221C425.751,1440.864,413.011,1424.908,402.102,1407.866z"/>
<path style="fill:#953D42;" d="M444.175,1292.814c-3.542,20.388-4.577,40.007-3.079,60.67l3.301,29.792
	c-13.63,8.293-27.859,17.973-42.295,24.59c-5.125-7.385-9.651-15.143-14.261-22.856c-9.716-15.592-18.612-31.613-27.546-47.657
	c8.348-3.015,16.882-8.814,24.753-13.05C404.687,1313.731,424.218,1302.771,444.175,1292.814z"/>
<path style="fill:#F19C6B;" d="M387.841,1385.01c4.59-4.563,46.644-29.48,53.255-31.527l3.301,29.792
	c-13.63,8.293-27.859,17.973-42.295,24.59C396.976,1400.481,392.451,1392.723,387.841,1385.01z"/>
<path style="fill:#1E1C42;" d="M553.32,1463.851c-5.755-8.596-11.423-17.311-16.599-26.27
	c-27.72-47.967-46.399-103.376-31.197-158.648c12.497-45.435,41.615-68.49,80.701-90.66c8.04,44.337,21.487,78.075,46.752,115.319
	l-2.211,1.225c-2.771-4.52-5.706-8.855-8.751-13.191c-21.38,10.543-45.944,31.938-53.702,55.178
	c-7.442,22.299-1.274,47.255,7.86,68.065C565.679,1421.849,560.63,1451.65,553.32,1463.851z"/>
<path style="fill:#F19C6B;" d="M558.167,1119.859l1.35,0.649c3.879,1.84,6.795,2.781,11.099,3.263
	c3.387,0.38,6.056,0.917,9.153,2.35c1.429,2.777,1.031,4.575,0.953,7.662l-0.004,10.892
	c-54.886,22.183-101.242,56.509-124.868,112.502c-4.857,11.505-8.293,23.63-11.676,35.637
	c-19.957,9.957-39.488,20.917-59.127,31.489c-7.871,4.235-16.405,10.035-24.753,13.05c-15.494-28.032-28.714-56.85-39.868-86.869
	c51.717-29.218,104.278-57.152,156.486-85.499C504.063,1150.243,531.91,1136.133,558.167,1119.859z"/>
<path style="fill:#0F71B3;" d="M454.243,1399.348c5.386,14.855,10.731,29.739,17.413,44.073
	c46.652,100.091,129.076,182.5,228.954,229.291c7.391,3.463,44.898,21.897,50.166,20.604l0.96-1.887l0.588-0.053
	c-3.252,27.238-1.062,65.131-1.066,93.472c-82.149-33.788-151.735-83.371-210.13-150.271c-8.226-9.626-15.823-19.819-23.577-29.827
	c-22.907-36.854-40.572-63.681-49.465-107.686c-3.134-15.507-3.569-33.54-7.675-48.439c-0.149-0.541-0.308-1.08-0.463-1.619
	C456.037,1431.874,454.281,1414.896,454.243,1399.348z"/>
<path style="fill:#0E416F;" d="M576.171,1414.869c41.638,90.28,145.926,156.089,236.666,189.512
	c49.433,18.206,137.137,34.923,189.448,30.055c-0.382,17.805-1.889,41.579,0.386,58.835c3.526,0.353,7.027,0.645,10.568,0.784
	c-3.92,0.351-7.528,0.686-11.44,0.157c-12.424-2.336-27.189-0.604-39.974-1.45c-30.76-2.036-61.562-6.346-91.573-13.428
	c-107.42-25.353-207.911-85.578-280.549-168.644c-12.911-14.765-26.066-30.117-36.383-46.838
	C560.63,1451.65,565.679,1421.849,576.171,1414.869z"/>
<path style="fill:#FCFBEF;" d="M576.171,1414.869c-9.134-20.809-15.302-45.766-7.86-68.065c7.758-23.24,32.322-44.635,53.702-55.178
	c3.046,4.336,5.98,8.671,8.751,13.191l2.211-1.225c10.77,13.516,19.778,28.085,31.676,40.743
	c8.971,9.543,26.193,22.995,33.042,32.242c35.976,31.595,77.728,53.326,121.92,71.062c29.402,10.658,59.043,19.847,89.862,25.439
	c15.227,2.762,31.285,3.385,46.289,6.825l-1.762,1.55c0.612,0.7,1.166,1.466,1.925,2.007c9.39,0.915,18.685,1.572,28.114,1.94
	c6.099,0.535,12.107,0.621,18.228,0.602c-0.059,11.458-0.521,23.112,0.01,34.551l-0.225,0.496
	c-0.057,12.797-1.925,52.583,0.647,62.099l-0.461,0.278c0,16.642,2.048,34.539,0.045,51.011
	c-52.31,4.869-140.015-11.848-189.448-30.055C722.097,1570.957,617.809,1505.148,576.171,1414.869z"/>
<path style="fill:#BDCDCF;" d="M630.765,1304.817l2.211-1.225c10.77,13.516,19.778,28.085,31.676,40.743
	c8.971,9.543,26.193,22.995,33.042,32.242c35.976,31.595,77.728,53.326,121.92,71.062c29.402,10.658,59.043,19.847,89.862,25.439
	c15.227,2.762,31.285,3.385,46.289,6.825l-1.762,1.55c0.612,0.7,1.166,1.466,1.925,2.007c9.39,0.915,18.685,1.572,28.114,1.94
	c6.099,0.535,12.107,0.621,18.228,0.602c-0.059,11.458-0.521,23.112,0.01,34.551l-0.225,0.496
	c-0.057,12.797-1.925,52.583,0.647,62.099l-0.461,0.278c-1.539-0.047-3.073-0.098-4.61-0.174
	c-88.214-4.377-160.595-16.682-235.99-65.315c-21.272-13.722-41.585-28.653-58.637-47.524
	c-34.712-38.412-68.874-102.234-66.177-155.12C634.907,1311.747,632.803,1308.294,630.765,1304.817z"/>
<path style="fill:#649CB1;" d="M630.765,1304.817l2.211-1.225c10.77,13.516,19.778,28.085,31.676,40.743
	c8.971,9.543,26.193,22.995,33.042,32.242c35.976,31.595,77.728,53.326,121.92,71.062c29.402,10.658,59.043,19.847,89.862,25.439
	c15.227,2.762,31.285,3.385,46.289,6.825l-1.762,1.55c0.612,0.7,1.166,1.466,1.925,2.007c9.39,0.915,18.685,1.572,28.114,1.94
	c6.099,0.535,12.107,0.621,18.228,0.602c-0.059,11.458-0.521,23.112,0.01,34.551l-0.225,0.496
	c-10.737-2.425-24.196-1.525-35.294-2.305c-19.61-1.38-39.322-4.488-58.377-9.3c-110.434-27.883-212.721-95.325-271.558-194.152
	C634.907,1311.747,632.803,1308.294,630.765,1304.817z"/>
<path style="fill:#0E416F;" d="M697.693,1376.576c35.976,31.595,77.728,53.326,121.92,71.062
	c29.402,10.658,59.043,19.847,89.862,25.439c15.227,2.762,31.285,3.385,46.289,6.825l-1.762,1.55c0.612,0.7,1.166,1.466,1.925,2.007
	c-44.318-1.825-98.696-17.179-140.146-32.828c-22.15-8.736-43.632-18.977-64.217-30.956
	C739.106,1412.425,701.002,1389.12,697.693,1376.576z"/>
<path style="fill:#1E1C42;" d="M1553.79,1334.407l2.048,0.016c-0.541,14.837,1.168,29.441,2.132,44.222
	c1.096,16.772,1.607,33.553,1.821,50.356c-0.177,7.995-1.631,15.913-2.34,23.871l-2.962,19.745
	c-5.541,34.714-16.919,67.74-33.077,98.933c-4.398,8.491-11.151,16.382-15.027,24.978c1.85,11.75-8.104,26.697-10.594,38.31
	c-4.951-2.095-9.89-4.114-14.561-6.797c-19.085,19.955-38.518,39.337-59.843,56.928
	c-114.642,94.562-262.444,147.535-410.734,150.742c-2.756,0.061-5.516,0.133-8.271,0.1c-96.761-5.092-160.549-14.869-251.125-50.964
	c0.004-28.342-2.185-66.234,1.066-93.472c56.842,22.207,114.491,36.141,175.159,42.74c15.549,1.689,32.275,3.769,47.916,3.063
	c5.882,0.727,11.976,0.694,17.901,0.76c161.437,1.831,327.514-54.647,444.065-168.688c25.545-24.994,50.09-52.673,69.155-82.998
	C1533.602,1443.175,1553.268,1385.373,1553.79,1334.407z"/>
<path style="fill:#30C1E4;" d="M1506.385,1596.528c1.85,11.75-8.104,26.697-10.594,38.31c-4.951-2.095-9.89-4.114-14.561-6.797
	C1490.068,1617.88,1498.202,1607.214,1506.385,1596.528z"/>
<path style="fill:#1E1C42;" d="M1018.737,1424.585c19.806,0.586,40.26-1.746,59.876-4.241
	c71.838-9.145,141.788-30.866,202.333-71.589c63.181-42.497,111.465-108.696,132.414-182.025c3.089-10.809,4.49-22.297,6.65-33.336
	l2.328,3.299c0.3,7.595,2.252,28.14-0.465,34.668c9.602,2.475,41.636,37.44,48.737,46.38c4.777,6.013,8.998,12.701,12.924,19.29
	c25.919,43.51,31.503,96.03,18.885,144.711c-25.016,96.501-116.214,183.703-199.797,232.497
	c-71.064,41.487-148.399,66.244-230.006,75.681c-19.571,2.264-39.661,4.288-59.378,4.136c-3.542-0.139-7.042-0.431-10.568-0.784
	c-2.276-17.256-0.768-41.031-0.386-58.835c2.003-16.472-0.045-34.369-0.045-51.011l0.461-0.278
	c-2.572-9.516-0.704-49.302-0.647-62.099l0.225-0.496c-0.531-11.439-0.069-23.093-0.01-34.551
	c-6.121,0.02-12.129-0.067-18.228-0.602c-9.43-0.369-18.724-1.025-28.114-1.94c-0.758-0.541-1.313-1.307-1.925-2.007l1.762-1.55
	c15.49,1.052,31.354,2.726,46.87,2.293c1.335-18.867,0.343-38.322,0.276-57.248
	C1008.243,1425.069,1013.418,1424.998,1018.737,1424.585z"/>
<path style="fill:#BDCDCF;" d="M1388.521,1291.883c22.248,15.95,40.999,33.804,45.866,62.014
	c6.246,36.201-11.382,74.053-32.048,102.68c-67.981,94.162-196.266,153.466-308.502,171.067
	c-30.427,4.771-60.823,5.945-91.552,6.791c2.003-16.472-0.045-34.369-0.045-51.011l0.461-0.278
	c43.051,1.307,87.467-4.081,129.244-14.461c84.098-20.892,179.062-72.25,224.496-148.523
	c17.885-30.021,27.007-69.988,18.216-104.435C1379.044,1307.761,1383.138,1299.221,1388.521,1291.883z"/>
<path style="fill:#357E9D;" d="M1018.737,1424.585c19.806,0.586,40.26-1.746,59.876-4.241
	c71.838-9.145,141.788-30.866,202.333-71.589c63.181-42.497,111.465-108.696,132.414-182.025c3.089-10.809,4.49-22.297,6.65-33.336
	l2.328,3.299c0.3,7.595,2.252,28.14-0.465,34.668c-4.265,41.182-13.281,83.951-33.353,120.522
	c-5.382,7.338-9.477,15.878-13.863,23.845c8.791,34.447-0.331,74.413-18.216,104.435
	c-45.435,76.273-140.399,127.631-224.496,148.523c-41.777,10.38-86.193,15.768-129.244,14.461
	c-2.572-9.516-0.704-49.302-0.647-62.099l0.225-0.496c-0.531-11.439-0.069-23.093-0.01-34.551
	c-6.121,0.02-12.129-0.067-18.228-0.602c-9.43-0.369-18.724-1.025-28.114-1.94c-0.758-0.541-1.313-1.307-1.925-2.007l1.762-1.55
	c15.49,1.052,31.354,2.726,46.87,2.293c1.335-18.867,0.343-38.322,0.276-57.248
	C1008.243,1425.069,1013.418,1424.998,1018.737,1424.585z"/>
<path style="fill:#0F71B3;" d="M1332.841,1367.002c3.548-5.127,9.32-9.943,13.53-14.624c8.357-9.288,16.082-19.071,23.6-29.041
	c-2.56,9.467-8.9,18.555-14.216,26.776c-30.217,46.738-75.652,79.746-123.294,107.187c-58.965,33.961-123.911,56.16-191.89,61.793
	c-12.432,1.031-25.847,2.395-38.293,1.46c-0.531-11.439-0.069-23.093-0.01-34.551c-6.121,0.02-12.129-0.067-18.228-0.602
	c-9.43-0.369-18.724-1.025-28.114-1.94c-0.758-0.541-1.313-1.307-1.925-2.007l1.762-1.55c15.49,1.052,31.354,2.726,46.87,2.293
	C1118.029,1484.37,1245.991,1444.336,1332.841,1367.002z"/>
<path style="fill:#0E416F;" d="M1332.841,1367.002c-0.504,1.789-1.037,3.791-2.142,5.31c-8.299,11.403-46.475,35.247-59.645,42.64
	c-95.078,53.375-178.787,69.911-287.013,70.448c-9.43-0.369-18.724-1.025-28.114-1.94c-0.758-0.541-1.313-1.307-1.925-2.007
	l1.762-1.55c15.49,1.052,31.354,2.726,46.87,2.293C1118.029,1484.37,1245.991,1444.336,1332.841,1367.002z"/>
<path style="fill:#649CB1;" d="M1002.383,1835.81c2.756,0.033,5.515-0.039,8.271-0.1c148.29-3.207,296.091-56.179,410.734-150.742
	c21.325-17.591,40.758-36.973,59.843-56.928c4.671,2.683,9.61,4.702,14.561,6.797c20.474,8.785,40.511,18.318,60.333,28.485
	c-33.573,105.436-45.595,234.395-32.54,344.198h-355.605h-26.666h-79.468h-114.29h-77.641h-29.521
	c0.143-26.95-4.845-61.909,12.107-84.631c15.984-21.423,41.462-28.467,66.64-32.26c25.204,1.527,50.366,1.309,75.601,1.341
	l7.595,0.02C1003.596,1873.456,1002.724,1854.395,1002.383,1835.81z"/>
<path style="fill:#BDCDCF;" d="M994.741,1891.97l7.595,0.02c31.977,1.139,63.961-0.222,95.942,0.831
	c22.867,3.936,41.685,10.431,55.705,30.006c17.862,24.935,13.983,55.666,13.996,84.694h-26.666
	c0.112-23.03,4.884-54.167-13.061-71.671c-15.807-15.419-39.114-13.287-59.339-12.785c-21.429-1.97-44.716-1.005-66.266-0.382
	c0.096-7.381,2.681-21.68-0.86-27.944C1000.28,1892.07,997.473,1892.419,994.741,1891.97z"/>
<path style="fill:#0F71B3;" d="M919.14,1890.63c25.204,1.527,50.366,1.309,75.601,1.341c2.732,0.449,5.539,0.1,7.046,2.767
	c3.542,6.264,0.956,20.562,0.86,27.944c21.55-0.623,44.837-1.588,66.266,0.382c20.225-0.502,43.531-2.634,59.339,12.785
	c17.946,17.505,13.173,48.641,13.061,71.671h-79.468h-114.29h-77.641h-29.521c0.143-26.95-4.845-61.909,12.107-84.631
	C868.484,1901.466,893.962,1894.422,919.14,1890.63z"/>
<path style="fill:#FCFBEF;" d="M919.14,1890.63c25.204,1.527,50.366,1.309,75.601,1.341c2.732,0.449,5.539,0.1,7.046,2.767
	c3.542,6.264,0.956,20.562,0.86,27.944c-21.182,1.066-42.54,0.553-63.747,0.494c-12.528-0.033-26.793-1.354-39.024,1.693
	c-7.405,1.846-14.153,5.531-19.418,11.094c-15.762,16.654-10.802,50.037-10.545,71.558h-29.521
	c0.143-26.95-4.845-61.909,12.107-84.631C868.484,1901.466,893.962,1894.422,919.14,1890.63z"/>
<path style="fill:#0E416F;" d="M1068.913,1923.064c20.225-0.502,43.531-2.634,59.339,12.785
	c17.946,17.505,13.173,48.641,13.061,71.671h-79.468h-114.29c-0.18-13.877-3.177-36.221,7.566-46.707
	c10.5-10.239,33.438-7.223,47.026-7.04l-0.045-30.341C1024.11,1923.538,1047.057,1924.969,1068.913,1923.064z"/>
<path style="fill:#1E1C42;" d="M1002.148,1953.773c14.371,0.194,41.011-3.412,51.687,6.942c10.788,10.466,8.087,32.928,8.01,46.805
	h-114.29c-0.18-13.877-3.177-36.221,7.566-46.707C965.621,1950.574,988.559,1953.591,1002.148,1953.773z"/>
<path style="fill:#357E9D;" d="M1002.383,1835.81c2.756,0.033,5.515-0.039,8.271-0.1c148.29-3.207,296.091-56.179,410.734-150.742
	c21.325-17.591,40.758-36.973,59.843-56.928c4.671,2.683,9.61,4.702,14.561,6.797c-1.411,9.351-9.488,20.145-14.645,28.222
	c-32.389,50.733-74.229,92.324-122.479,127.99c-65.082,48.106-146.53,81.926-226.476,94.454c-5.272,0.825-32.997,3.853-33.914,7.317
	c-31.981-1.052-63.965,0.308-95.942-0.831C1003.596,1873.456,1002.724,1854.395,1002.383,1835.81z"/>
<path style="fill:#BDCDCF;" d="M459.949,1447.003c0.155,0.539,0.314,1.078,0.463,1.619c4.106,14.9,4.541,32.932,7.675,48.439
	c8.893,44.006,26.558,70.832,49.465,107.686c7.754,10.008,15.351,20.202,23.577,29.827c58.394,66.901,127.98,116.483,210.13,150.271
	c90.576,36.095,154.364,45.872,251.125,50.964c0.341,18.585,1.213,37.646-0.047,56.18l-7.595-0.02
	c-25.235-0.031-50.398,0.186-75.601-1.341c-25.178,3.793-50.656,10.837-66.64,32.26c-16.952,22.722-11.964,57.681-12.107,84.631
	H490.284h-47.963c1.002-114.099-1.47-212.321-29.551-324.182c-18.365-62.022-46.14-132.351-94.641-177.084
	c10.974-5.11,23.016-8.892,34.373-13.15c28.779-11.86,57.61-23.548,85.924-36.493c5.127-2.293,10.167-4.769,15.219-7.221
	L459.949,1447.003z"/>
<path style="fill:#649CB1;" d="M541.128,1634.575c58.394,66.901,127.98,116.483,210.13,150.271
	c90.576,36.095,154.364,45.872,251.125,50.964c0.341,18.585,1.213,37.646-0.047,56.18l-7.595-0.02
	c-25.235-0.031-50.398,0.186-75.601-1.341c-80.233-13.365-150.869-34.347-221.27-76.081
	c-61.085-36.209-114.352-83.22-151.973-143.79c-5.902-9.502-14.62-21.744-17.385-32.544
	C532.914,1637.352,536.924,1636.135,541.128,1634.575z"/>
<path style="fill:#0E416F;" d="M459.949,1447.003c0.155,0.539,0.314,1.078,0.463,1.619c4.106,14.9,4.541,32.932,7.675,48.439
	c8.893,44.006,26.558,70.832,49.465,107.686c0.753,11.299,6.235,22.863,10.368,33.347c-14.151,4.351-28.297,8.74-42.034,14.29
	c-11.068,4.473-22.056,10.088-33.324,13.902c34.521,110.775,38.375,226.098,37.722,341.232h-47.963
	c1.002-114.099-1.47-212.321-29.551-324.182c-18.365-62.022-46.14-132.351-94.641-177.084c10.974-5.11,23.016-8.892,34.373-13.15
	c28.779-11.86,57.61-23.548,85.924-36.493c5.127-2.293,10.167-4.769,15.219-7.221L459.949,1447.003z"/>
<path style="fill:#FCFBEF;" d="M459.949,1447.003c0.155,0.539,0.314,1.078,0.463,1.619c4.106,14.9,4.541,32.932,7.675,48.439
	c8.893,44.006,26.558,70.832,49.465,107.686c0.753,11.299,6.235,22.863,10.368,33.347c-14.151,4.351-28.297,8.74-42.034,14.29
	c-11.068,4.473-22.056,10.088-33.324,13.902c-24.402-70.05-48.704-118.686-100.06-173.183c28.779-11.86,57.61-23.548,85.924-36.493
	c5.127-2.293,10.167-4.769,15.219-7.221L459.949,1447.003z"/>
</svg>
