<?xml version="1.0" encoding="utf-8"?>
<!-- Generator: Adobe Illustrator 27.5.0, SVG Export Plug-In . SVG Version: 6.00 Build 0)  -->
<svg version="1.1" id="Слой_1" xmlns="http://www.w3.org/2000/svg" xmlns:xlink="http://www.w3.org/1999/xlink" x="0px" y="0px"
	 viewBox="0 0 2008 2008" style="enable-background:new 0 0 2008 2008;" xml:space="preserve">
<path style="fill:#212848;" d="M0.48,0.48h2007.04v2005.727v1.313h-257.74h-161.7h-93.212h-170.385H1037.22h-69.529h-286.14h-3.896
	H516.956h-3.932H419.92H253.159H0.48v-1.352V0.48z"/>
<path style="fill:#FEFEFE;" d="M1830.387,856.916c3.189,0.047,6.515-0.031,9.053,2.254c1.823,1.641,2.546,3.628,2.407,6.056
	c-0.171,2.987-2.35,5.225-4.22,7.328c-2.971,0.488-5.555,0.745-8.21-0.992c-2.129-1.394-3.314-3.352-3.432-5.906
	C1825.799,861.669,1827.792,859.519,1830.387,856.916z"/>
<path style="fill:#FEFEFE;" d="M157.381,709.853c3.076,0.169,6.145,0.351,8.422,2.773c1.625,1.731,2.452,4.239,1.971,6.591
	c-0.681,3.332-2.802,5.037-5.268,7.152c-3.247-0.194-6.648-0.28-9.019-2.885c-1.538-1.691-1.904-3.291-1.784-5.484
	C151.911,714.177,154.675,712.119,157.381,709.853z"/>
<path style="fill:#FEFEFE;" d="M1817.455,1527.157c3.304,0.159,6.576,1.06,8.818,3.653c1.625,1.878,2.066,4.255,1.539,6.654
	c-0.704,3.197-2.942,4.892-5.368,6.825c-2.642-0.135-5.682-0.553-7.754-2.358c-1.929-1.68-2.981-3.187-2.944-5.833
	C1811.804,1531.799,1814.444,1529.707,1817.455,1527.157z"/>
<path style="fill:#FEFEFE;" d="M206.449,1651.355c2.624,0.4,5.61,1.521,7.47,3.467c1.693,1.772,2.511,4.077,2.064,6.513
	c-0.735,3.996-3.589,5.812-6.836,7.63c-2.981-0.661-6.319-1.637-8.156-4.31c-1.274-1.854-1.466-3.583-1.109-5.723
	C200.502,1655.186,203.552,1653.321,206.449,1651.355z"/>
<path style="fill:#FEFEFE;" d="M1825.875,1274.217c3.318-0.092,6.397-0.067,9.167,2.119c1.952,1.542,3.12,3.579,3.028,6.107
	c-0.141,3.879-2.519,6.013-5.208,8.361c-2.62,0.219-5.517,0.092-7.767-1.425c-1.946-1.313-3.289-3.363-3.554-5.711
	C1821.061,1279.406,1823.149,1277.069,1825.875,1274.217z"/>
<path style="fill:#FEFEFE;" d="M892.443,123.93c3.804-0.267,7.015-0.33,9.972,2.551c1.821,1.773,2.603,4.116,2.452,6.63
	c-0.259,4.313-2.56,6.881-5.484,9.783c-3.528-0.012-6.946-0.083-9.639-2.755c-1.989-1.974-3.04-3.987-2.936-6.815
	C886.968,128.904,889.342,126.667,892.443,123.93z"/>
<path style="fill:#FEFEFE;" d="M1751.703,479.663c1.956-0.022,3.987-0.08,5.929,0.178c3.487,0.465,7.134,3.273,8.969,6.192
	c1.48,2.354,1.964,5.1,1.294,7.818c-1.035,4.212-3.665,6.123-7.197,8.295c-1.011,0.069-2.025,0.137-3.04,0.18
	c-4.126,0.172-7.93-0.329-10.854-3.608c-2.133-2.391-3.089-5.043-2.628-8.212C1744.923,485.362,1747.847,482.805,1751.703,479.663z"
	/>
<path style="fill:#FEFEFE;" d="M414.724,328.853c3.291-0.108,6.999,0.214,10.051,1.503c4.818,2.038,8.581,6.119,10.376,11.007
	c1.872,5.094,1.641,10.843-0.647,15.766c-3.112,6.703-8.32,9.463-15.039,11.695c-3.873,0.241-7.795-0.122-11.37-1.74
	c-4.694-2.129-8.261-5.898-9.967-10.774c-1.829-5.231-1.356-11.039,1.119-15.976C402.627,333.596,407.795,330.969,414.724,328.853z"
	/>
<path style="fill:#FEFEFE;" d="M251.164,1366.743c4.441,0.098,8.649,0.404,12.748,2.283c6.123,2.811,10.89,8.234,12.946,14.637
	c2.005,6.245,1.472,13.156-1.805,18.875c-4.096,7.152-10.327,10.184-18.056,12.044c-5.747,0.102-10.555-0.394-15.592-3.389
	c-5.486-3.264-9.279-8.475-10.807-14.659c-1.599-6.476-0.288-13.704,3.422-19.236C238.297,1370.922,243.9,1368.393,251.164,1366.743
	z"/>
<path style="fill:#FEFEFE;" d="M1476.06,252.573c4.43,0.157,8.765,0.576,12.883,2.354c6.162,2.658,10.949,7.901,13.22,14.181
	c2.246,6.209,1.815,13.255-1.162,19.149c-3.801,7.526-9.726,10.864-17.417,13.497c-5.8,0.653-11.513,0.39-16.732-2.493
	c-5.823-3.214-9.904-8.646-11.503-15.098c-1.654-6.678-0.647-14.014,2.942-19.906
	C1462.532,257.295,1468.348,254.349,1476.06,252.573z"/>
<path style="fill:#98272C;" d="M1490.805,1323.38c38.424-34.308,74.278-72.42,110.687-108.853
	c31.487-31.511,64.08-61.905,95.752-93.235c-17.471,103.257-45.156,176.208-98.355,266.513
	c-8.65,14.682-21.678,39.796-34.968,49.896c-13.12-24.582-25.643-49.027-41.211-72.25
	C1512.879,1350.791,1501.83,1337.141,1490.805,1323.38z"/>
<path style="fill:#FEFEFE;" d="M1694.363,1842.751c15.19,54.962,34.962,108.698,50.831,163.476l4.43,0.51l0.157,0.784h-161.7
	h-93.212l-0.172-1.117c-6.733-24.245-16.736-48.257-26.001-71.644c27.485-11.923,55.531-22.795,83.224-34.249l0.555,0.047
	c13.455-6.707,28.118-11.968,42.054-17.648C1627.754,1869.367,1661.317,1856.749,1694.363,1842.751z"/>
<path style="fill:#43596E;" d="M1745.194,2006.226l4.43,0.51l0.157,0.784h-161.7l-0.031-1.176
	c17.854-0.608,35.882-0.118,53.753-0.118H1745.194z"/>
<path style="fill:#CECBBD;" d="M1551.918,1900.51l0.555,0.047c12.487,35.11,24.829,69.233,33.973,105.415l1.603,0.372l0.031,1.176
	h-93.212l-0.172-1.117c-6.733-24.245-16.736-48.257-26.001-71.644C1496.18,1922.836,1524.225,1911.964,1551.918,1900.51z"/>
<path style="fill:#43596E;" d="M1586.445,2005.972l1.603,0.372l0.031,1.176h-93.212l-0.172-1.117
	C1525.201,2005.442,1555.92,2006.07,1586.445,2005.972z"/>
<path style="fill:#FEFEFE;" d="M311.597,1841.573l90.158,35.164c18.506,7.242,37.467,14.036,55.543,22.289l0.731-0.063
	c24.921,13.218,56.262,22.846,82.681,34.11c-9.665,24.298-19.4,48.555-27.532,73.427l-0.153,1.019H419.92H253.159l-0.274-1
	c2.907-0.059,5.053,0.372,7.562-1.156c10.986-32.497,20.568-65.583,30.729-98.339
	C297.922,1885.275,305.748,1863.546,311.597,1841.573z"/>
<path style="fill:#43596E;" d="M252.885,2006.52c2.907-0.059,5.053,0.372,7.562-1.156c5.725,2.078,142.133,1.294,159.471,0.823
	l0.002,1.333H253.159L252.885,2006.52z"/>
<path style="fill:#CECBBD;" d="M458.028,1898.964c24.921,13.218,56.262,22.846,82.681,34.11
	c-9.665,24.298-19.4,48.555-27.532,73.427l-0.153,1.019H419.92l-0.002-1.333l2.66-0.255c4.512-11.78,7.472-24.52,11.497-36.534
	c5.143-15.353,22.095-57.079,23.222-70.372L458.028,1898.964z"/>
<path style="fill:#43596E;" d="M422.578,2005.932c30.19,0.784,60.407,0,90.599,0.568l-0.153,1.019H419.92l-0.002-1.333
	L422.578,2005.932z"/>
<linearGradient id="SVGID_1_" gradientUnits="userSpaceOnUse" x1="670.7415" y1="34.7752" x2="645.1078" y2="708.384" gradientTransform="matrix(1 0 0 -1 0 1021.8898)">
	<stop  offset="0" style="stop-color:#DC342E"/>
	<stop  offset="1" style="stop-color:#F0924A"/>
</linearGradient>
<path style="fill:url(#SVGID_1_);" d="M302.434,1005.484l-0.004-0.792c0.3-186.204,76.148-365.568,207.642-497.091
	c103.425-103.449,237.485-176.053,382.425-199.459c40.335-6.513,80.268-8.751,121.079-8.775
	c-9.388,11.956-20.815,22.609-31.562,33.342c-19.022,18.998-38.428,37.612-58.016,56.021L480.606,829.188L352.079,956.141
	C336.081,971.923,320.256,992.209,302.434,1005.484z"/>
<linearGradient id="SVGID_00000034063195663635320830000007245630479897267882_" gradientUnits="userSpaceOnUse" x1="1524.0516" y1="37.8969" x2="1676.9824" y2="-115.7486" gradientTransform="matrix(1 0 0 -1 0 1021.8898)">
	<stop  offset="0" style="stop-color:#832B33"/>
	<stop  offset="1" style="stop-color:#442439"/>
</linearGradient>
<path style="fill:url(#SVGID_00000034063195663635320830000007245630479897267882_);" d="M1341.108,935.159
	c15.272-16.809,31.607-32.614,47.528-48.802c33.924-34.49,68.141-68.461,102.747-102.271l124.646-124.041
	c14.451,27.867,29.478,55.437,40.817,84.762c6.229,16.107,11.989,32.407,17.242,48.857c3.185,9.972,5.821,20.337,9.424,30.145
	c22.318,83.374,29.798,177.251,19.263,263.087c-1.276,10.408-1.409,25.027-5.531,34.396c-31.672,31.331-64.264,61.724-95.752,93.235
	c-36.409,36.432-72.263,74.545-110.687,108.853c-18.877-22.007-41.583-44.221-64.876-61.53
	c-17.346-14.092-37.669-25.884-57.222-36.621c-10.931-5.753-22.172-10.666-33.777-14.886c3.044-12.879,2.201-27.926,2.583-41.144
	c0.574-6.785,0.706-13.618,0.953-20.423c3.097-13.74,4.441-26.729,1.372-40.637c-7.007-31.752-30.858-54.074-57.297-70.84
	c1.409-13.693,5.745-26.801,6.786-40.666c4.828,1.237,10.721,1.893,15.502,0.092c4.273-1.611,8.381-6.28,10.265-10.306
	c0.674-1.445,1.168-2.534,2.076-3.897c0.247-0.368,0.516-0.723,0.774-1.086c4.336-1.129,8.469-3.926,11.67-7.007
	C1340.491,963.955,1341.006,949.228,1341.108,935.159z"/>
<linearGradient id="SVGID_00000041976087210139195840000016021537580031673019_" gradientUnits="userSpaceOnUse" x1="1550.8319" y1="-9.13" x2="1402.4919" y2="224.0102" gradientTransform="matrix(1 0 0 -1 0 1021.8898)">
	<stop  offset="0" style="stop-color:#B03736"/>
	<stop  offset="1" style="stop-color:#DC5137"/>
</linearGradient>
<path style="fill:url(#SVGID_00000041976087210139195840000016021537580031673019_);" d="M1341.108,935.159
	c15.272-16.809,31.607-32.614,47.528-48.802c33.924-34.49,68.141-68.461,102.747-102.271l124.646-124.041
	c14.451,27.867,29.478,55.437,40.817,84.762c6.229,16.107,11.989,32.407,17.242,48.857c3.185,9.972,5.821,20.337,9.424,30.145
	c-72.153,74.541-146.283,147.321-219.775,220.545l-76.575,76.609c-14.602,14.731-28.916,30.004-43.967,44.263
	c-1.839,1.74-3.189,3.432-5.682,3.973c0.574-6.785,0.706-13.618,0.953-20.423c3.097-13.74,4.441-26.729,1.372-40.637
	c-7.007-31.752-30.858-54.074-57.297-70.84c1.409-13.693,5.745-26.801,6.786-40.666c4.828,1.237,10.721,1.893,15.502,0.092
	c4.273-1.611,8.381-6.28,10.265-10.306c0.674-1.445,1.168-2.534,2.076-3.897c0.247-0.368,0.516-0.723,0.774-1.086
	c4.336-1.129,8.469-3.926,11.67-7.007C1340.491,963.955,1341.006,949.228,1341.108,935.159z"/>
<linearGradient id="SVGID_00000159428930729232833840000001534008686014441140_" gradientUnits="userSpaceOnUse" x1="800.9625" y1="-190.1429" x2="765.0508" y2="663.5381" gradientTransform="matrix(1 0 0 -1 0 1021.8898)">
	<stop  offset="0" style="stop-color:#D74A2A"/>
	<stop  offset="1" style="stop-color:#F6B36E"/>
</linearGradient>
<path style="fill:url(#SVGID_00000159428930729232833840000001534008686014441140_);" d="M1013.577,299.366
	c67.789,0.555,135.068,11.154,199.765,31.425c9.091,2.848,22.334,5.735,30.386,10.541l11.013,3.846l-110.44,109.693
	c-16.466,16.246-32.173,34.088-49.739,49.094c-75.384-23.934-154.415-18.046-224.963,18.199
	c-70.879,36.415-124.47,106.075-148.282,181.408c-7.534,23.836-12.276,48.124-12.648,73.186c-6.335,0.137-12.701,0.118-19,0.86
	c-8.91,3.532-18.734,8.673-22.456,18.146c-4.937,12.571-2.258,95.058-2.187,114.207c-0.192,20.972-5.241,52.853,10.858,68.774
	c3.702,3.661,7.987,6.652,12.213,9.665c9.139,5.68,19.435,10.39,29.766,13.41c1.441,10.082,3.487,19.943,5.653,29.886
	c-27.228,20.515-53.516,48.481-58.404,83.563c-1.358,9.753-1.043,18.908,0.239,28.643c-0.617,9.483,0.457,18.808,0.302,28.259
	c0.314,15.762,1.058,31.27,3.452,46.879c-7.238,3.314-14.798,6.368-21.801,10.137c-24.365,11.932-47.212,26.139-69.096,42.158
	c-6.317,4.455-12.652,8.887-18.877,13.471c-9.767,8.502-20.225,16.711-29.322,25.919c-34.318,34.733-61.62,76.16-85.325,118.584
	c-8.305-9.194-15.08-20.594-21.879-30.921c-25.872-39.29-47.777-79.519-66.148-122.865c-5.576-13.154-11.433-26.542-15.517-40.245
	c-5.076-12.513-8.677-26.362-12.319-39.365c-17.421-62.189-25.713-125.926-26.387-190.441
	c17.822-13.275,33.647-33.561,49.645-49.343l128.527-126.953l443.393-440.459c19.588-18.408,38.994-37.022,58.016-56.021
	C992.761,321.975,1004.188,311.322,1013.577,299.366z"/>
<path style="fill:#F3B67A;" d="M1013.577,299.366c67.789,0.555,135.068,11.154,199.765,31.425
	c9.091,2.848,22.334,5.735,30.386,10.541l1.403,1.233c1.429,1.241,2.848,2.154,4.514,3.061c-0.341,2.072-1.707,4.004-3.622,5.116
	c-2.166,1.26-3.828,1.141-6.057,0.092c-6.695-3.15-8.203-10.641-16.893-10.566l-3.924,2.475c-1.662-0.378-2.607-0.798-4.136-1.611
	c-6.215-3.307-18.261,0.447-25.431,0.155c-14.328-0.582-29.917,2.72-44.084,4.798c-10.666,1.564-21.409,1.878-32.085,3.189
	c-9.004,1.105-17.777,3.604-26.789,4.651c-19.022,2.213-40.892,0.041-59.286,5.104c-3.589,0.988-6.092,4.181-9.516,5.188
	c-11.544,3.405-24.286,3.618-35.752,7.297c-9.596,3.081-18.693,8.74-28.279,12.279c-4.11,1.517-25.425,10.296-28.263,7.156
	c-1.049-1.162-0.672-0.702-1.529-2.221c19.588-18.408,38.994-37.022,58.016-56.021
	C992.761,321.975,1004.188,311.322,1013.577,299.366z"/>
<linearGradient id="SVGID_00000073002743223577172950000006840258961571511962_" gradientUnits="userSpaceOnUse" x1="560.7769" y1="-390.6682" x2="511.5088" y2="92.61" gradientTransform="matrix(1 0 0 -1 0 1021.8898)">
	<stop  offset="0" style="stop-color:#A43634"/>
	<stop  offset="1" style="stop-color:#DC4039"/>
</linearGradient>
<path style="fill:url(#SVGID_00000073002743223577172950000006840258961571511962_);" d="M665.026,909.971
	c-0.192,20.972-5.241,52.853,10.858,68.774c3.702,3.661,7.987,6.652,12.213,9.665c9.139,5.68,19.435,10.39,29.766,13.41
	c1.441,10.082,3.487,19.943,5.653,29.886c-27.228,20.515-53.516,48.481-58.404,83.563c-1.358,9.753-1.043,18.908,0.239,28.643
	c-0.617,9.483,0.457,18.808,0.302,28.259c0.314,15.762,1.058,31.27,3.452,46.879c-7.238,3.314-14.798,6.368-21.801,10.137
	c-24.365,11.932-47.212,26.139-69.096,42.158c-6.317,4.455-12.652,8.887-18.877,13.471c-9.767,8.502-20.225,16.711-29.322,25.919
	c-34.318,34.733-61.62,76.16-85.325,118.584c-8.305-9.194-15.08-20.594-21.879-30.921c-25.872-39.29-47.777-79.519-66.148-122.865
	c-5.576-13.154-11.433-26.542-15.517-40.245c10.807-8.755,20.572-21.046,30.333-31.05l59.851-60.146L665.026,909.971z"/>
<path style="fill:#98272C;" d="M559.331,1284.817c0.468-5.284,72.414-75.333,82.861-86.387c8.005-8.471,14.992-18.347,23.461-26.258
	c0.314,15.762,1.058,31.27,3.452,46.879c-7.238,3.314-14.798,6.368-21.801,10.137c-24.365,11.932-47.212,26.139-69.096,42.158
	C571.891,1275.801,565.556,1280.233,559.331,1284.817z"/>
<path style="fill:#FEFEFE;" d="M647.304,1229.188c19.684,39.633,43.604,78.816,71.487,113.208
	c9.214,11.364,19.522,21.756,29.68,32.265c9.239,9.559,18.326,19.41,28.144,28.377c48.104,43.943,107.806,80.078,169.597,100.846
	c6.803,2.285,13.769,4.718,20.725,6.464l-0.176,72.604l-62.265,0.061c-11.262-0.014-23.769-1.219-34.841,0.796
	c-5.592,1.015-10.954,3.138-15.114,7.115c-11.227,10.727-8.375,31.125-8.273,45.239l0.4,67.751v120.905
	c0.12,13.346-1.87,30.317,1.115,43.291c0.808,3.512,3.806,7.389,5.743,10.421c3.448,17.115,7.411,30.964,22.718,41.372
	c21.705,14.755,65.448,8.938,91.644,9.245c0.178,2.36,0.08,5.363,0.606,7.632c-0.088,15.374,2.083,56.903-0.627,69.643l-0.174,1.098
	h-286.14h-3.896H516.956h-3.932l0.153-1.019c8.132-24.872,17.867-49.129,27.532-73.427c-26.419-11.264-57.759-20.892-82.681-34.11
	l-0.731,0.063c-18.075-8.254-37.036-15.047-55.543-22.289l-90.158-35.164c7.475-25.208,15.472-50.372,24.171-75.186
	c14.053-47.548,30.407-94.672,46.031-141.739c6.568-19.788,15.999-40.639,19.573-61.128c-4.359-26.07,30.98-108.741,43.314-134.199
	c23.704-42.424,51.007-83.851,85.325-118.584c9.096-9.208,19.555-17.417,29.322-25.919c6.225-4.584,12.56-9.016,18.877-13.471
	C600.091,1255.327,622.939,1241.121,647.304,1229.188z"/>
<path style="fill:#43596E;" d="M681.511,2006.364l193.189-0.137l61.266-0.02c10.531,0.02,21.407-0.529,31.899,0.216l-0.174,1.098
	h-286.14L681.511,2006.364z"/>
<path style="fill:#E03B2F;" d="M311.597,1841.573c7.475-25.208,15.472-50.372,24.171-75.186
	c16.407,4.492,32.524,12.028,48.41,18.161c33.512,12.94,66.875,26.115,100.138,39.688l0.708,0.427
	c-9.818,22.356-18.152,50.688-26.995,74.3l-0.731,0.063c-18.075-8.254-37.036-15.047-55.543-22.289L311.597,1841.573z"/>
<path style="fill:#212848;" d="M681.633,1691.127l-0.122,315.236l0.039,1.156h-3.896H516.956h-3.932l0.153-1.019
	c8.132-24.872,17.867-49.129,27.532-73.427c9.349-24.496,20.164-48.106,32.026-71.477
	C599.615,1798.37,635.722,1742.136,681.633,1691.127z"/>
<path style="fill:#E87E3E;" d="M559.331,1284.817c6.225-4.584,12.56-9.016,18.877-13.471
	c25.572,32.479,30.707,64.331,25.825,104.995c-7.152,59.545-38.349,122.353-85.928,159.628
	c-28.391,22.242-62.922,35.272-99.172,30.749c-5.845-0.729-11.809-2.691-17.562-3.199c-4.359-26.07,30.98-108.741,43.314-134.199
	c23.704-42.424,51.007-83.851,85.325-118.584C539.106,1301.528,549.564,1293.319,559.331,1284.817z"/>
<path style="fill:#CECBBD;" d="M484.316,1824.236c5.519-10.408,9.428-22.162,14.137-33.004
	c9.445-21.752,19.443-43.426,30.613-64.353c41.119-77.036,96.828-146.118,153.031-212.542l-0.465,176.79
	c-45.911,51.009-82.018,107.243-108.898,170.469c-11.862,23.371-22.677,46.981-32.026,71.477
	c-26.419-11.264-57.759-20.892-82.681-34.11c8.844-23.612,17.177-51.944,26.995-74.3L484.316,1824.236z"/>
<path style="fill:#98272C;" d="M458.028,1898.964c8.844-23.612,17.177-51.944,26.995-74.3
	c29.439,11.934,58.447,24.631,87.712,36.932c-11.862,23.371-22.677,46.981-32.026,71.477
	C514.29,1921.809,482.95,1912.182,458.028,1898.964z"/>
<path style="fill:#FEFEFE;" d="M1368.707,1225.229c19.553,10.737,39.876,22.528,57.222,36.621
	c23.293,17.309,45.999,39.523,64.876,61.53c11.025,13.761,22.074,27.411,31.905,42.071c15.568,23.222,28.091,47.667,41.211,72.25
	c15.751,34.751,29.878,69.564,41.464,105.926c2.709,8.504,6.682,18.218,7.193,27.173c-1.454,1.803-2.301,1.439-4.504,1.844
	c20.392,63.851,42.342,127.418,61.301,191.706c8.23,26.046,15.688,52.751,24.988,78.4c-33.046,13.998-66.609,26.617-99.837,40.158
	c-13.936,5.68-28.598,10.941-42.054,17.648l-0.555-0.047c-27.693,11.454-55.738,22.326-83.224,34.249
	c9.265,23.387,19.269,47.399,26.001,71.644l0.172,1.117h-170.385H1037.22h-69.529l0.174-1.098
	c2.711-12.74,0.539-54.268,0.627-69.643c-0.525-2.27-0.427-5.272-0.606-7.632c-26.195-0.308-69.939,5.51-91.644-9.245
	c-15.308-10.408-19.271-24.257-22.718-41.372c-1.936-3.032-4.935-6.909-5.743-10.421c-2.985-12.973-0.996-29.945-1.115-43.291
	v-120.905l-0.4-67.751c-0.102-14.114-2.954-34.512,8.273-45.239c4.159-3.977,9.522-6.099,15.114-7.115
	c11.072-2.015,23.579-0.809,34.841-0.796l62.265-0.061l0.176-72.604c-0.084-6.237-0.071-12.293,0.608-18.5l0.308,6.603l69.613-0.451
	l-0.006,11.919c11.117-3.567,22.648-5.598,33.751-9.49C1199.408,1455.486,1310.103,1346.134,1368.707,1225.229z"/>
<path style="fill:#43596E;" d="M1324.625,2006.226l-0.141,1.294H1037.22l-0.145-0.686l0.886-0.51
	c32.873-1.294,66.181-0.157,99.111-0.118L1324.625,2006.226z"/>
<path style="fill:#3C6D8D;" d="M968.671,1929.153c18.673,0.112,51.285,2.205,68.533-0.606l0.135,0.739
	c-0.253,11.484-2.205,70.55,0.621,77.038l-0.886,0.51l0.145,0.686h-69.529l0.174-1.098c2.711-12.74,0.539-54.268,0.627-69.643
	C968.945,1934.23,968.742,1931.733,968.671,1929.153z"/>
<path style="fill:#212848;" d="M967.865,2006.422c22.667-0.039,46.711-1.666,69.21,0.412l0.145,0.686h-69.529L967.865,2006.422z"/>
<path style="fill:#E03B2F;" d="M1524.098,1823.523c47.967-20.649,96.716-39.947,145.277-59.172
	c8.23,26.046,15.688,52.751,24.988,78.4c-33.046,13.998-66.609,26.617-99.837,40.158c-13.936,5.68-28.598,10.941-42.054,17.648
	l-0.555-0.047c-4.19-8.914-7.07-18.871-10.341-28.171c-5.702-16.201-11.462-32.34-17.661-48.359L1524.098,1823.523z"/>
<path style="fill:#E87E3E;" d="M1425.929,1261.85c23.293,17.309,45.999,39.523,64.876,61.53
	c11.025,13.761,22.074,27.411,31.905,42.071c15.568,23.222,28.091,47.667,41.211,72.25c15.751,34.751,29.878,69.564,41.464,105.926
	c2.709,8.504,6.682,18.218,7.193,27.173c-1.454,1.803-2.301,1.439-4.504,1.844c-6.709-1.899-16.538-0.472-23.677-1.078
	c-21.789-1.846-44.59-10.876-63.863-20.786c-51.83-26.652-92.953-77.53-110.274-132.974
	C1392.074,1359.597,1397.913,1314.97,1425.929,1261.85z"/>
<path style="fill:#CECBBD;" d="M1323.997,1510.609c59.351,58.555,109.186,130.246,148.233,203.801
	c18.865,35.535,35.358,72.436,51.867,109.113l-0.182,0.457c6.199,16.019,11.96,32.158,17.661,48.359
	c3.271,9.3,6.151,19.257,10.341,28.171c-27.693,11.454-55.738,22.326-83.224,34.249c9.265,23.387,19.269,47.399,26.001,71.644
	l0.172,1.117h-170.385l0.141-1.294l-0.329-164.799c-1.498-10.794-0.755-22.55-0.78-33.471l-0.049-59.325l0.325-194.363
	C1323.719,1539.709,1324.276,1525.168,1323.997,1510.609z"/>
<path style="fill:#98272C;" d="M1437.256,1860.708l86.659-36.728c6.199,16.019,11.96,32.158,17.661,48.359
	c3.271,9.3,6.151,19.257,10.341,28.171c-27.693,11.454-55.738,22.326-83.224,34.249
	C1458.381,1909.894,1449.483,1884.791,1437.256,1860.708z"/>
<path style="fill:#212848;" d="M1324.456,1695.706c48.806,47.655,83.853,103.656,112.8,165.003
	c12.226,24.083,21.125,49.186,31.438,74.051c9.265,23.387,19.269,47.399,26.001,71.644l0.172,1.117h-170.385l0.141-1.294
	l-0.329-164.799C1325.36,1792.926,1324.491,1744.229,1324.456,1695.706z"/>
<path style="fill:#4A8A9A;" d="M967.544,1491.848l0.308,6.603l69.613-0.451l-0.006,11.919c-0.082,14.81,0.353,29.81-0.294,44.592
	c0.163,9.565,0.245,19.116,0.21,28.683l63.065-0.531c12.372-0.116,26.24-1.441,38.42,0.96c5.513,1.086,10.129,3.479,14.043,7.536
	c3.702,3.838,6.158,8.365,6.948,13.649c2.685,17.944,0.737,53.283,0.745,73.228c0.018,41.434,1.358,83.233,0.082,124.625
	c-0.027,0.89-0.096,1.78-0.171,2.668c-0.357,17.087,2.944,53.857-2.603,68.277c-1.57,4.085-4.792,7.626-7.897,10.635
	c-1.646,13.659-5.686,24.725-16.807,33.671c-6.678,5.37-14.52,8.661-22.875,10.335c-17.708,3.546-52.955,0.508-72.986,1.041
	l-0.135-0.739c-17.248,2.811-49.86,0.717-68.533,0.606c0.07,2.579,0.274,5.076-0.178,7.626c-0.525-2.27-0.427-5.272-0.606-7.632
	c-26.195-0.308-69.939,5.51-91.644-9.245c-15.308-10.408-19.271-24.257-22.718-41.372c-1.936-3.032-4.935-6.909-5.743-10.421
	c-2.985-12.973-0.996-29.945-1.115-43.291v-120.905l-0.4-67.751c-0.102-14.114-2.954-34.512,8.273-45.239
	c4.159-3.977,9.522-6.099,15.114-7.115c11.072-2.015,23.579-0.809,34.841-0.796l62.265-0.061l0.176-72.604
	C966.852,1504.112,966.866,1498.055,967.544,1491.848z"/>
<path style="fill:#1B4B73;" d="M967.852,1498.451l69.613-0.451l-0.006,11.919c-0.082,14.81,0.353,29.81-0.294,44.592
	c-1.066,9.179-0.561,18.665-0.435,27.895l-69.013,0.384C968.087,1554.691,967.985,1526.552,967.852,1498.451z"/>
<path style="fill:#E87E3E;" d="M994.978,1608.793c10.996-0.947,20.668,0.177,30.398,5.884c10.915,6.401,19.018,17.011,21.885,29.373
	c2.732,11.787,0.788,25.025-5.735,35.272c-7.264,11.411-18.426,17.66-31.405,20.268c-9.58,0.417-18.406-0.1-27.303-4.224
	c-11.145-5.167-19.629-14.716-23.526-26.364c-3.959-11.842-2.719-24.782,3.212-35.745
	C969.52,1620.291,981.101,1612.719,994.978,1608.793z"/>
<path style="fill:#1B4B73;" d="M847.261,1730.527c48.136,1.125,96.399,0.511,144.55,0.519c56.005,0.01,112.096,0.486,168.088-0.645
	l-0.127,49.796c-0.02,8.287,0.525,17.031-0.235,25.247c-34.833,0.9-69.835,0.141-104.693,0.137l-207.523,0.086L847.261,1730.527z"/>
<path style="fill:#70828A;" d="M846.667,1703.914c1.999,7.846,0.541,18.355,0.594,26.613l0.059,75.14l207.523-0.086
	c34.859,0.004,69.86,0.762,104.693-0.137l0.972-0.116c-0.357,17.087,2.944,53.857-2.603,68.277
	c-1.57,4.085-4.792,7.626-7.897,10.635c-1.646,13.659-5.686,24.725-16.807,33.671c-6.678,5.37-14.52,8.661-22.875,10.335
	c-17.708,3.546-52.955,0.508-72.986,1.041l-0.135-0.739c-17.248,2.811-49.86,0.717-68.533,0.606c0.07,2.579,0.274,5.076-0.178,7.626
	c-0.525-2.27-0.427-5.272-0.606-7.632c-26.195-0.308-69.939,5.51-91.644-9.245c-15.308-10.408-19.271-24.257-22.718-41.372
	c-1.936-3.032-4.935-6.909-5.743-10.421c-2.985-12.973-0.996-29.945-1.115-43.291V1703.914z"/>
<path style="fill:#1B4B73;" d="M968.497,1888.887c22.889,0.112,45.782,0.318,68.671-0.116c0.026,13.246,0.28,26.535,0.037,39.776
	c-17.248,2.811-49.86,0.717-68.533,0.606C967.669,1915.947,968.475,1902.156,968.497,1888.887z"/>
<path style="fill:#CECBBD;" d="M853.525,1878.531c4.471,3.808,8.099,6.366,13.855,7.799c12.858,3.201,27.64,1.846,40.833,1.825
	c19.802-0.031,39.631-0.329,59.425,0.145c-0.027,13.487-0.749,27.418,0.249,40.848c-26.195-0.308-69.939,5.51-91.644-9.245
	C860.936,1909.495,856.973,1895.645,853.525,1878.531z"/>
<path style="fill:#CECBBD;" d="M1037.167,1888.771c5.953-1.976,15.568-1.004,21.94-0.98c19.672,0.075,76.009,3.405,90.901-3.552
	c-1.646,13.659-5.686,24.725-16.807,33.671c-6.678,5.37-14.52,8.661-22.875,10.335c-17.708,3.546-52.955,0.508-72.986,1.041
	l-0.135-0.739C1037.447,1915.306,1037.193,1902.017,1037.167,1888.771z"/>
<path style="fill:#CECBBD;" d="M1254.741,345.177c20.268,8.544,40.203,17.548,59.864,27.415
	c53.692,27.569,110.332,63.502,154.328,105.023c52.297,45.392,114.854,121.906,147.096,182.431l-124.646,124.041
	c-34.606,33.81-68.823,67.781-102.747,102.271c-15.921,16.188-32.256,31.993-47.528,48.802
	c-0.102,14.069-0.617,28.796-11.495,39.271c-3.201,3.081-7.334,5.878-11.67,7.007c-0.259,0.363-0.527,0.717-0.774,1.086
	c-0.907,1.362-1.401,2.452-2.076,3.897c-1.884,4.026-5.992,8.695-10.265,10.306c-4.78,1.801-10.674,1.145-15.502-0.092
	c-1.041,13.865-5.376,26.974-6.786,40.666c26.438,16.766,50.29,39.088,57.297,70.84c3.069,13.908,1.725,26.897-1.372,40.637
	c-0.247,6.805-0.378,13.638-0.953,20.423c-0.382,13.218,0.461,28.265-2.583,41.144c11.605,4.22,22.846,9.134,33.777,14.886
	c-58.604,120.905-169.299,230.257-297.497,275.2c-11.104,3.892-22.634,5.923-33.751,9.49l0.006-11.919l-69.613,0.451l-0.308-6.603
	c-0.678,6.207-0.692,12.264-0.608,18.5c-6.956-1.746-13.922-4.179-20.725-6.464c-61.791-20.768-121.493-56.903-169.597-100.846
	c-9.818-8.967-18.904-18.818-28.144-28.377c-10.159-10.51-20.466-20.901-29.68-32.265c-27.883-34.392-51.803-73.575-71.487-113.208
	c7.003-3.769,14.563-6.823,21.801-10.137c-2.393-15.609-3.138-31.117-3.452-46.879c0.155-9.451-0.919-18.777-0.302-28.259
	c-1.282-9.735-1.597-18.891-0.239-28.643c4.888-35.082,31.176-63.047,58.404-83.563c-2.166-9.943-4.212-19.804-5.653-29.886
	c-10.331-3.02-20.627-7.73-29.766-13.41c-4.226-3.013-8.51-6.003-12.213-9.665c-16.099-15.921-11.05-47.802-10.858-68.774
	c-0.071-19.149-2.75-101.636,2.187-114.207c3.722-9.473,13.545-14.614,22.456-18.146c6.299-0.743,12.665-0.723,19-0.86
	c0.372-25.062,5.114-49.351,12.648-73.186c23.812-75.333,77.402-144.993,148.282-181.408
	c70.548-36.244,149.579-42.132,224.963-18.199c17.565-15.006,33.273-32.848,49.739-49.094L1254.741,345.177z"/>
<path style="fill:#9BB2B1;" d="M689.669,777.618c6.299-0.743,12.665-0.723,19-0.86l22.371-0.206
	c-25.541,49.421-21.607,121.506-17.293,175.732c1.237,15.549,4.535,34.441,4.116,49.537c-10.331-3.02-20.627-7.73-29.766-13.41
	c-4.226-3.013-8.51-6.003-12.213-9.665c-16.099-15.921-11.05-47.802-10.858-68.774c-0.071-19.149-2.75-101.636,2.187-114.207
	C670.935,786.291,680.759,781.15,689.669,777.618z"/>
<path style="fill:#FEFEFE;" d="M665.026,909.971c-0.071-19.149-2.75-101.636,2.187-114.207c3.722-9.473,13.545-14.614,22.456-18.146
	c-2.519,16.27-0.931,34.194-0.743,50.701c0.402,35.217,1.027,70.472,0.913,105.691c-0.057,17.856,0.872,36.742-1.742,54.4
	c-4.226-3.013-8.51-6.003-12.213-9.665C659.785,962.824,664.834,930.943,665.026,909.971z"/>
<path style="fill:#9BB2B1;" d="M1301.23,770.307c5.86,0.956,11.203,2.546,16.452,5.398c10.472,5.741,19.745,14.377,22.971,26.278
	c2.975,10.978,0.77,35.482,0.692,47.902l-0.237,85.274c-0.102,14.069-0.617,28.796-11.495,39.271
	c-3.201,3.081-7.334,5.878-11.67,7.007c-0.259,0.363-0.527,0.717-0.774,1.086c-0.907,1.362-1.401,2.452-2.076,3.897
	c-1.884,4.026-5.992,8.695-10.265,10.306c-4.78,1.801-10.674,1.145-15.502-0.092c-0.686-14.727-0.073-29.757-0.067-44.512
	l0.145-82.465c0.135-20.747,1.633-42.489-1.631-63.012c-2.093-13.179-6.317-24.451-12.395-36.282
	C1283.931,770.539,1292.712,771.134,1301.23,770.307z"/>
<path style="fill:#FEFEFE;" d="M1317.682,775.705c10.472,5.741,19.745,14.377,22.971,26.278c2.975,10.978,0.77,35.482,0.692,47.902
	l-0.237,85.274c-0.102,14.069-0.617,28.796-11.495,39.271c-3.201,3.081-7.334,5.878-11.67,7.007
	c2.425-19.09,0.439-47.9,0.231-67.763C1317.692,867.719,1316.981,821.653,1317.682,775.705z"/>
<path style="fill:#FEFEFE;" d="M708.669,776.758c0.372-25.062,5.114-49.351,12.648-73.186
	c23.812-75.333,77.402-144.993,148.282-181.408c70.548-36.244,149.579-42.132,224.963-18.199
	c21.068,7.944,40.523,17.371,59.925,28.814c55.646,34.665,91.252,82.673,119.448,140.816c13.116,31.852,22.315,62.522,27.295,96.712
	c-8.838-0.641-17.683-0.537-26.536-0.525c-24.827-41.082-57.41-67.02-104.688-78.469c-33.373-8.083-69.045-6.637-103.149-6.333
	l-77.651,0.416l-67.669-0.116c-22.92-0.104-45.69-0.539-68.447,2.797c-22.419,3.285-46.683,11.493-65.94,23.495
	c-20.219,12.601-36.103,29.835-48.296,50.213c-2.871,4.8-5,9.961-7.813,14.767L708.669,776.758z"/>
<linearGradient id="SVGID_00000057140442747448971400000012750750506697817023_" gradientUnits="userSpaceOnUse" x1="1489.3009" y1="224.986" x2="1322.2679" y2="410.5255" gradientTransform="matrix(1 0 0 -1 0 1021.8898)">
	<stop  offset="0" style="stop-color:#9C3335"/>
	<stop  offset="1" style="stop-color:#D64E39"/>
</linearGradient>
<path style="fill:url(#SVGID_00000057140442747448971400000012750750506697817023_);" d="M1254.741,345.177
	c20.268,8.544,40.203,17.548,59.864,27.415c53.692,27.569,110.332,63.502,154.328,105.023
	c52.297,45.392,114.854,121.906,147.096,182.431l-124.646,124.041c-34.606,33.81-68.823,67.781-102.747,102.271
	c-15.921,16.188-32.256,31.993-47.528,48.802l0.237-85.274c0.078-12.421,2.284-36.924-0.692-47.902
	c-3.226-11.901-12.499-20.537-22.971-26.278c-5.249-2.852-10.592-4.441-16.452-5.398c-4.98-34.19-14.179-64.86-27.295-96.712
	c-28.197-58.143-63.802-106.152-119.448-140.816c-19.402-11.442-38.857-20.87-59.925-28.814
	c17.565-15.006,33.273-32.848,49.739-49.094L1254.741,345.177z"/>
<linearGradient id="SVGID_00000050624550486977236560000001022661819452438163_" gradientUnits="userSpaceOnUse" x1="1281.5225" y1="353.0396" x2="1281.8932" y2="646.1137" gradientTransform="matrix(1 0 0 -1 0 1021.8898)">
	<stop  offset="0" style="stop-color:#E1673C"/>
	<stop  offset="1" style="stop-color:#EF9751"/>
</linearGradient>
<path style="fill:url(#SVGID_00000050624550486977236560000001022661819452438163_);" d="M1254.741,345.177
	c20.268,8.544,40.203,17.548,59.864,27.415c53.692,27.569,110.332,63.502,154.328,105.023l-133.709,133.629
	c-20.533,20.652-41.952,40.554-61.289,62.352c-28.197-58.143-63.802-106.152-119.448-140.816
	c-19.402-11.442-38.857-20.87-59.925-28.814c17.565-15.006,33.273-32.848,49.739-49.094L1254.741,345.177z"/>
<path style="fill:#E03B2F;" d="M1254.741,345.177c20.268,8.544,40.203,17.548,59.864,27.415L1199.438,487.34
	c-8.763,8.7-39.815,37.189-44.951,45.439c-19.402-11.442-38.857-20.87-59.925-28.814c17.565-15.006,33.273-32.848,49.739-49.094
	L1254.741,345.177z"/>
<path style="fill:#9BB2B1;" d="M723.516,1031.707l0.515,1.546c5.888,17.979,6.87,28.24,16.082,46.305
	c21.887,41.331,59.135,76.903,101.579,96.559c14.41,6.674,29.843,11.668,45.605,13.828c33.538,4.594,79.398,2.076,114.211,2.038
	c35.166-0.039,75.928,2.084,110.501-1.45c15.027-1.535,29.906-5.014,44.069-10.257c46.94-17.373,94.535-59.121,115.548-104.803
	c4.526-12.585,9.761-24.729,10.915-38.175c26.438,16.766,50.29,39.088,57.297,70.84c3.069,13.908,1.725,26.897-1.372,40.637
	c-0.247,6.805-0.378,13.638-0.953,20.423c-0.382,13.218,0.461,28.265-2.583,41.144c11.605,4.22,22.846,9.134,33.777,14.886
	c-58.604,120.905-169.299,230.257-297.497,275.2c-11.104,3.892-22.634,5.923-33.751,9.49l0.006-11.919l-69.613,0.451l-0.308-6.603
	c-0.678,6.207-0.692,12.264-0.608,18.5c-6.956-1.746-13.922-4.179-20.725-6.464c-61.791-20.768-121.493-56.903-169.597-100.846
	c-9.818-8.967-18.904-18.818-28.144-28.377c-10.159-10.51-20.466-20.901-29.68-32.265c-27.883-34.392-51.803-73.575-71.487-113.208
	c7.003-3.769,14.563-6.823,21.801-10.137c-2.393-15.609-3.138-31.117-3.452-46.879c0.155-9.451-0.919-18.777-0.302-28.259
	c-1.282-9.735-1.597-18.891-0.239-28.643C670,1080.187,696.288,1052.222,723.516,1031.707z"/>
<path style="fill:#1B4B73;" d="M1271.626,1075.473c8.416,14.543,11.672,30.633,7.383,47.109
	c-7.134,27.407-32.118,45.982-55.413,59.431c-99.533,57.471-250.102,61.166-358.851,31.491
	c-43.4-11.842-108.364-36.421-131.291-76.761c-6.48-11.401-7.954-23.24-4.269-35.829c2.234-7.632,6.466-14.833,10.927-21.356
	c21.887,41.331,59.135,76.903,101.579,96.559c14.41,6.674,29.843,11.668,45.605,13.828c33.538,4.594,79.398,2.076,114.211,2.038
	c35.166-0.039,75.928,2.084,110.501-1.45c15.027-1.535,29.906-5.014,44.069-10.257
	C1203.018,1162.903,1250.613,1121.155,1271.626,1075.473z"/>
<path style="fill:#3C6D8D;" d="M665.351,1143.913c10.933,38.504,43.698,64.884,77.481,83.888
	c116.181,65.356,298.769,73.492,425.14,37.673c61.469-17.422,132.033-47.209,164.581-105.407c2.072-3.706,4-7.501,5.913-11.292
	c-0.247,6.805-0.378,13.638-0.953,20.423c-0.382,13.218,0.461,28.265-2.583,41.144c-0.866,4.038-1.505,9.273-3.216,13.009
	l-1.231,1.558c-8.651,11.17-14.69,21.985-25.092,32.23c-51.33,50.554-135.503,75.885-205.284,85.756
	c-119.19,16.858-282.603,4.588-382.208-70.26c-12.546-9.43-22.264-19.161-32.558-30.994c-2.428-2.789-7.497-10.272-11.07-11.017
	c-2.389-3.318-3.673-7.771-5.167-11.574c-2.393-15.609-3.138-31.117-3.452-46.879
	C665.808,1162.721,664.734,1153.395,665.351,1143.913z"/>
<path style="fill:#CECBBD;" d="M1334.93,1210.343c11.605,4.22,22.846,9.134,33.777,14.886
	c-58.604,120.905-169.299,230.257-297.497,275.2c-11.104,3.892-22.634,5.923-33.751,9.49l0.006-11.919l-69.613,0.451l-0.308-6.603
	c-0.678,6.207-0.692,12.264-0.608,18.5c-6.956-1.746-13.922-4.179-20.725-6.464c-61.791-20.768-121.493-56.903-169.597-100.846
	c-9.818-8.967-18.904-18.818-28.144-28.377c-10.159-10.51-20.466-20.901-29.68-32.265c-27.883-34.392-51.803-73.575-71.487-113.208
	c7.003-3.769,14.563-6.823,21.801-10.137c1.494,3.802,2.777,8.256,5.167,11.574c3.573,0.745,8.642,8.228,11.07,11.017
	c10.294,11.833,20.012,21.564,32.558,30.994c99.605,74.849,263.018,87.118,382.208,70.26
	c69.782-9.871,153.954-35.202,205.284-85.756c10.402-10.245,16.441-21.06,25.092-32.23l1.231-1.558
	C1333.425,1219.616,1334.064,1214.38,1334.93,1210.343z"/>
<path style="fill:#212848;" d="M967.544,1491.848c0.351-4.345,0.58-8.685,4.098-11.731c5.002-4.328,43.061-3.512,51.434-2.62
	c3.706,0.396,9.39,0.809,11.776,4.042c3.355,4.543,2.73,11.139,2.613,16.462l-69.613,0.451L967.544,1491.848z"/>
<path style="fill:#1B4B73;" d="M674.271,1230.625c3.573,0.745,8.642,8.228,11.07,11.017c10.294,11.833,20.012,21.564,32.558,30.994
	c99.605,74.849,263.018,87.118,382.208,70.26c69.782-9.871,153.954-35.202,205.284-85.756c10.402-10.245,16.441-21.06,25.092-32.23
	l1.231-1.558c-9.483,45.935-50.476,81.052-88.01,105.779c-95.711,63.053-227.646,79.221-338.462,56.117
	c-73.786-15.382-172.257-56.826-214.871-122.302C683.848,1252.92,678.081,1241.985,674.271,1230.625z"/>
<path style="fill:#212848;" d="M878.199,716.29c12.16-1.903,26.325-0.647,38.692-0.629l73.667,0.131l89.066-0.074
	c19.03-0.051,38.643-1.025,57.555,1.182c16.895,1.974,33.749,7.13,48.816,15.037c35.613,18.693,63.618,52.379,75.356,90.815
	c2.528,8.281,4.247,16.636,4.973,25.266c1.746,20.792,0.229,42.73,0.302,63.631c0.082,23.875,2.485,56.185-1.313,79.364
	c-2.695,16.456-9.304,32.908-17.156,47.54c-28.647,53.375-73.855,89.645-131.585,106.853c-9.71,2.695-19.614,4.549-29.641,5.535
	c-24.363,2.393-54.819,0.537-79.839,0.619c-79.864,0.265-124.366,6.358-191.037-49.294
	c-52.967-44.215-76.195-101.943-82.265-169.191c-5.231-57.963-0.733-120.109,38.34-166.457
	C799.062,734.674,837.378,719.859,878.199,716.29z"/>
<path style="fill:#3C6D8D;" d="M929.434,740.776c1.844,1.009-6.611,19.992-7.836,23.649c-8.328,24.87-14.706,51.628-18.626,77.567
	c-13.985,92.538-4.863,190.547,30.748,277.287c-34.921-5.335-68.902-18.757-96.495-40.987
	c-40.603-34.763-66.109-84.206-73.947-136.837c-6.137-41.207-6.609-101.269,19.6-136.016
	C815.701,761.926,878.266,747.802,929.434,740.776z"/>
</svg>
