<?xml version="1.0" encoding="utf-8"?>
<!-- Generator: Adobe Illustrator 27.5.0, SVG Export Plug-In . SVG Version: 6.00 Build 0)  -->
<svg version="1.1" xmlns="http://www.w3.org/2000/svg" xmlns:xlink="http://www.w3.org/1999/xlink" x="0px" y="0px"
	 viewBox="0 0 500 500" style="enable-background:new 0 0 500 500;" xml:space="preserve">
<g id="_BACKGROUND">
	<rect style="fill:#31314E;" width="500" height="500"/>
</g>
<g id="OBJECTS">
	<g>
		<text transform="matrix(1 0 0 1 147.9092 29.3164)" style="fill:#F1F1F1; font-family:'Quicksand-Bold'; font-size:16.3621px;">HALLOWEEN CHARACTER</text>
		<text transform="matrix(1 0 0 1 195.7271 46.231)" style="fill:#F1F1F1; font-family:'Quicksand-Bold'; font-size:16.3621px;">COLLECTION</text>
	</g>
	<g>
		<ellipse style="fill:#2B2B44;" cx="250" cy="243.792" rx="55.547" ry="6.683"/>
		<g>
			<rect x="198.271" y="140.416" style="fill:#8E6F06;" width="103.242" height="41.691"/>
			<g>
				<g>
					<g>
						<path style="fill:#2E0927;" d="M241.379,187.719c-0.003,0-0.006,0-0.008,0c-0.592,0.001-14.572,0.143-22.801,9.55
							c-4.737,5.415-6.547,12.647-5.381,21.494c0.212,1.621,1.596,2.801,3.188,2.801c0.141,0,0.281-0.009,0.425-0.028
							c1.762-0.232,3.002-1.848,2.771-3.61l1.189,0.424c0.179,0.064,0.362,0.094,0.54,0.094c0.665,0,1.284-0.411,1.52-1.071
							c0.297-0.837-0.139-1.759-0.977-2.057l-2.544-0.906c-0.116-5.29,1.252-9.611,4.093-12.873
							c6.268-7.197,17.831-7.375,17.998-7.376c1.776-0.008,3.211-1.453,3.208-3.229
							C244.594,189.155,243.154,187.719,241.379,187.719z"/>
					</g>
				</g>
				<g>
					<path style="fill:#A5BE31;" d="M219.418,211.461c0.104-1.104,0.279-2.159,0.532-3.163l-6.48-0.68
						c-0.278,1.306-0.461,2.666-0.551,4.079L219.418,211.461z"/>
					<path style="fill:#A5BE31;" d="M223.458,201.467l-5.014-4.045c-1.102,1.283-2.045,2.665-2.822,4.147l5.165,4.168
						c0.655-1.551,1.523-2.954,2.607-4.201C223.415,201.513,223.438,201.491,223.458,201.467z"/>
					<path style="fill:#A5BE31;" d="M225.513,191.813c-1.427,0.77-2.832,1.692-4.161,2.78l3.804,5.212
						c1.306-1.112,2.741-2.005,4.203-2.722L225.513,191.813z"/>
					<path style="fill:#A5BE31;" d="M234.181,188.64c-1.511,0.34-3.159,0.805-4.855,1.444l2.819,5.835
						c1.769-0.622,3.475-1.026,4.932-1.286L234.181,188.64z"/>
				</g>
				<g>
					<g>
						<path style="fill:#ECDFAC;" d="M221.303,218.443c0.665,0,1.284-0.411,1.52-1.071c0.297-0.837-0.139-1.759-0.977-2.057
							l-2.544-0.906c-0.005-0.244,0.009-0.477,0.009-0.716l-6.442,1.02c0.036,1.311,0.139,2.659,0.321,4.05
							c0.212,1.621,1.596,2.801,3.188,2.801c0.141,0,0.281-0.009,0.425-0.028c1.762-0.232,3.002-1.848,2.771-3.61l1.189,0.424
							C220.941,218.413,221.125,218.443,221.303,218.443z"/>
					</g>
				</g>
			</g>
			<g>
				<g>
					<g>
						<path style="fill:#2E0927;" d="M258.406,187.719c0.002,0,0.006,0,0.008,0c0.592,0.001,14.572,0.143,22.801,9.55
							c4.736,5.415,6.547,12.647,5.381,21.494c-0.213,1.621-1.596,2.801-3.189,2.801c-0.141,0-0.281-0.009-0.424-0.028
							c-1.762-0.232-3.002-1.848-2.771-3.61l-1.189,0.424c-0.178,0.064-0.361,0.094-0.539,0.094c-0.666,0-1.285-0.411-1.52-1.071
							c-0.297-0.837,0.139-1.759,0.977-2.057l2.543-0.906c0.117-5.29-1.252-9.611-4.092-12.873
							c-6.268-7.197-17.832-7.375-17.998-7.376c-1.777-0.008-3.211-1.453-3.209-3.229
							C255.191,189.155,256.631,187.719,258.406,187.719z"/>
					</g>
				</g>
				<g>
					<path style="fill:#A5BE31;" d="M280.367,211.461c-0.103-1.104-0.279-2.159-0.531-3.163l6.48-0.68
						c0.277,1.306,0.461,2.666,0.549,4.079L280.367,211.461z"/>
					<path style="fill:#A5BE31;" d="M276.326,201.467l5.014-4.045c1.104,1.283,2.045,2.665,2.822,4.147l-5.164,4.168
						c-0.656-1.551-1.521-2.954-2.607-4.201C276.369,201.513,276.348,201.491,276.326,201.467z"/>
					<path style="fill:#A5BE31;" d="M274.271,191.813c1.428,0.77,2.832,1.692,4.162,2.78l-3.803,5.212
						c-1.307-1.112-2.742-2.005-4.205-2.722L274.271,191.813z"/>
					<path style="fill:#A5BE31;" d="M265.605,188.64c1.51,0.34,3.158,0.805,4.854,1.444l-2.818,5.835
						c-1.77-0.622-3.475-1.026-4.932-1.286L265.605,188.64z"/>
				</g>
				<g>
					<g>
						<path style="fill:#ECDFAC;" d="M278.482,218.443c-0.666,0-1.285-0.411-1.52-1.071c-0.297-0.837,0.139-1.759,0.977-2.057
							l2.543-0.906c0.006-0.244-0.008-0.477-0.008-0.716l6.441,1.02c-0.035,1.311-0.139,2.659-0.32,4.05
							c-0.213,1.621-1.596,2.801-3.189,2.801c-0.141,0-0.281-0.009-0.424-0.028c-1.762-0.232-3.002-1.848-2.771-3.61l-1.189,0.424
							C278.844,218.413,278.66,218.443,278.482,218.443z"/>
					</g>
				</g>
			</g>
			<g>
				<g>
					<polygon style="fill:#3A1734;" points="269.654,232.863 262.143,182.107 237.644,182.107 230.131,232.863 216.739,241.555 
						239.93,241.555 242.87,230.059 256.916,230.059 259.853,241.555 283.049,241.555 					"/>
				</g>
				<polygon style="fill:#BEDB39;" points="230.131,232.863 216.739,241.555 239.93,241.555 242.87,230.059 256.916,230.059 
					259.853,241.555 283.049,241.555 269.654,232.863 267.982,221.564 231.804,221.564 				"/>
				<polygon style="fill:#3A1734;" points="262.707,183.91 237.229,183.91 229.473,227.667 270.463,227.667 				"/>
				<g>
					<path style="fill:#2E0927;" d="M236.84,186.102l-10.846,36.526c0,0,24.006,6.206,23.9-35.002L236.84,186.102z"/>
					<path style="fill:#2E0927;" d="M263.023,186.102l10.846,36.526c0,0-24.007,6.206-23.899-35.002L263.023,186.102z"/>
				</g>
				<g>
					<polygon style="fill:#823C69;" points="249.894,187.626 243.124,195.809 237.076,185.943 243.484,183.91 					"/>
					<polygon style="fill:#823C69;" points="250,187.626 256.771,195.809 262.818,185.943 256.41,183.91 					"/>
				</g>
				<g>
					<g>
						<polygon style="fill:#2E0927;" points="259.853,241.555 283.049,241.555 269.654,232.863 269.625,232.662 257.58,232.662 
													"/>
					</g>
					<g>
						<polygon style="fill:#2E0927;" points="242.205,232.662 230.161,232.662 230.131,232.863 216.739,241.555 239.93,241.555 
													"/>
					</g>
				</g>
			</g>
			<g>
				<g>
					<g>
						<path style="fill:#ECDFAC;" d="M301.514,140.416c0,26.073-23.109,47.21-51.62,47.21c-28.511,0-51.622-21.136-51.622-47.21
							c0-26.073,23.111-47.209,51.622-47.209C278.404,93.207,301.514,114.343,301.514,140.416z"/>
					</g>
				</g>
				<path style="fill:#BD9408;" d="M249.894,93.207c-28.511,0-51.622,21.135-51.622,47.209c0,1.624,0.091,3.23,0.266,4.812
					c43.614-1.413,71.777-29.871,71.777-29.871s7.766,28.452,30.656,31.873c0.353-2.226,0.543-4.499,0.543-6.814
					C301.514,114.343,278.404,93.207,249.894,93.207z"/>
			</g>
			<ellipse style="fill:#2E0927;" cx="250" cy="118.428" rx="63.002" ry="8.29"/>
			<path style="fill:#3A1734;" d="M292.83,115.291c0,3.113-19.174,5.636-42.83,5.636c-23.655,0-42.831-2.523-42.831-5.636
				c0-3.112,19.176-40.984,42.831-40.984C273.656,74.308,292.83,112.179,292.83,115.291z"/>
			<path style="fill:#823C69;" d="M250,108.099c-16.557,0-30.908-1.237-38.038-3.046c-3.056,5.232-4.793,9.305-4.793,10.239
				c0,3.113,19.176,5.636,42.831,5.636c23.656,0,42.83-2.523,42.83-5.636c0-0.934-1.736-5.007-4.793-10.239
				C280.908,106.862,266.557,108.099,250,108.099z"/>
			<g>
				<path style="fill:#BEDB39;" d="M251.104,223.815c0,0.667-0.542,1.208-1.21,1.208c-0.667,0-1.208-0.541-1.208-1.208
					c0-0.668,0.541-1.209,1.208-1.209C250.561,222.606,251.104,223.148,251.104,223.815z"/>
				<path style="fill:#BEDB39;" d="M251.104,218.755c0,0.667-0.542,1.208-1.21,1.208c-0.667,0-1.208-0.541-1.208-1.208
					c0-0.668,0.541-1.209,1.208-1.209C250.561,217.546,251.104,218.087,251.104,218.755z"/>
				<path style="fill:#BEDB39;" d="M251.104,213.695c0,0.667-0.542,1.208-1.21,1.208c-0.667,0-1.208-0.541-1.208-1.208
					c0-0.668,0.541-1.209,1.208-1.209C250.561,212.486,251.104,213.027,251.104,213.695z"/>
				<path style="fill:#BEDB39;" d="M251.104,208.635c0,0.667-0.542,1.208-1.21,1.208c-0.667,0-1.208-0.541-1.208-1.208
					c0-0.668,0.541-1.209,1.208-1.209C250.561,207.426,251.104,207.967,251.104,208.635z"/>
				<path style="fill:#BEDB39;" d="M251.104,203.575c0,0.668-0.542,1.209-1.21,1.209c-0.667,0-1.208-0.541-1.208-1.209
					c0-0.668,0.541-1.209,1.208-1.209C250.561,202.366,251.104,202.907,251.104,203.575z"/>
			</g>
			<g>
				<g>
					<g>
						<path style="fill:#2E0927;" d="M237.053,148.655c0,2.626-1.106,4.754-2.47,4.754s-2.468-2.129-2.468-4.754
							s1.105-4.754,2.468-4.754S237.053,146.03,237.053,148.655z"/>
					</g>
					<g>
						<path style="fill:#2E0927;" d="M267.672,148.655c0,2.626-1.105,4.754-2.469,4.754s-2.469-2.129-2.469-4.754
							s1.105-4.754,2.469-4.754S267.672,146.03,267.672,148.655z"/>
					</g>
				</g>
				<g>
					<path style="fill:#2E0927;" d="M249.894,176.986c-6.633,0-12.027-5.395-12.027-12.026c0-0.711,0.578-1.288,1.288-1.288
						c0.712,0,1.288,0.577,1.288,1.288c0,5.21,4.239,9.45,9.451,9.45c5.21,0,9.448-4.239,9.448-9.45
						c0-0.711,0.578-1.288,1.289-1.288c0.713,0,1.289,0.577,1.289,1.288C261.92,171.591,256.525,176.986,249.894,176.986
						L249.894,176.986z"/>
				</g>
				<g>
					<path style="fill:#D8816C;" d="M257.748,156.241c0,2.665-3.516,4.825-7.854,4.825c-4.338,0-7.855-2.16-7.855-4.825
						c0-2.664,3.518-4.825,7.855-4.825C254.232,151.416,257.748,153.577,257.748,156.241z"/>
				</g>
			</g>
		</g>
	</g>
	<g>
		<path style="fill:#2B2B44;" d="M305.547,450.603c0,3.691-24.869,6.684-55.548,6.684c-30.678,0-55.547-2.992-55.547-6.684
			c0-3.69,24.869-6.683,55.547-6.683C280.678,443.921,305.547,446.913,305.547,450.603z"/>
		<g>
			<polygon style="fill:#011826;" points="264.385,394.438 235.615,394.438 222.629,439.176 227.185,441.516 231.745,439.176 
				236.302,441.516 240.861,439.176 245.424,441.516 249.985,439.176 254.547,441.516 259.107,439.176 263.67,441.516 
				268.23,439.176 272.801,441.516 277.371,439.176 			"/>
			<g>
				<g>
					<path style="fill:#011826;" d="M209.503,319.781c0,0,0-17.031,10.576-27.531c0,0,7.75,9,7.75,19.5
						C227.829,311.75,222.677,322.813,209.503,319.781z"/>
					<path style="fill:#102633;" d="M221.294,318.458c4.577-2.516,6.535-6.708,6.535-6.708c0-10.5-7.75-19.5-7.75-19.5
						S216.418,305.353,221.294,318.458z"/>
				</g>
				<g>
					<path style="fill:#011826;" d="M290.496,319.781c0,0,0-17.031-10.576-27.531c0,0-7.75,9-7.75,19.5
						C272.17,311.75,277.322,322.813,290.496,319.781z"/>
					<path style="fill:#102633;" d="M278.705,318.458c-4.576-2.516-6.535-6.708-6.535-6.708c0-10.5,7.75-19.5,7.75-19.5
						S283.582,305.353,278.705,318.458z"/>
				</g>
			</g>
			<g>
				<g>
					<path style="fill:#011826;" d="M202.428,348.704c0,5.076-2.221,9.192-4.962,9.192c-2.741,0-4.964-4.116-4.964-9.192
						c0-5.078,2.223-9.193,4.964-9.193C200.207,339.511,202.428,343.626,202.428,348.704z"/>
				</g>
				<g>
					<path style="fill:#011826;" d="M307.498,348.704c0,5.076-2.223,9.192-4.963,9.192c-2.74,0-4.963-4.116-4.963-9.192
						c0-5.078,2.223-9.193,4.963-9.193C305.275,339.511,307.498,343.626,307.498,348.704z"/>
				</g>
			</g>
			<g>
				<g>
					<g>
						<g>
							<path style="fill:#FFD855;" d="M258.514,396.006c0.002,0,0.006,0,0.008,0c0.592,0.001,14.572,0.143,22.801,9.551
								c4.736,5.414,6.547,12.646,5.381,21.493c-0.213,1.621-1.596,2.801-3.189,2.801c-0.141,0-0.281-0.009-0.424-0.028
								c-1.762-0.232-3.002-1.848-2.771-3.609l-1.189,0.424c-0.178,0.064-0.361,0.094-0.539,0.094c-0.666,0-1.285-0.411-1.52-1.07
								c-0.297-0.838,0.139-1.76,0.977-2.058l2.543-0.906c0.117-5.29-1.252-9.61-4.092-12.872
								c-6.267-7.197-17.83-7.375-17.998-7.377c-1.777-0.008-3.211-1.453-3.209-3.228
								C255.299,397.441,256.738,396.006,258.514,396.006z"/>
						</g>
					</g>
					<g>
						<g>
							<path style="fill:#ECDFAC;" d="M278.59,426.73c-0.666,0-1.285-0.411-1.52-1.07c-0.297-0.838,0.139-1.76,0.977-2.058
								l2.543-0.906c0.006-0.244-0.008-0.477-0.008-0.716l6.441,1.02c-0.035,1.311-0.139,2.658-0.32,4.05
								c-0.213,1.621-1.596,2.801-3.189,2.801c-0.141,0-0.281-0.009-0.424-0.028c-1.762-0.232-3.002-1.848-2.771-3.609l-1.189,0.424
								C278.951,426.7,278.768,426.73,278.59,426.73z"/>
						</g>
					</g>
				</g>
				<g>
					<g>
						<g>
							<path style="fill:#FFD855;" d="M241.486,396.006c-0.003,0-0.006,0-0.008,0c-0.592,0.001-14.572,0.143-22.801,9.551
								c-4.737,5.414-6.547,12.646-5.381,21.493c0.212,1.621,1.596,2.801,3.189,2.801c0.141,0,0.281-0.009,0.425-0.028
								c1.762-0.232,3.002-1.848,2.771-3.609l1.189,0.424c0.179,0.064,0.362,0.094,0.54,0.094c0.665,0,1.284-0.411,1.519-1.07
								c0.297-0.838-0.139-1.76-0.977-2.058l-2.544-0.906c-0.116-5.29,1.252-9.61,4.093-12.872
								c6.268-7.197,17.831-7.375,17.998-7.377c1.776-0.008,3.211-1.453,3.208-3.228
								C244.701,397.441,243.262,396.006,241.486,396.006z"/>
						</g>
					</g>
					<g>
						<g>
							<path style="fill:#ECDFAC;" d="M221.41,426.73c0.665,0,1.284-0.411,1.519-1.07c0.297-0.838-0.139-1.76-0.977-2.058
								l-2.544-0.906c-0.005-0.244,0.009-0.477,0.009-0.716l-6.442,1.02c0.036,1.311,0.139,2.658,0.321,4.05
								c0.212,1.621,1.596,2.801,3.189,2.801c0.141,0,0.281-0.009,0.425-0.028c1.762-0.232,3.002-1.848,2.771-3.609l1.189,0.424
								C221.049,426.7,221.232,426.73,221.41,426.73z"/>
						</g>
					</g>
				</g>
			</g>
			<g>
				<g>
					<polygon style="fill:#778691;" points="269.76,441.15 262.248,390.395 237.749,390.395 230.236,441.15 216.845,449.842 
						240.035,449.842 242.976,438.346 257.021,438.346 259.961,449.842 283.154,449.842 					"/>
				</g>
				<g>
					<g>
						<polygon style="fill:#011826;" points="259.961,449.842 283.154,449.842 269.76,441.15 269.732,440.949 257.688,440.949 
													"/>
					</g>
					<g>
						<polygon style="fill:#011826;" points="242.311,440.949 230.267,440.949 230.236,441.15 216.845,449.842 240.035,449.842 
													"/>
					</g>
				</g>
			</g>
			<g>
				<g>
					<path style="fill:#ECDFAC;" d="M301.621,348.703c0,26.073-23.109,47.209-51.621,47.209c-28.511,0-51.622-21.136-51.622-47.209
						c0-26.073,23.111-47.209,51.622-47.209C278.512,301.494,301.621,322.63,301.621,348.703z"/>
				</g>
			</g>
			<path style="fill:#011826;" d="M250,301.494c-28.511,0-51.622,21.136-51.622,47.209c0,5.601,1.073,10.972,3.03,15.956
				c7.155-9.092,26.206-15.596,48.592-15.596c22.387,0,41.438,6.504,48.592,15.596c1.957-4.984,3.029-10.355,3.029-15.956
				C301.621,322.63,278.512,301.494,250,301.494z"/>
			<g>
				<path style="fill:#D8816C;" d="M257.855,350.156c0,2.665-3.518,4.825-7.855,4.825c-4.338,0-7.855-2.16-7.855-4.825
					c0-2.665,3.518-4.825,7.855-4.825C254.338,345.331,257.855,347.491,257.855,350.156z"/>
			</g>
			<g>
				<path style="fill:#F1F1F1;" d="M233.081,329.782c-3.666-0.968-7.691,2.229-8.988,7.143c-1.297,4.914,0.624,9.682,4.29,10.649
					c3.667,0.969,14.33-0.477,15.628-5.39C245.309,337.272,236.748,330.751,233.081,329.782z"/>
				<path style="fill:#F1F1F1;" d="M266.918,329.782c3.666-0.968,7.691,2.229,8.988,7.143c1.297,4.914-0.623,9.682-4.289,10.649
					c-3.668,0.969-14.33-0.477-15.629-5.39C254.691,337.272,263.252,330.751,266.918,329.782z"/>
			</g>
			<g>
				<g>
					<path style="fill:#011826;" d="M237.159,339.511c0,2.626-1.107,4.755-2.47,4.755c-1.363,0-2.468-2.129-2.468-4.755
						c0-2.626,1.104-4.755,2.468-4.755C236.053,334.756,237.159,336.885,237.159,339.511z"/>
				</g>
				<g>
					<path style="fill:#011826;" d="M267.777,339.511c0,2.626-1.105,4.755-2.467,4.755c-1.363,0-2.469-2.129-2.469-4.755
						c0-2.626,1.105-4.755,2.469-4.755C266.672,334.756,267.777,336.885,267.777,339.511z"/>
				</g>
			</g>
			<g>
				<path style="fill:#011826;" d="M250,371.316c-6.633,0-12.027-5.396-12.027-12.026c0-0.711,0.578-1.288,1.288-1.288
					c0.712,0,1.288,0.577,1.288,1.288c0,5.21,4.239,9.45,9.451,9.45c5.211,0,9.449-4.24,9.449-9.45c0-0.711,0.578-1.288,1.289-1.288
					c0.713,0,1.289,0.577,1.289,1.288C262.027,365.921,256.633,371.316,250,371.316L250,371.316z"/>
			</g>
			<polygon style="fill:#FFD855;" points="267.938,428.81 266.535,419.334 233.468,419.334 232.063,428.826 232.063,428.826 
				242.977,438.346 256.98,438.346 267.896,428.826 			"/>
			<polygon style="fill:#011826;" points="267.508,425.916 266.533,419.334 233.467,419.334 232.492,425.916 			"/>
		</g>
	</g>
	<g>
		<g>
			<path style="fill:#2B2B44;" d="M149.305,450.603c0,3.691-24.869,6.684-55.546,6.684c-30.678,0-55.547-2.992-55.547-6.684
				c0-3.689,24.869-6.682,55.547-6.682C124.435,443.922,149.305,446.914,149.305,450.603z"/>
		</g>
		<g>
			<g>
				<path style="fill:#9AB22E;" d="M154.753,330.583c-4.183,0-16.61,16.542-16.61,23.551c0,7.01,3.391,12.69,7.571,12.69
					c4.181,0,7.571-5.681,7.571-12.69C153.285,347.125,158.932,330.583,154.753,330.583z"/>
				<path style="fill:#9AB22E;" d="M32.764,330.583c-4.179,0,1.468,16.542,1.468,23.551c0,7.01,3.391,12.69,7.571,12.69
					c4.182,0,7.572-5.681,7.572-12.69C49.375,347.125,36.946,330.583,32.764,330.583z"/>
			</g>
			<g>
				<g>
					<g>
						<g>
							<path style="fill:#778691;" d="M102.271,397.006c0.002,0,0.006,0,0.008,0c0.591,0.002,14.572,0.143,22.801,9.551
								c4.737,5.414,6.547,12.646,5.381,21.494c-0.213,1.621-1.597,2.801-3.188,2.801c-0.142,0-0.282-0.01-0.426-0.029
								c-1.762-0.232-3.002-1.848-2.771-3.609l-1.189,0.424c-0.179,0.065-0.361,0.094-0.54,0.094c-0.664,0-1.283-0.41-1.519-1.07
								c-0.298-0.838,0.138-1.76,0.977-2.057l2.543-0.906c0.117-5.291-1.252-9.611-4.093-12.873
								c-6.267-7.197-17.83-7.375-17.998-7.377c-1.775-0.008-3.211-1.453-3.207-3.228
								C99.057,398.441,100.495,397.006,102.271,397.006z"/>
						</g>
					</g>
					<g>
						<g>
							<path style="fill:#BEDB39;" d="M122.347,427.73c-0.664,0-1.283-0.41-1.519-1.07c-0.298-0.838,0.138-1.76,0.977-2.057
								l2.543-0.906c0.006-0.244-0.009-0.477-0.009-0.717l6.443,1.02c-0.036,1.313-0.139,2.658-0.321,4.051
								c-0.213,1.621-1.597,2.801-3.188,2.801c-0.142,0-0.282-0.01-0.426-0.029c-1.762-0.232-3.002-1.848-2.771-3.609l-1.189,0.424
								C122.708,427.701,122.525,427.73,122.347,427.73z"/>
						</g>
					</g>
				</g>
				<g>
					<g>
						<g>
							<path style="fill:#778691;" d="M85.245,397.006c-0.003,0-0.006,0-0.008,0c-0.592,0.002-14.573,0.143-22.801,9.551
								c-4.737,5.414-6.547,12.646-5.381,21.494c0.212,1.621,1.596,2.801,3.188,2.801c0.142,0,0.282-0.01,0.426-0.029
								c1.762-0.232,3.002-1.848,2.771-3.609l1.188,0.424c0.179,0.065,0.361,0.094,0.54,0.094c0.664,0,1.284-0.41,1.52-1.07
								c0.297-0.838-0.139-1.76-0.977-2.057l-2.544-0.906c-0.116-5.291,1.252-9.611,4.093-12.873
								c6.268-7.197,17.83-7.375,17.998-7.377c1.776-0.008,3.211-1.453,3.208-3.228C88.46,398.441,87.021,397.006,85.245,397.006z"
								/>
						</g>
					</g>
					<g>
						<g>
							<path style="fill:#BEDB39;" d="M65.169,427.73c0.664,0,1.284-0.41,1.52-1.07c0.297-0.838-0.139-1.76-0.977-2.057
								l-2.544-0.906c-0.005-0.244,0.009-0.477,0.009-0.717L56.734,424c0.036,1.313,0.139,2.658,0.321,4.051
								c0.212,1.621,1.596,2.801,3.188,2.801c0.142,0,0.282-0.01,0.426-0.029c1.762-0.232,3.002-1.848,2.771-3.609l1.188,0.424
								C64.808,427.701,64.99,427.73,65.169,427.73z"/>
						</g>
					</g>
				</g>
			</g>
			<g>
				<g>
					<polygon style="fill:#97A2AB;" points="113.518,441.15 106.006,390.395 81.508,390.395 73.996,441.15 60.604,449.842 
						83.794,449.842 86.735,438.346 100.78,438.346 103.719,449.842 126.913,449.842 					"/>
				</g>
				<polygon style="fill:#778691;" points="73.996,441.15 60.604,449.842 83.794,449.842 86.735,438.346 100.78,438.346 
					103.719,449.842 126.913,449.842 113.518,441.15 111.263,425.916 76.251,425.916 				"/>
				<g>
					<g>
						<polygon style="fill:#011826;" points="103.719,449.842 126.913,449.842 113.518,441.15 113.49,440.949 101.446,440.949 
													"/>
					</g>
					<g>
						<polygon style="fill:#011826;" points="86.07,440.949 74.025,440.949 73.996,441.15 60.604,449.842 83.794,449.842 						"/>
					</g>
				</g>
			</g>
			<path style="fill:#68757F;" d="M113.282,399.265c0,3.794-8.741,6.869-19.524,6.869s-19.524-3.075-19.524-6.869
				c0-3.795,8.741-6.87,19.524-6.87S113.282,395.47,113.282,399.265z"/>
			<path style="fill:#778691;" d="M115.103,394.83c0,4.147-9.556,7.51-21.345,7.51s-21.345-3.362-21.345-7.51
				c0-4.148,9.556-7.511,21.345-7.511S115.103,390.682,115.103,394.83z"/>
			<g>
				<g>
					<path style="fill:#BEDB39;" d="M145.379,348.703c0,26.074-23.109,47.209-51.62,47.209c-28.51,0-51.621-21.135-51.621-47.209
						c0-26.072,23.111-47.209,51.621-47.209C122.269,301.494,145.379,322.631,145.379,348.703z"/>
				</g>
			</g>
			<g>
				<path style="fill:#9AB22E;" d="M101.613,353.529c0,2.664-3.517,4.824-7.854,4.824c-4.339,0-7.854-2.16-7.854-4.824
					c0-2.666,3.516-4.826,7.854-4.826C98.096,348.703,101.613,350.863,101.613,353.529z"/>
			</g>
			<g>
				<path style="fill:#011826;" d="M93.758,373.67c-6.632,0-12.026-5.396-12.026-12.027c0-0.711,0.578-1.287,1.288-1.287
					c0.712,0,1.288,0.576,1.288,1.287c0,5.211,4.239,9.449,9.45,9.449c5.21,0,9.449-4.238,9.449-9.449
					c0-0.711,0.578-1.287,1.289-1.287c0.712,0,1.288,0.576,1.288,1.287C105.785,368.273,100.39,373.67,93.758,373.67L93.758,373.67z
					"/>
			</g>
			<g>
				<polygon style="fill:#68757F;" points="103.719,449.842 126.913,449.842 124.339,448.172 103.292,448.172 				"/>
				<polygon style="fill:#68757F;" points="84.222,448.172 63.176,448.172 60.604,449.842 83.794,449.842 				"/>
			</g>
			<g>
				<path style="fill:#011826;" d="M62.537,330.825c-1.513,5.683-0.058,11.992,4.4,16.45c4.458,4.458,10.769,5.914,16.451,4.401
					c1.514-5.684,0.058-11.994-4.4-16.452C74.53,330.767,68.22,329.311,62.537,330.825z"/>
				<path style="fill:#011826;" d="M124.979,330.825c-5.683-1.514-11.993-0.059-16.451,4.399c-4.457,4.458-5.913,10.769-4.4,16.452
					c5.682,1.513,11.993,0.057,16.451-4.401C125.037,342.817,126.492,336.508,124.979,330.825z"/>
			</g>
			<g>
				<path style="fill:#68757F;" d="M95.661,409.097c0,1.051-0.852,1.902-1.902,1.902c-1.051,0-1.902-0.852-1.902-1.902
					c0-1.051,0.851-1.902,1.902-1.902C94.809,407.194,95.661,408.046,95.661,409.097z"/>
				<path style="fill:#68757F;" d="M95.661,415.785c0,1.051-0.852,1.902-1.902,1.902c-1.051,0-1.902-0.852-1.902-1.902
					c0-1.05,0.851-1.902,1.902-1.902C94.809,413.883,95.661,414.735,95.661,415.785z"/>
				<path style="fill:#68757F;" d="M95.661,422.474c0,1.051-0.852,1.903-1.902,1.903c-1.051,0-1.902-0.853-1.902-1.903
					c0-1.05,0.851-1.901,1.902-1.901C94.809,420.572,95.661,421.424,95.661,422.474z"/>
			</g>
			<polygon style="fill:#011826;" points="75.881,428.423 111.636,428.423 111.265,425.916 76.252,425.916 			"/>
			<path style="opacity:0.2;fill:#F1F1F1;" d="M150.884,338.785c0,31.551-25.576,57.127-57.126,57.127
				c-31.55,0-57.126-25.576-57.126-57.127c0-31.55,25.576-57.126,57.126-57.126C125.308,281.659,150.884,307.235,150.884,338.785z"
				/>
		</g>
	</g>
	<g>
		<g>
			<ellipse style="fill:#2B2B44;" cx="93.758" cy="243.792" rx="55.546" ry="6.683"/>
		</g>
		<g>
			<g>
				<g>
					<g>
						<g>
							<path style="fill:#5F6548;" d="M102.271,187.719c0.002,0,0.006,0,0.008,0c0.591,0.001,14.573,0.143,22.801,9.55
								c4.737,5.415,6.547,12.647,5.381,21.494c-0.212,1.621-1.596,2.801-3.188,2.801c-0.142,0-0.282-0.009-0.426-0.028
								c-1.762-0.232-3.002-1.848-2.771-3.61l-1.189,0.424c-0.179,0.064-0.361,0.094-0.54,0.094c-0.664,0-1.284-0.411-1.519-1.071
								c-0.297-0.837,0.138-1.759,0.977-2.057l2.543-0.906c0.117-5.29-1.252-9.611-4.093-12.873
								c-6.267-7.197-17.83-7.375-17.998-7.376c-1.776-0.008-3.211-1.453-3.207-3.229
								C99.057,189.155,100.496,187.719,102.271,187.719z"/>
						</g>
					</g>
					<g>
						<g>
							<path style="fill:#D88521;" d="M122.347,218.443c-0.664,0-1.284-0.411-1.519-1.071c-0.297-0.837,0.138-1.759,0.977-2.057
								l2.543-0.906c0.005-0.244-0.009-0.477-0.009-0.716l6.443,1.02c-0.036,1.311-0.139,2.659-0.321,4.05
								c-0.212,1.621-1.596,2.801-3.188,2.801c-0.142,0-0.282-0.009-0.426-0.028c-1.762-0.232-3.002-1.848-2.771-3.61l-1.189,0.424
								C122.708,218.413,122.526,218.443,122.347,218.443z"/>
						</g>
					</g>
				</g>
				<g>
					<g>
						<g>
							<path style="fill:#5F6548;" d="M85.245,187.719c-0.002,0-0.006,0-0.008,0c-0.591,0.001-14.573,0.143-22.801,9.55
								c-4.737,5.415-6.547,12.647-5.381,21.494c0.212,1.621,1.596,2.801,3.188,2.801c0.142,0,0.282-0.009,0.426-0.028
								c1.762-0.232,3.002-1.848,2.771-3.61l1.189,0.424c0.179,0.064,0.361,0.094,0.54,0.094c0.664,0,1.284-0.411,1.519-1.071
								c0.297-0.837-0.138-1.759-0.977-2.057l-2.543-0.906c-0.117-5.29,1.252-9.611,4.093-12.873
								c6.267-7.197,17.83-7.375,17.998-7.376c1.776-0.008,3.211-1.453,3.207-3.229C88.46,189.155,87.021,187.719,85.245,187.719z"
								/>
						</g>
					</g>
					<g>
						<g>
							<path style="fill:#D88521;" d="M65.169,218.443c0.664,0,1.284-0.411,1.519-1.071c0.297-0.837-0.138-1.759-0.977-2.057
								l-2.543-0.906c-0.005-0.244,0.009-0.477,0.009-0.716l-6.443,1.02c0.036,1.311,0.139,2.659,0.321,4.05
								c0.212,1.621,1.596,2.801,3.188,2.801c0.142,0,0.282-0.009,0.426-0.028c1.762-0.232,3.002-1.848,2.771-3.61l1.189,0.424
								C64.808,218.413,64.991,218.443,65.169,218.443z"/>
						</g>
					</g>
				</g>
			</g>
			<g>
				<polygon style="fill:#8A9369;" points="113.518,232.863 106.604,186.151 106.603,186.151 80.914,186.151 80.909,186.157 
					73.996,232.863 60.604,241.555 83.794,241.555 86.734,230.059 100.78,230.059 103.719,241.555 126.913,241.555 				"/>
				<polygon style="fill:#FF213D;" points="73.996,232.863 60.604,241.555 83.794,241.555 86.734,230.059 100.78,230.059 
					103.719,241.555 126.913,241.555 113.518,232.863 111.431,218.763 76.082,218.763 				"/>
				<g>
					<g>
						<polygon style="fill:#1A1A1A;" points="103.719,241.555 126.913,241.555 113.518,232.863 113.49,232.662 101.445,232.662 
													"/>
					</g>
					<g>
						<polygon style="fill:#1A1A1A;" points="86.069,232.662 74.025,232.662 73.996,232.863 60.604,241.555 83.794,241.555 						
							"/>
					</g>
				</g>
			</g>
			<path style="fill:#F1F1F1;" d="M99.357,177.333c-2.171,0-4.139,0.855-5.599,2.24c-1.46-1.385-3.427-2.24-5.599-2.24
				c-4.498,0-8.144,3.646-8.144,8.144c0,4.497,3.646,8.144,8.144,8.144c2.171,0,4.139-0.855,5.599-2.24
				c1.459,1.385,3.427,2.24,5.599,2.24c4.498,0,8.144-3.646,8.144-8.144C107.501,180.979,103.855,177.333,99.357,177.333z"/>
			<g>
				<polygon style="fill:#D88521;" points="103.719,241.555 126.913,241.555 124.339,239.885 103.292,239.885 				"/>
				<polygon style="fill:#D88521;" points="84.222,239.885 63.176,239.885 60.604,241.555 83.794,241.555 				"/>
			</g>
			<polygon style="fill:#1A1A1A;" points="75.893,220.041 111.62,220.041 110.906,215.216 76.607,215.216 			"/>
			<g>
				<ellipse style="fill:#D88521;" cx="93.758" cy="140.445" rx="55.198" ry="47.378"/>
				<path style="fill:#D35C19;" d="M105.503,94.146c-3.785-0.704-7.714-1.079-11.745-1.079c-2.678,0-5.309,0.168-7.885,0.483
					c-20.415,4.609-35.784,23.872-35.784,46.895c0,23.023,15.369,42.286,35.784,46.895c2.576,0.316,5.208,0.483,7.885,0.483
					c4.031,0,7.96-0.373,11.745-1.079c19.242-5.5,33.45-24.162,33.45-46.299S124.745,99.648,105.503,94.146z M51.186,140.445
					c0-22.331,14.827-41.048,34.583-45.678c-12.556,6.204-21.671,24.331-21.671,45.678c0,21.347,9.115,39.475,21.671,45.678
					C66.013,181.493,51.186,162.777,51.186,140.445z M65.194,140.445c0-23.535,11.236-43.058,25.803-46.304
					c-6.882,5.461-11.813,23.846-11.813,46.304c0,22.458,4.932,40.843,11.813,46.304C76.43,183.504,65.194,163.981,65.194,140.445z
					 M80.281,140.445c0-24.999,6.32-45.483,14.241-46.726c7.92,1.243,14.241,21.726,14.241,46.726
					c0,25.001-6.321,45.483-14.241,46.727C86.601,185.928,80.281,165.446,80.281,140.445z M109.858,140.445
					c0-22.458-4.931-40.843-11.813-46.304c14.567,3.246,25.803,22.769,25.803,46.304c0,23.536-11.236,43.059-25.803,46.304
					C104.927,181.288,109.858,162.904,109.858,140.445z M103.274,186.123c12.556-6.203,21.671-24.331,21.671-45.678
					c0-21.347-9.115-39.474-21.671-45.678c19.756,4.63,34.583,23.346,34.583,45.678C137.857,162.777,123.03,181.493,103.274,186.123
					z"/>
				<g>
					<path style="fill:#8D8C45;" d="M73.29,96.434c-0.212,0.502-0.33,1.019-0.33,1.547c0,4.837,9.312,8.758,20.797,8.758
						s20.797-3.921,20.797-8.758c0-0.528-0.117-1.045-0.33-1.547c-6.33-2.17-13.235-3.366-20.467-3.366
						C86.526,93.067,79.621,94.263,73.29,96.434z"/>
					<g>
						<path style="fill:#8D8C45;" d="M91.202,97.169c-0.237-2.537-1.967-24.828,10.02-26.388l0.802,7.167
							c-4.094,0.533-4.731,12.313-4.163,18.501L91.202,97.169L91.202,97.169z"/>
					</g>
				</g>
			</g>
			<g>
				<path style="fill:#1A1A1A;" d="M94.521,165.382c-6.632,0-12.027-5.396-12.027-12.026c0-0.711,0.578-1.288,1.288-1.288
					c0.712,0,1.288,0.577,1.288,1.288c0,5.21,4.24,9.45,9.451,9.45c5.21,0,9.449-4.239,9.449-9.45c0-0.711,0.578-1.288,1.289-1.288
					c0.712,0,1.288,0.577,1.288,1.288C106.547,159.986,101.153,165.382,94.521,165.382L94.521,165.382z"/>
			</g>
			<g>
				<g>
					<g>
						<path style="fill:#1A1A1A;" d="M81.681,137.655c0,2.626-1.106,4.754-2.469,4.754c-1.363,0-2.468-2.129-2.468-4.754
							s1.105-4.754,2.468-4.754C80.575,132.901,81.681,135.03,81.681,137.655z"/>
					</g>
					<g>
						<path style="fill:#1A1A1A;" d="M112.299,137.655c0,2.626-1.106,4.754-2.468,4.754c-1.363,0-2.468-2.129-2.468-4.754
							s1.105-4.754,2.468-4.754C111.193,132.901,112.299,135.03,112.299,137.655z"/>
					</g>
				</g>
			</g>
			<polygon style="fill:#1A1A1A;" points="98.627,152.067 90.415,152.067 94.521,144.319 			"/>
			<path style="fill:#F1F1F1;" d="M95.706,196.765c0,1.075-0.872,1.947-1.948,1.947c-1.075,0-1.947-0.872-1.947-1.947
				c0-1.076,0.872-1.947,1.947-1.947C94.834,194.817,95.706,195.689,95.706,196.765z"/>
			<path style="fill:#F1F1F1;" d="M95.706,204.255c0,1.075-0.872,1.947-1.948,1.947c-1.075,0-1.947-0.872-1.947-1.947
				c0-1.076,0.872-1.947,1.947-1.947C94.834,202.308,95.706,203.18,95.706,204.255z"/>
			<path style="fill:#F1F1F1;" d="M95.706,211.746c0,1.075-0.872,1.947-1.948,1.947c-1.075,0-1.947-0.872-1.947-1.947
				c0-1.076,0.872-1.947,1.947-1.947C94.834,209.799,95.706,210.67,95.706,211.746z"/>
		</g>
	</g>
	<g>
		<g>
			<path style="fill:#2B2B44;" d="M468.777,243.792c0,3.691-24.869,6.683-55.545,6.683c-30.68,0-55.547-2.992-55.547-6.683
				s24.867-6.683,55.547-6.683C443.908,237.108,468.777,240.101,468.777,243.792z"/>
		</g>
		<g>
			<g>
				<rect x="398.775" y="209.829" style="fill:#3E3E3E;" width="7.867" height="1.781"/>
				<rect x="419.822" y="209.829" style="fill:#3E3E3E;" width="7.865" height="1.781"/>
			</g>
			<g>
				<g>
					<g>
						<g>
							<path style="fill:#754C24;" d="M421.744,187.719c0.002,0,0.006,0,0.008,0c0.59,0.001,14.572,0.143,22.801,9.55
								c4.738,5.415,6.547,12.647,5.381,21.494c-0.211,1.621-1.598,2.801-3.19,2.801c-0.141,0-0.279-0.009-0.424-0.028
								c-1.762-0.232-3.004-1.848-2.771-3.61l-1.189,0.424c-0.18,0.064-0.361,0.094-0.541,0.094c-0.664,0-1.281-0.411-1.518-1.071
								c-0.297-0.837,0.139-1.759,0.977-2.057l2.543-0.906c0.117-5.29-1.252-9.611-4.092-12.873
								c-6.268-7.197-17.83-7.375-17.998-7.376c-1.777-0.008-3.211-1.453-3.207-3.229
								C418.529,189.155,419.969,187.719,421.744,187.719z"/>
						</g>
					</g>
					<g>
						<g>
							<path style="fill:#ECDFAC;" d="M441.818,218.443c-0.664,0-1.281-0.411-1.518-1.071c-0.297-0.837,0.139-1.759,0.977-2.057
								l2.543-0.906c0.006-0.244-0.008-0.477-0.008-0.716l6.443,1.02c-0.037,1.311-0.141,2.659-0.322,4.05
								c-0.211,1.621-1.598,2.801-3.19,2.801c-0.141,0-0.279-0.009-0.424-0.028c-1.762-0.232-3.004-1.848-2.771-3.61l-1.189,0.424
								C442.18,218.413,441.998,218.443,441.818,218.443z"/>
						</g>
					</g>
				</g>
				<g>
					<g>
						<g>
							<path style="fill:#754C24;" d="M404.717,187.719c-0.002,0-0.004,0-0.006,0c-0.594,0.001-14.572,0.143-22.803,9.55
								c-4.736,5.415-6.545,12.647-5.381,21.494c0.215,1.621,1.596,2.801,3.19,2.801c0.141,0,0.281-0.009,0.426-0.028
								c1.762-0.232,3-1.848,2.77-3.61l1.19,0.424c0.178,0.064,0.361,0.094,0.541,0.094c0.664,0,1.283-0.411,1.52-1.071
								c0.295-0.837-0.141-1.759-0.978-2.057l-2.543-0.906c-0.115-5.29,1.252-9.611,4.094-12.873
								c6.268-7.197,17.83-7.375,17.998-7.376c1.775-0.008,3.209-1.453,3.207-3.229
								C407.934,189.155,406.494,187.719,404.717,187.719z"/>
						</g>
					</g>
					<g>
						<g>
							<path style="fill:#ECDFAC;" d="M384.643,218.443c0.664,0,1.283-0.411,1.52-1.071c0.295-0.837-0.141-1.759-0.978-2.057
								l-2.543-0.906c-0.004-0.244,0.008-0.477,0.008-0.716l-6.441,1.02c0.035,1.311,0.139,2.659,0.32,4.05
								c0.215,1.621,1.596,2.801,3.19,2.801c0.141,0,0.281-0.009,0.426-0.028c1.762-0.232,3-1.848,2.77-3.61l1.19,0.424
								C384.279,218.413,384.463,218.443,384.643,218.443z"/>
						</g>
					</g>
				</g>
			</g>
			<g>
				<g>
					<polygon style="fill:#049DBF;" points="432.99,232.863 425.478,182.107 400.98,182.107 393.467,232.863 380.078,241.555 
						403.268,241.555 406.207,230.059 420.252,230.059 423.191,241.555 446.385,241.555 					"/>
				</g>
				<polygon style="fill:#754C24;" points="393.467,232.863 388.396,236.156 404.646,236.156 406.207,230.059 420.252,230.059 
					421.81,236.156 438.064,236.156 432.99,232.863 429.877,211.831 396.582,211.831 				"/>
				<polygon style="fill:#361B09;" points="396.305,213.693 430.154,213.693 429.713,210.72 396.744,210.72 				"/>
				<g>
					<polygon style="fill:#8C6239;" points="409.473,216.148 409.473,183.629 409.473,182.107 400.98,182.107 395.941,216.148 					
						"/>
					<polygon style="fill:#8C6239;" points="425.478,182.107 416.988,182.107 416.988,216.148 430.518,216.148 					"/>
				</g>
				<g>
					<g>
						<polygon style="fill:#361B09;" points="423.191,241.555 446.385,241.555 432.99,232.863 432.963,232.662 420.918,232.662 
													"/>
					</g>
					<g>
						<polygon style="fill:#361B09;" points="405.543,232.662 393.498,232.662 393.467,232.863 380.078,241.555 403.268,241.555 
													"/>
					</g>
				</g>
			</g>
			<path style="fill:#F1F1F1;" d="M413.232,93.207c-28.512,0-51.623,21.135-51.623,47.209v55.711l10.324,6l10.322-6l10.322,6
				l10.32-6l10.32,6l10.322-6l10.326,6l10.324-6l10.33,6l10.33-6v-55.711C464.852,114.343,441.74,93.207,413.232,93.207z"/>
			<path style="fill:#361B09;" d="M404.713,144.345c0,3.751-3.041,6.792-6.793,6.792c-3.75,0-6.791-3.041-6.791-6.792
				s3.041-6.792,6.791-6.792C401.672,137.553,404.713,140.594,404.713,144.345z"/>
			<path style="fill:#361B09;" d="M435.332,144.345c0,3.751-3.041,6.792-6.793,6.792c-3.75,0-6.791-3.041-6.791-6.792
				s3.041-6.792,6.791-6.792C432.291,137.553,435.332,140.594,435.332,144.345z"/>
			<g>
				<path style="fill:#D8816C;" d="M419.463,152.928c0,2.114-2.791,3.828-6.23,3.828c-3.445,0-6.232-1.714-6.232-3.828
					c0-2.114,2.787-3.829,6.232-3.829C416.672,149.099,419.463,150.814,419.463,152.928z"/>
			</g>
			<g>
				<path style="fill:#361B09;" d="M413.232,172.071c-6.635,0-12.027-5.396-12.027-12.026c0-0.711,0.576-1.288,1.287-1.288
					s1.289,0.577,1.289,1.288c0,5.21,4.238,9.45,9.451,9.45c5.207,0,9.447-4.239,9.447-9.45c0-0.711,0.578-1.288,1.289-1.288
					c0.713,0,1.287,0.577,1.287,1.288C425.256,166.676,419.861,172.071,413.232,172.071L413.232,172.071z"/>
			</g>
			<g>
				<polygon style="fill:#C69C6D;" points="423.191,241.555 446.385,241.555 443.813,239.885 422.766,239.885 				"/>
				<polygon style="fill:#C69C6D;" points="403.693,239.885 382.648,239.885 380.078,241.555 403.268,241.555 				"/>
			</g>
			<path style="fill:#A5BE31;" d="M401.371,144.345c0,1.905-1.545,3.45-3.451,3.45c-1.904,0-3.449-1.544-3.449-3.45
				s1.545-3.45,3.449-3.45C399.826,140.895,401.371,142.44,401.371,144.345z"/>
			<circle style="fill:#A5BE31;" cx="428.541" cy="144.345" r="3.449"/>
		</g>
	</g>
	<g>
		<g>
			<path style="fill:#B06958;" d="M362.473,347.714c-3.543-3.544-8.558-4.701-13.075-3.498c-1.203,4.518-0.046,9.533,3.497,13.076
				c3.543,3.543,8.558,4.7,13.075,3.497C367.174,356.272,366.016,351.257,362.473,347.714z"/>
			<path style="fill:#B06958;" d="M352.895,361.719c-3.543,3.543-4.7,8.558-3.497,13.076c4.517,1.203,9.532,0.045,13.075-3.498
				c3.543-3.543,4.701-8.558,3.497-13.075C361.453,357.019,356.438,358.176,352.895,361.719z"/>
		</g>
		<g>
			<g>
				<g>
					<g>
						<path style="fill:#2B2B44;" d="M468.777,450.604c0,3.69-24.871,6.683-55.547,6.683c-30.678,0-55.547-2.992-55.547-6.683
							c0-3.691,24.869-6.684,55.547-6.684C443.906,443.921,468.777,446.913,468.777,450.604z"/>
					</g>
				</g>
			</g>
			<g>
				<g>
					<g>
						<g>
							<g>
								<g>
									<path style="fill:#FED09B;" d="M404.717,394.531c-0.002,0-0.006,0-0.008,0c-0.592,0.001-14.572,0.143-22.801,9.55
										c-4.736,5.415-6.547,12.647-5.381,21.494c0.213,1.621,1.596,2.801,3.19,2.801c0.141,0,0.281-0.01,0.424-0.028
										c1.762-0.231,3.002-1.848,2.771-3.61l1.19,0.425c0.178,0.063,0.361,0.094,0.539,0.094c0.666,0,1.285-0.411,1.52-1.071
										c0.297-0.836-0.139-1.758-0.977-2.057l-2.543-0.906c-0.117-5.29,1.252-9.611,4.092-12.873
										c6.268-7.196,17.832-7.375,17.998-7.376c1.777-0.009,3.211-1.452,3.209-3.229
										C407.932,395.968,406.492,394.531,404.717,394.531z"/>
								</g>
							</g>
						</g>
					</g>
					<path style="fill:#FFFFFF;" d="M404.717,394.531c-0.002,0-0.006,0-0.008,0c-0.592,0.001-14.572,0.143-22.801,9.55
						c-1.525,1.745-2.744,3.683-3.662,5.8l5.256,4.429c0.68-2.265,1.75-4.26,3.23-5.961c6.268-7.196,17.832-7.375,17.998-7.376
						c1.777-0.009,3.211-1.452,3.209-3.229C407.932,395.968,406.492,394.531,404.717,394.531z"/>
					<g>
						<path style="fill:#B06958;" d="M383.799,402.171l4.563,4.561c0.695-0.604,1.43-1.147,2.188-1.633l-4.637-4.636
							C385.188,400.985,384.48,401.554,383.799,402.171z"/>
						<path style="fill:#B06958;" d="M379.824,406.885l4.748,4.749c0.416-0.838,0.898-1.628,1.449-2.369l-4.592-4.592
							C380.852,405.383,380.307,406.115,379.824,406.885z"/>
						<path style="fill:#B06958;" d="M395.092,396.084l5.355,5.356c1.443-0.256,2.639-0.373,3.395-0.426l-5.697-5.698
							C397.184,395.517,396.158,395.769,395.092,396.084z"/>
						<path style="fill:#D8816C;" d="M404.717,394.531c-0.002,0-0.006,0-0.008,0c-0.137,0-1,0.01-2.34,0.139l4.957,4.957
							c0.383-0.531,0.615-1.178,0.613-1.883c-0.004-0.881-0.361-1.677-0.934-2.256l-0.031-0.029
							C406.395,394.886,405.598,394.531,404.717,394.531z"/>
						<path style="fill:#B06958;" d="M388.912,398.594l4.82,4.821c0.939-0.407,1.879-0.746,2.791-1.029l-5.023-5.023
							C390.639,397.725,389.771,398.132,388.912,398.594z"/>
					</g>
				</g>
				<g>
					<g>
						<g>
							<g>
								<g>
									<path style="fill:#FED09B;" d="M421.744,394.531c0.002,0,0.006,0,0.008,0c0.592,0.001,14.572,0.143,22.801,9.55
										c4.736,5.415,6.547,12.647,5.381,21.494c-0.213,1.621-1.596,2.801-3.19,2.801c-0.141,0-0.281-0.01-0.424-0.028
										c-1.762-0.231-3.002-1.848-2.771-3.61l-1.189,0.425c-0.178,0.063-0.361,0.094-0.539,0.094c-0.666,0-1.285-0.411-1.52-1.071
										c-0.297-0.836,0.139-1.758,0.977-2.057l2.543-0.906c0.117-5.29-1.252-9.611-4.092-12.873
										c-6.268-7.196-17.832-7.375-17.998-7.376c-1.777-0.009-3.211-1.452-3.209-3.229
										C418.529,395.968,419.969,394.531,421.744,394.531z"/>
								</g>
							</g>
						</g>
					</g>
					<path style="fill:#FFFFFF;" d="M421.744,394.531c0.002,0,0.006,0,0.008,0c0.592,0.001,14.572,0.143,22.801,9.55
						c1.527,1.745,2.746,3.683,3.662,5.8l-5.256,4.429c-0.678-2.265-1.75-4.26-3.231-5.961c-6.268-7.196-17.832-7.375-17.998-7.376
						c-1.777-0.009-3.211-1.452-3.209-3.229C418.529,395.968,419.969,394.531,421.744,394.531z"/>
					<g>
						<path style="fill:#B06958;" d="M442.662,402.171l-4.56,4.561c-0.697-0.604-1.43-1.147-2.188-1.633l4.635-4.636
							C441.273,400.985,441.98,401.554,442.662,402.171z"/>
						<path style="fill:#B06958;" d="M446.639,406.885l-4.75,4.749c-0.414-0.838-0.897-1.628-1.449-2.369l4.592-4.592
							C445.611,405.383,446.154,406.115,446.639,406.885z"/>
						<path style="fill:#B06958;" d="M431.371,396.084l-5.357,5.356c-1.443-0.256-2.637-0.373-3.395-0.426l5.699-5.698
							C429.279,395.517,430.305,395.769,431.371,396.084z"/>
						<path style="fill:#D8816C;" d="M421.744,394.531c0.002,0,0.006,0,0.008,0c0.139,0,1.002,0.01,2.342,0.139l-4.957,4.957
							c-0.383-0.531-0.615-1.178-0.615-1.883c0.004-0.881,0.361-1.677,0.936-2.256l0.029-0.029
							C420.068,394.886,420.865,394.531,421.744,394.531z"/>
						<path style="fill:#B06958;" d="M437.551,398.594l-4.822,4.821c-0.939-0.407-1.877-0.746-2.789-1.029l5.023-5.023
							C435.824,397.725,436.689,398.132,437.551,398.594z"/>
					</g>
				</g>
			</g>
			<g>
				<g>
					<g>
						<polygon style="fill:#051A37;" points="432.99,439.675 425.478,388.919 400.98,388.919 393.467,439.675 380.076,448.368 
							403.266,448.368 406.207,436.871 420.252,436.871 423.189,448.368 446.385,448.368 						"/>
					</g>
				</g>
			</g>
			<polygon style="fill:#FFFFFF;" points="431.102,426.895 425.48,388.919 400.982,388.919 395.361,426.895 			"/>
			<g>
				<g>
					<g>
						<ellipse style="fill:#FED09B;" cx="413.23" cy="348.703" rx="51.621" ry="47.209"/>
					</g>
				</g>
			</g>
			<path style="fill:#D8816C;" d="M413.23,321.56c24.746,0,45.412,15.925,50.441,37.177c0.766-3.235,1.18-6.589,1.18-10.033
				c0-26.073-23.109-47.209-51.621-47.209c-28.51,0-51.621,21.136-51.621,47.209c0,3.444,0.414,6.798,1.18,10.033
				C367.818,337.484,388.486,321.56,413.23,321.56z"/>
			<g>
				<g>
					<g>
						<path style="fill:#051A37;" d="M400.391,347.095c0,2.626-1.105,4.755-2.469,4.755c-1.363,0-2.469-2.129-2.469-4.755
							c0-2.626,1.105-4.755,2.469-4.755C399.285,342.34,400.391,344.469,400.391,347.095z"/>
					</g>
					<g>
						<path style="fill:#051A37;" d="M431.01,347.095c0,2.626-1.105,4.755-2.469,4.755c-1.363,0-2.469-2.129-2.469-4.755
							c0-2.626,1.105-4.755,2.469-4.755C429.904,342.34,431.01,344.469,431.01,347.095z"/>
					</g>
				</g>
				<g>
					<path style="fill:#051A37;" d="M413.232,375.426c-6.633,0-12.027-5.396-12.027-12.026c0-0.711,0.578-1.288,1.287-1.288
						c0.713,0,1.289,0.577,1.289,1.288c0,5.21,4.238,9.45,9.451,9.45c5.209,0,9.447-4.24,9.447-9.45
						c0-0.711,0.578-1.288,1.289-1.288c0.713,0,1.289,0.577,1.289,1.288C425.258,370.03,419.863,375.426,413.232,375.426
						L413.232,375.426z"/>
				</g>
				<g>
					<path style="fill:#D8816C;" d="M421.086,354.681c0,2.665-3.516,4.825-7.853,4.825s-7.855-2.16-7.855-4.825
						c0-2.665,3.517-4.825,7.855-4.825S421.086,352.016,421.086,354.681z"/>
				</g>
			</g>
			<g>
				<g>
					<polygon style="fill:#923702;" points="423.189,448.368 446.385,448.368 432.99,439.675 432.576,436.871 420.252,436.871 					
						"/>
					<polygon style="fill:#923702;" points="406.207,436.871 393.883,436.871 393.467,439.675 380.076,448.368 403.266,448.368 
											"/>
				</g>
			</g>
			<g>
				<g>
					<path style="fill:#B04B1F;" d="M407.398,437.94c0,0.589-0.5,1.067-1.113,1.067h-13.109c-0.615,0-1.113-0.479-1.113-1.067l0,0
						c0-0.59,0.498-1.068,1.113-1.068h13.109C406.898,436.871,407.398,437.35,407.398,437.94L407.398,437.94z"/>
					<path style="fill:#B04B1F;" d="M434.4,437.94c0,0.589-0.5,1.067-1.113,1.067h-13.109c-0.615,0-1.113-0.479-1.113-1.067l0,0
						c0-0.59,0.498-1.068,1.113-1.068h13.109C433.9,436.871,434.4,437.35,434.4,437.94L434.4,437.94z"/>
				</g>
			</g>
			<g>
				<polygon style="fill:#D8816C;" points="428.918,412.154 428.52,409.453 397.941,409.453 397.543,412.154 				"/>
				<polygon style="fill:#D8816C;" points="428.01,406.01 427.609,403.309 398.852,403.309 398.451,406.01 				"/>
				<polygon style="fill:#D8816C;" points="399.361,399.864 427.1,399.864 426.701,397.164 399.762,397.164 				"/>
				<polygon style="fill:#D8816C;" points="429.828,418.299 429.428,415.598 397.033,415.598 396.633,418.299 				"/>
				<polygon style="fill:#D8816C;" points="430.738,424.443 430.338,421.743 396.123,421.743 395.723,424.443 				"/>
			</g>
			<path style="fill:#051A37;" d="M432.137,337.896c3.791-0.087,6.961,3.96,7.078,9.04c0.117,5.081-2.861,9.27-6.652,9.358
				c-3.791,0.088-13.824-3.802-13.943-8.882C418.504,342.331,428.346,337.983,432.137,337.896z"/>
			<path style="fill:#051A37;" d="M461.129,366.307c-33.494-14.629-49.748-49.907-55.166-64.338
				c-1.029,0.133-2.051,0.285-3.061,0.472c2.207,6.043,6.377,15.983,13.113,26.725c8.523,13.588,22.693,30.585,43.824,39.849
				C460.301,368.128,460.727,367.223,461.129,366.307z"/>
		</g>
	</g>
</g>
<g id="DESIGNED_BY_FREEPIK">
	<g>
		<path style="fill:#F1F1F1;" d="M178.621,476.195c-0.258,0-0.449,0.086-0.593,0.258c-0.133,0.182-0.199,0.44-0.199,0.783v2.483
			c-0.315-0.343-0.641-0.602-0.975-0.773c-0.335-0.163-0.736-0.248-1.223-0.248c-0.831,0-1.509,0.295-2.025,0.878
			c-0.506,0.593-0.764,1.404-0.764,2.455c0,0.496,0.067,0.955,0.191,1.384c0.134,0.43,0.315,0.803,0.572,1.117
			c0.249,0.315,0.545,0.554,0.89,0.727c0.333,0.172,0.706,0.258,1.107,0.258c0.305,0,0.592-0.048,0.84-0.134
			c0.258-0.076,0.497-0.2,0.716-0.362c0.22-0.162,0.44-0.373,0.67-0.631v0.162c0,0.307,0.075,0.545,0.219,0.717
			c0.152,0.162,0.345,0.248,0.573,0.248c0.23,0,0.42-0.086,0.573-0.239c0.143-0.162,0.219-0.4,0.219-0.726v-7.401
			c0-0.315-0.065-0.554-0.209-0.716C179.069,476.272,178.879,476.195,178.621,476.195z M177.514,483.282
			c-0.144,0.315-0.335,0.554-0.583,0.706c-0.238,0.153-0.516,0.229-0.803,0.229c-0.296,0-0.563-0.086-0.812-0.249
			c-0.248-0.162-0.439-0.4-0.582-0.716c-0.134-0.324-0.211-0.706-0.211-1.165c0-0.43,0.067-0.811,0.201-1.137
			c0.133-0.324,0.325-0.572,0.564-0.744c0.239-0.173,0.515-0.267,0.821-0.267c0.296,0,0.572,0.086,0.821,0.257
			c0.248,0.173,0.439,0.421,0.583,0.736c0.152,0.324,0.219,0.707,0.219,1.155C177.732,482.565,177.666,482.957,177.514,483.282z"/>
		<path style="fill:#F1F1F1;" d="M186.252,482.327c0.238-0.124,0.362-0.401,0.362-0.822c0-0.458-0.124-0.898-0.354-1.336
			c-0.229-0.439-0.583-0.803-1.061-1.079c-0.467-0.277-1.031-0.411-1.681-0.411c-0.505,0-0.964,0.076-1.374,0.238
			c-0.421,0.162-0.765,0.401-1.051,0.697c-0.277,0.307-0.497,0.669-0.64,1.098c-0.152,0.421-0.229,0.88-0.229,1.376
			c0,1.05,0.306,1.892,0.897,2.502c0.602,0.611,1.441,0.927,2.521,0.927c0.468,0,0.889-0.067,1.251-0.191
			c0.363-0.124,0.659-0.277,0.898-0.458c0.238-0.191,0.419-0.382,0.544-0.583c0.114-0.21,0.172-0.381,0.172-0.534
			c0-0.173-0.048-0.306-0.152-0.401c-0.115-0.096-0.248-0.143-0.421-0.143c-0.162,0-0.286,0.038-0.372,0.115
			c-0.211,0.19-0.383,0.353-0.507,0.468c-0.133,0.115-0.276,0.22-0.43,0.324c-0.162,0.096-0.315,0.172-0.487,0.22
			c-0.162,0.049-0.343,0.067-0.544,0.067c-0.307,0-0.573-0.077-0.821-0.22c-0.248-0.144-0.449-0.363-0.602-0.659
			c-0.152-0.286-0.229-0.631-0.229-1.003h3.286C185.669,482.518,186.004,482.451,186.252,482.327z M181.944,481.563
			c0.058-0.563,0.22-0.993,0.487-1.289c0.268-0.287,0.61-0.43,1.031-0.43c0.439,0,0.793,0.142,1.061,0.43
			c0.267,0.287,0.42,0.716,0.468,1.289H181.944z"/>
		<path style="fill:#F1F1F1;" d="M191.867,481.878c-0.324-0.182-0.755-0.335-1.271-0.459c-0.439-0.104-0.783-0.2-1.031-0.268
			c-0.258-0.075-0.449-0.171-0.602-0.286c-0.143-0.104-0.22-0.258-0.22-0.43c0-0.19,0.096-0.352,0.296-0.487
			c0.21-0.124,0.458-0.19,0.764-0.19c0.297,0,0.526,0.048,0.698,0.152c0.171,0.096,0.324,0.229,0.448,0.392
			c0.153,0.191,0.296,0.345,0.411,0.439c0.123,0.096,0.267,0.153,0.438,0.153c0.239,0,0.43-0.067,0.554-0.191
			c0.135-0.124,0.191-0.277,0.191-0.469c0-0.181-0.057-0.362-0.182-0.543c-0.114-0.183-0.296-0.354-0.524-0.507
			c-0.23-0.153-0.517-0.268-0.869-0.362c-0.344-0.086-0.735-0.134-1.166-0.134c-0.554,0-1.031,0.086-1.423,0.267
			c-0.392,0.182-0.688,0.421-0.888,0.717c-0.201,0.296-0.296,0.621-0.296,0.955c0,0.373,0.105,0.697,0.324,0.955
			c0.22,0.258,0.507,0.468,0.869,0.621c0.363,0.152,0.831,0.306,1.413,0.448c0.507,0.124,0.879,0.258,1.099,0.392
			c0.229,0.134,0.334,0.354,0.334,0.64c0,0.201-0.105,0.363-0.315,0.516c-0.219,0.153-0.496,0.229-0.83,0.229
			c-0.411,0-0.745-0.076-0.983-0.22c-0.239-0.153-0.439-0.372-0.621-0.678c-0.076-0.153-0.172-0.277-0.268-0.363
			c-0.096-0.086-0.23-0.124-0.401-0.124c-0.199,0-0.372,0.067-0.496,0.191c-0.134,0.133-0.2,0.296-0.2,0.478
			c0,0.276,0.105,0.554,0.305,0.831c0.211,0.276,0.526,0.505,0.955,0.696c0.431,0.182,0.945,0.277,1.548,0.277
			c0.63,0,1.164-0.086,1.604-0.258c0.448-0.173,0.783-0.421,1.003-0.754c0.229-0.325,0.334-0.727,0.334-1.185
			c0-0.307-0.076-0.583-0.249-0.822C192.45,482.26,192.201,482.05,191.867,481.878z"/>
		<path style="fill:#F1F1F1;" d="M194.589,476.263c-0.229,0-0.42,0.076-0.592,0.239c-0.172,0.151-0.258,0.343-0.258,0.581
			c0,0.269,0.086,0.469,0.249,0.612c0.171,0.143,0.372,0.21,0.601,0.21c0.229,0,0.42-0.067,0.583-0.21
			c0.162-0.153,0.248-0.354,0.248-0.612c0-0.267-0.086-0.468-0.258-0.61C195,476.339,194.809,476.263,194.589,476.263z"/>
		<path style="fill:#F1F1F1;" d="M194.57,478.689c-0.249,0-0.449,0.086-0.602,0.258c-0.153,0.162-0.23,0.41-0.23,0.745v4.803
			c0,0.325,0.076,0.573,0.23,0.755c0.152,0.172,0.352,0.268,0.602,0.268c0.248,0,0.449-0.086,0.611-0.258
			c0.162-0.173,0.238-0.43,0.238-0.765v-4.851c0-0.297-0.076-0.535-0.238-0.697C195.02,478.774,194.818,478.689,194.57,478.689z"/>
		<path style="fill:#F1F1F1;" d="M201.962,478.689c-0.22,0-0.41,0.086-0.554,0.239c-0.144,0.162-0.211,0.391-0.211,0.678v0.229
			c-0.296-0.391-0.62-0.678-0.974-0.859c-0.344-0.182-0.755-0.276-1.232-0.276c-0.4,0-0.764,0.076-1.098,0.219
			c-0.335,0.135-0.621,0.344-0.878,0.631c-0.249,0.276-0.45,0.621-0.583,1.021c-0.144,0.411-0.21,0.859-0.21,1.365
			c0,0.679,0.113,1.271,0.343,1.786c0.221,0.516,0.545,0.917,0.965,1.203c0.42,0.297,0.907,0.44,1.472,0.44
			c0.467,0,0.868-0.095,1.212-0.286c0.334-0.191,0.631-0.468,0.889-0.821c-0.01,0.544-0.02,0.945-0.039,1.193
			c-0.009,0.249-0.065,0.478-0.162,0.697c-0.095,0.221-0.268,0.383-0.506,0.507c-0.239,0.124-0.573,0.181-1.013,0.181
			c-0.209,0-0.4-0.019-0.563-0.057c-0.163-0.038-0.307-0.096-0.421-0.182c-0.114-0.077-0.23-0.172-0.325-0.286
			c-0.095-0.115-0.189-0.229-0.276-0.334c-0.182-0.221-0.401-0.325-0.65-0.325c-0.191,0-0.362,0.066-0.497,0.19
			c-0.143,0.135-0.21,0.297-0.21,0.507c0,0.268,0.124,0.524,0.363,0.783c0.248,0.258,0.603,0.467,1.05,0.631
			c0.459,0.162,0.975,0.238,1.558,0.238c0.631,0,1.155-0.058,1.576-0.191c0.429-0.124,0.773-0.315,1.03-0.583
			c0.268-0.257,0.459-0.592,0.574-0.993c0.113-0.4,0.181-0.878,0.181-1.441v-4.87c0-0.402-0.057-0.707-0.162-0.918
			C202.507,478.793,202.286,478.689,201.962,478.689z M200.901,483.215c-0.151,0.296-0.354,0.525-0.602,0.669
			c-0.248,0.152-0.516,0.229-0.793,0.229c-0.468,0-0.859-0.171-1.155-0.524c-0.296-0.345-0.439-0.86-0.439-1.538
			s0.144-1.194,0.431-1.557c0.286-0.362,0.668-0.554,1.155-0.554c0.486,0,0.888,0.191,1.185,0.572
			c0.306,0.383,0.458,0.917,0.458,1.605C201.141,482.547,201.055,482.909,200.901,483.215z"/>
		<path style="fill:#F1F1F1;" d="M209.584,479.796c-0.173-0.353-0.432-0.62-0.784-0.821c-0.344-0.191-0.745-0.286-1.185-0.286
			c-0.458,0-0.859,0.095-1.212,0.277c-0.096,0.047-0.182,0.105-0.278,0.171c-0.238,0.172-0.468,0.401-0.688,0.688v-0.21
			c0-0.2-0.038-0.373-0.105-0.506c-0.077-0.143-0.172-0.248-0.286-0.315c-0.125-0.066-0.258-0.104-0.401-0.104
			c-0.239,0-0.431,0.075-0.573,0.239c-0.144,0.151-0.21,0.391-0.21,0.716v4.851c0,0.325,0.077,0.573,0.239,0.755
			c0.152,0.172,0.353,0.268,0.591,0.268c0.248,0,0.459-0.086,0.612-0.258c0.162-0.173,0.238-0.43,0.238-0.765v-2.101
			c0-0.688,0.038-1.155,0.124-1.404c0.115-0.315,0.296-0.554,0.535-0.734c0.248-0.183,0.525-0.269,0.821-0.269
			c0.458,0,0.764,0.145,0.917,0.44c0.152,0.297,0.229,0.717,0.229,1.27v2.798c0,0.325,0.086,0.573,0.238,0.755
			c0.153,0.172,0.353,0.268,0.611,0.268c0.238,0,0.439-0.086,0.592-0.258c0.162-0.173,0.239-0.43,0.239-0.765v-3.122
			c0-0.372-0.019-0.679-0.059-0.917C209.765,480.226,209.688,479.996,209.584,479.796z"/>
		<path style="fill:#F1F1F1;" d="M216.67,482.327c0.238-0.124,0.361-0.401,0.361-0.822c0-0.458-0.113-0.898-0.353-1.336
			c-0.23-0.439-0.583-0.803-1.051-1.079c-0.467-0.277-1.03-0.411-1.689-0.411c-0.507,0-0.966,0.076-1.376,0.238
			c-0.41,0.162-0.764,0.401-1.041,0.697c-0.286,0.307-0.506,0.669-0.649,1.098c-0.144,0.421-0.22,0.88-0.22,1.376
			c0,1.05,0.297,1.892,0.898,2.502c0.592,0.611,1.433,0.927,2.512,0.927c0.468,0,0.888-0.067,1.251-0.191
			c0.01,0,0.028-0.01,0.037-0.01c0.345-0.124,0.631-0.276,0.869-0.448c0.239-0.191,0.411-0.382,0.536-0.583
			c0.113-0.21,0.181-0.381,0.181-0.534c0-0.173-0.058-0.306-0.162-0.401c-0.105-0.096-0.248-0.143-0.42-0.143
			c-0.162,0-0.278,0.038-0.363,0.115c-0.21,0.19-0.382,0.353-0.516,0.468c-0.134,0.115-0.277,0.22-0.431,0.324
			c-0.152,0.096-0.315,0.172-0.477,0.22c-0.162,0.049-0.334,0.067-0.524,0.067h-0.01c-0.01,0-0.01,0-0.02,0
			c-0.296,0-0.573-0.077-0.821-0.22c-0.248-0.144-0.448-0.363-0.592-0.659c-0.029-0.057-0.057-0.105-0.076-0.162v-0.01
			c-0.105-0.249-0.152-0.535-0.162-0.831h3.285C216.087,482.518,216.431,482.451,216.67,482.327z M212.362,481.563
			c0.057-0.563,0.219-0.993,0.497-1.289c0.267-0.287,0.61-0.43,1.021-0.43c0.438,0,0.792,0.142,1.06,0.43
			c0.277,0.287,0.43,0.716,0.469,1.289H212.362z"/>
		<path style="fill:#F1F1F1;" d="M223.288,476.195c-0.259,0-0.459,0.086-0.593,0.258c-0.133,0.182-0.21,0.44-0.21,0.783v2.483
			c-0.314-0.343-0.63-0.602-0.964-0.773c-0.335-0.163-0.746-0.248-1.224-0.248c-0.84,0-1.509,0.295-2.025,0.878
			c-0.516,0.593-0.773,1.404-0.773,2.455c0,0.496,0.067,0.955,0.201,1.384c0.123,0.43,0.314,0.803,0.563,1.117
			c0.248,0.315,0.544,0.554,0.888,0.727c0.344,0.172,0.717,0.258,1.117,0.258c0.306,0,0.582-0.048,0.841-0.134
			c0.258-0.076,0.497-0.2,0.716-0.362c0.22-0.162,0.439-0.373,0.659-0.631v0.162c0,0.307,0.077,0.545,0.229,0.717
			c0.152,0.162,0.334,0.248,0.573,0.248c0.229,0,0.419-0.086,0.563-0.239c0.153-0.162,0.229-0.4,0.229-0.726v-7.401
			c0-0.315-0.076-0.554-0.21-0.716C223.736,476.272,223.536,476.195,223.288,476.195z M222.18,483.282
			c-0.144,0.315-0.344,0.554-0.583,0.706c-0.248,0.153-0.516,0.229-0.811,0.229c-0.286,0-0.554-0.086-0.803-0.249
			c-0.248-0.162-0.438-0.4-0.582-0.716c-0.144-0.324-0.21-0.706-0.21-1.165c0-0.43,0.066-0.811,0.201-1.137
			c0.133-0.324,0.314-0.572,0.563-0.744c0.239-0.173,0.517-0.267,0.821-0.267c0.297,0,0.564,0.086,0.813,0.257
			c0.248,0.173,0.448,0.421,0.592,0.736c0.144,0.324,0.22,0.707,0.22,1.155C222.399,482.565,222.323,482.957,222.18,483.282z"/>
		<path style="fill:#F1F1F1;" d="M233.974,480.245c-0.229-0.497-0.554-0.879-0.974-1.146c-0.42-0.268-0.907-0.4-1.471-0.4
			c-0.478,0-0.889,0.095-1.213,0.268c-0.334,0.171-0.649,0.419-0.965,0.753v-2.568c0-0.306-0.076-0.545-0.21-0.707
			c-0.144-0.171-0.344-0.248-0.602-0.248c-0.238,0-0.43,0.086-0.572,0.258c-0.135,0.173-0.201,0.43-0.201,0.773v7.325
			c0,0.315,0.066,0.555,0.211,0.717c0.143,0.162,0.324,0.248,0.563,0.248c0.239,0,0.43-0.086,0.582-0.248
			c0.153-0.162,0.229-0.401,0.229-0.717v-0.162c0.182,0.21,0.334,0.372,0.439,0.478c0.115,0.105,0.249,0.21,0.411,0.315
			c0.162,0.095,0.353,0.181,0.582,0.238c0.229,0.058,0.469,0.096,0.726,0.096c0.421,0,0.813-0.086,1.166-0.258
			c0.343-0.173,0.649-0.411,0.888-0.727c0.248-0.305,0.439-0.678,0.564-1.098c0.134-0.43,0.191-0.888,0.191-1.403
			C234.318,481.343,234.203,480.751,233.974,480.245z M232.179,483.664c-0.305,0.372-0.669,0.554-1.089,0.554
			c-0.496,0-0.897-0.182-1.203-0.544c-0.306-0.353-0.458-0.869-0.458-1.538c0-0.449,0.076-0.85,0.22-1.175
			c0.143-0.334,0.334-0.582,0.582-0.754c0.257-0.173,0.535-0.267,0.859-0.267c0.307,0,0.582,0.095,0.812,0.267
			c0.239,0.172,0.421,0.42,0.545,0.734c0.124,0.325,0.19,0.707,0.19,1.146C232.637,482.775,232.484,483.301,232.179,483.664z"/>
		<path style="fill:#F1F1F1;" d="M240.191,478.793c-0.114-0.066-0.239-0.104-0.362-0.104c-0.182,0-0.315,0.028-0.411,0.095
			c-0.097,0.058-0.191,0.183-0.277,0.353c-0.086,0.182-0.181,0.42-0.286,0.735l-1.347,3.84l-1.422-4.136
			c-0.097-0.286-0.202-0.506-0.326-0.659c-0.124-0.153-0.305-0.228-0.544-0.228c-0.143,0-0.277,0.038-0.4,0.114
			c-0.135,0.066-0.239,0.172-0.306,0.296c-0.077,0.115-0.115,0.248-0.115,0.392c0,0.143,0.066,0.354,0.191,0.659l2.063,5.195
			l-0.152,0.382c-0.115,0.268-0.211,0.478-0.307,0.621c-0.085,0.144-0.181,0.238-0.296,0.295c-0.105,0.059-0.258,0.087-0.449,0.087
			c-0.085,0-0.171-0.01-0.276-0.038c-0.086-0.02-0.182-0.038-0.267-0.038c-0.23,0-0.401,0.057-0.517,0.162
			c-0.124,0.104-0.182,0.248-0.182,0.44c0,0.286,0.124,0.477,0.373,0.592c0.248,0.104,0.611,0.153,1.107,0.153
			c0.497,0,0.898-0.076,1.193-0.229c0.307-0.153,0.545-0.373,0.717-0.659c0.182-0.286,0.372-0.678,0.554-1.185l2.196-5.73
			c0.049-0.151,0.097-0.295,0.135-0.438c0.037-0.144,0.057-0.258,0.076-0.334c0-0.124-0.029-0.248-0.096-0.363
			C240.393,478.946,240.307,478.86,240.191,478.793z"/>
		<path style="fill:#F1F1F1;" d="M263.016,477.668c0.09-0.177,0.283-0.269,0.586-0.269c0.11,0,0.249,0.015,0.403,0.036
			c0.161,0.026,0.277,0.039,0.341,0.039c0.14,0,0.262-0.057,0.361-0.166c0.104-0.11,0.156-0.244,0.156-0.398
			c0-0.483-0.488-0.721-1.472-0.721c-0.553,0-0.988,0.07-1.306,0.211c-0.317,0.142-0.545,0.367-0.678,0.677
			c-0.133,0.311-0.197,0.727-0.197,1.253v0.504h-0.4c-0.563,0-0.844,0.199-0.844,0.603c0,0.18,0.067,0.328,0.203,0.439
			c0.137,0.115,0.327,0.17,0.578,0.17h0.463v4.446c0,0.331,0.077,0.583,0.235,0.757c0.16,0.176,0.356,0.263,0.595,0.263
			c0.251,0,0.453-0.087,0.609-0.263c0.16-0.174,0.239-0.426,0.239-0.757v-4.446h0.409c0.3,0,0.535-0.037,0.704-0.111
			c0.173-0.073,0.255-0.249,0.255-0.521c0-0.388-0.317-0.58-0.959-0.58h-0.409v-0.399
			C262.89,478.101,262.934,477.847,263.016,477.668z"/>
		<path style="fill:#F1F1F1;" d="M269.235,479.652c0-0.29-0.166-0.525-0.499-0.703c-0.332-0.176-0.671-0.264-1.026-0.264
			c-0.354,0-0.633,0.088-0.848,0.264c-0.21,0.178-0.415,0.437-0.613,0.783c-0.016-0.347-0.083-0.605-0.205-0.783
			c-0.124-0.176-0.324-0.264-0.604-0.264c-0.545,0-0.816,0.378-0.816,1.133v4.674c0,0.336,0.08,0.59,0.233,0.76
			c0.154,0.175,0.353,0.26,0.6,0.26c0.245,0,0.446-0.084,0.607-0.256c0.155-0.169,0.241-0.424,0.241-0.764v-1.402
			c0-0.504,0.015-0.932,0.047-1.282c0.034-0.35,0.092-0.654,0.176-0.909c0.087-0.252,0.208-0.441,0.365-0.574
			c0.154-0.127,0.356-0.193,0.604-0.193c0.177,0,0.387,0.039,0.622,0.112c0.234,0.075,0.385,0.116,0.449,0.116
			c0.163,0,0.314-0.065,0.457-0.201C269.163,480.027,269.235,479.856,269.235,479.652z"/>
		<path style="fill:#F1F1F1;" d="M275.04,482.327c0.238-0.134,0.362-0.401,0.362-0.822c0-0.458-0.114-0.898-0.353-1.346
			c-0.229-0.44-0.582-0.793-1.05-1.069c-0.468-0.277-1.031-0.411-1.69-0.411c-0.506,0-0.965,0.076-1.375,0.238
			c-0.41,0.162-0.764,0.392-1.041,0.697c-0.286,0.307-0.507,0.669-0.649,1.089c-0.152,0.43-0.22,0.889-0.22,1.385
			c0,1.05,0.296,1.892,0.898,2.502c0.591,0.611,1.433,0.917,2.511,0.917c0.468,0,0.889-0.058,1.251-0.182
			c0.363-0.124,0.669-0.277,0.907-0.458c0.239-0.191,0.421-0.382,0.545-0.592c0.115-0.201,0.172-0.372,0.172-0.525
			c0-0.173-0.057-0.306-0.162-0.401s-0.248-0.143-0.421-0.143c-0.153,0-0.277,0.038-0.363,0.115
			c-0.209,0.19-0.381,0.353-0.516,0.458c-0.133,0.125-0.267,0.23-0.429,0.325c-0.153,0.105-0.315,0.181-0.478,0.219
			c-0.173,0.059-0.354,0.077-0.554,0.077c-0.297,0-0.574-0.077-0.822-0.22c-0.248-0.152-0.448-0.373-0.602-0.659
			c-0.143-0.286-0.22-0.631-0.229-1.012h3.286C274.458,482.509,274.801,482.451,275.04,482.327z M270.732,481.554
			c0.059-0.564,0.221-0.984,0.497-1.28c0.268-0.287,0.611-0.43,1.022-0.43c0.45,0,0.793,0.142,1.07,0.43
			c0.268,0.276,0.42,0.707,0.459,1.28H270.732z"/>
		<path style="fill:#F1F1F1;" d="M282.021,482.327c0.239-0.134,0.363-0.401,0.363-0.822c0-0.458-0.115-0.898-0.354-1.346
			c-0.229-0.44-0.583-0.793-1.051-1.069c-0.478-0.277-1.031-0.411-1.69-0.411c-0.507,0-0.965,0.076-1.376,0.238
			c-0.42,0.162-0.764,0.392-1.041,0.697c-0.286,0.307-0.505,0.669-0.648,1.089c-0.153,0.43-0.229,0.889-0.229,1.385
			c0,1.05,0.306,1.892,0.907,2.502c0.592,0.611,1.433,0.917,2.512,0.917c0.468,0,0.888-0.058,1.251-0.182
			c0.363-0.124,0.668-0.277,0.907-0.458c0.238-0.191,0.421-0.382,0.535-0.592c0.124-0.201,0.172-0.372,0.172-0.525
			c0-0.173-0.048-0.306-0.153-0.401c-0.105-0.096-0.248-0.143-0.42-0.143c-0.152,0-0.276,0.038-0.362,0.115
			c-0.211,0.19-0.383,0.353-0.516,0.458c-0.135,0.125-0.268,0.23-0.431,0.325c-0.152,0.105-0.314,0.181-0.486,0.219
			c-0.162,0.059-0.345,0.077-0.545,0.077c-0.296,0-0.572-0.077-0.821-0.22c-0.248-0.152-0.449-0.373-0.592-0.659
			c-0.152-0.286-0.229-0.631-0.238-1.012h3.284C281.439,482.509,281.783,482.451,282.021,482.327z M277.715,481.554
			c0.057-0.564,0.219-0.984,0.486-1.28c0.277-0.287,0.62-0.43,1.032-0.43c0.439,0,0.792,0.142,1.068,0.43
			c0.268,0.276,0.421,0.707,0.459,1.28H277.715z"/>
		<path style="fill:#F1F1F1;" d="M289.279,480.264c-0.257-0.506-0.602-0.897-1.031-1.165c-0.439-0.268-0.917-0.4-1.433-0.4
			c-0.43,0-0.811,0.095-1.147,0.276c-0.343,0.182-0.678,0.469-0.993,0.859v-0.201c0-0.314-0.066-0.543-0.219-0.705
			c-0.153-0.164-0.345-0.239-0.583-0.239c-0.239,0-0.43,0.075-0.573,0.228c-0.144,0.162-0.21,0.401-0.21,0.727v7.238
			c0,0.373,0.058,0.641,0.152,0.841c0.105,0.182,0.315,0.277,0.631,0.277c0.535,0,0.802-0.373,0.802-1.108v-2.511
			c0.173,0.209,0.345,0.391,0.526,0.543c0.133,0.115,0.267,0.211,0.41,0.297c0.324,0.191,0.726,0.286,1.203,0.286
			c0.401,0,0.774-0.076,1.117-0.229c0.354-0.162,0.65-0.392,0.907-0.678c0.248-0.296,0.449-0.658,0.602-1.089
			c0.144-0.43,0.211-0.907,0.211-1.423c0-0.067,0-0.133-0.01-0.2C289.624,481.267,289.499,480.732,289.279,480.264z M287.79,483.129
			c-0.011,0.038-0.02,0.076-0.038,0.114c-0.144,0.325-0.325,0.563-0.574,0.726c-0.229,0.163-0.496,0.249-0.772,0.249
			c-0.059,0-0.115,0-0.162-0.02c-0.401-0.028-0.736-0.219-1.014-0.544c-0.314-0.363-0.467-0.889-0.467-1.557
			c0-0.707,0.152-1.242,0.478-1.614c0.314-0.362,0.706-0.544,1.165-0.544c0.295,0,0.563,0.086,0.802,0.257
			c0.239,0.173,0.421,0.411,0.554,0.736c0.144,0.315,0.21,0.696,0.21,1.137C287.971,482.479,287.914,482.833,287.79,483.129z"/>
		<path style="fill:#F1F1F1;" d="M291.323,478.689c-0.238,0-0.439,0.075-0.592,0.248c-0.153,0.172-0.238,0.42-0.238,0.755v4.803
			c0,0.325,0.085,0.573,0.238,0.755c0.152,0.172,0.354,0.258,0.592,0.258c0.249,0,0.449-0.076,0.611-0.258
			c0.162-0.172,0.239-0.42,0.239-0.755v-4.851c0-0.306-0.077-0.535-0.239-0.707C291.772,478.764,291.572,478.689,291.323,478.689z"
			/>
		<path style="fill:#F1F1F1;" d="M291.343,476.263c-0.221,0-0.421,0.076-0.593,0.229c-0.172,0.153-0.257,0.353-0.257,0.592
			c0,0.259,0.085,0.459,0.257,0.602c0.162,0.143,0.363,0.221,0.593,0.221c0.229,0,0.419-0.077,0.592-0.221
			c0.162-0.143,0.239-0.343,0.239-0.602c0-0.267-0.086-0.478-0.249-0.61C291.753,476.329,291.563,476.263,291.343,476.263z"/>
		<path style="fill:#F1F1F1;" d="M298.948,483.896l-1.721-2.708l0.891-0.816c0.454-0.409,0.683-0.739,0.683-0.985
			c0-0.198-0.071-0.367-0.207-0.5c-0.144-0.133-0.317-0.2-0.528-0.2c-0.175,0-0.323,0.045-0.445,0.136
			c-0.126,0.088-0.302,0.26-0.535,0.503l-1.888,1.982v-4.073c0-0.342-0.078-0.603-0.229-0.777c-0.153-0.179-0.356-0.267-0.615-0.267
			c-0.265,0-0.473,0.095-0.617,0.292c-0.14,0.196-0.214,0.479-0.214,0.85v7.161c0,0.336,0.076,0.59,0.223,0.76
			c0.147,0.175,0.351,0.26,0.608,0.26c0.221,0,0.42-0.087,0.587-0.263c0.171-0.174,0.257-0.421,0.257-0.744v-1.337l0.911-0.859
			l1.478,2.436c0.188,0.288,0.341,0.488,0.451,0.601c0.109,0.114,0.271,0.166,0.475,0.166c0.234,0,0.428-0.075,0.573-0.229
			c0.146-0.155,0.221-0.363,0.221-0.632c0-0.091-0.029-0.195-0.084-0.298C299.167,484.247,299.073,484.099,298.948,483.896z"/>
		<path style="fill:#F1F1F1;" d="M301.219,483.661c-0.259,0-0.475,0.09-0.652,0.271c-0.177,0.18-0.266,0.395-0.266,0.645
			c0,0.297,0.094,0.528,0.277,0.689c0.186,0.164,0.403,0.246,0.656,0.246c0.245,0,0.46-0.082,0.645-0.25
			c0.182-0.163,0.273-0.393,0.273-0.685c0-0.253-0.092-0.47-0.273-0.648C301.694,483.751,301.476,483.661,301.219,483.661z"/>
		<path style="fill:#F1F1F1;" d="M308.868,482.701c-0.172,0-0.318,0.056-0.437,0.162c-0.118,0.107-0.227,0.254-0.33,0.441
			c-0.184,0.321-0.396,0.559-0.639,0.714c-0.238,0.155-0.526,0.233-0.864,0.233c-0.248,0-0.479-0.047-0.688-0.146
			c-0.209-0.098-0.386-0.238-0.535-0.424c-0.148-0.186-0.261-0.412-0.337-0.676c-0.077-0.264-0.118-0.556-0.118-0.872
			c0-0.67,0.153-1.203,0.455-1.589c0.304-0.388,0.707-0.581,1.2-0.581c0.345,0,0.628,0.078,0.85,0.234
			c0.227,0.154,0.439,0.389,0.645,0.699c0.113,0.163,0.217,0.277,0.31,0.351c0.094,0.07,0.209,0.107,0.351,0.107
			c0.209,0,0.391-0.07,0.543-0.21c0.148-0.14,0.222-0.311,0.222-0.51c0-0.197-0.065-0.411-0.198-0.639
			c-0.133-0.225-0.326-0.438-0.576-0.642c-0.254-0.2-0.56-0.366-0.923-0.491c-0.364-0.128-0.763-0.191-1.198-0.191
			c-0.698,0-1.305,0.144-1.809,0.434c-0.504,0.289-0.89,0.698-1.153,1.226c-0.268,0.529-0.4,1.138-0.4,1.828
			c0,1.017,0.291,1.827,0.871,2.434c0.582,0.603,1.393,0.907,2.433,0.907c0.484,0,0.925-0.068,1.313-0.199
			c0.391-0.13,0.712-0.305,0.968-0.52c0.257-0.215,0.449-0.44,0.573-0.68c0.126-0.237,0.189-0.462,0.189-0.67
			c0-0.174-0.069-0.342-0.205-0.498C309.243,482.781,309.074,482.701,308.868,482.701z"/>
		<path style="fill:#F1F1F1;" d="M315.925,479.633c-0.297-0.305-0.65-0.534-1.061-0.696c-0.42-0.173-0.878-0.248-1.385-0.248
			c-0.506,0-0.964,0.075-1.375,0.239c-0.411,0.162-0.765,0.391-1.061,0.696c-0.286,0.297-0.516,0.659-0.668,1.079
			c-0.153,0.421-0.23,0.889-0.23,1.395c0,0.506,0.076,0.964,0.22,1.385c0.162,0.41,0.383,0.773,0.688,1.079
			c0.286,0.306,0.65,0.545,1.051,0.707c0.401,0.162,0.859,0.248,1.375,0.248c0.507,0,0.965-0.086,1.385-0.248
			c0.401-0.162,0.755-0.392,1.052-0.698c0.295-0.305,0.524-0.667,0.677-1.088c0.153-0.421,0.229-0.888,0.229-1.385
			c0-0.506-0.076-0.965-0.229-1.386C316.44,480.302,316.221,479.94,315.925,479.633z M314.693,483.683
			c-0.307,0.392-0.707,0.583-1.214,0.583c-0.343,0-0.631-0.086-0.879-0.258c-0.248-0.182-0.439-0.431-0.572-0.765
			c-0.134-0.324-0.2-0.707-0.2-1.146c0-0.439,0.066-0.831,0.2-1.165c0.134-0.325,0.324-0.583,0.582-0.755
			c0.249-0.162,0.535-0.248,0.869-0.248c0.507,0,0.907,0.191,1.214,0.573c0.295,0.382,0.448,0.916,0.448,1.595
			C315.142,482.775,314.988,483.301,314.693,483.683z"/>
		<path style="fill:#F1F1F1;" d="M326.944,479.742c-0.165-0.334-0.413-0.593-0.743-0.773c-0.331-0.179-0.73-0.271-1.187-0.271
			c-0.395,0-0.753,0.083-1.076,0.25c-0.324,0.166-0.628,0.421-0.912,0.764c-0.199-0.338-0.448-0.594-0.752-0.763
			c-0.302-0.166-0.664-0.251-1.086-0.251c-0.408,0-0.773,0.081-1.108,0.25c-0.329,0.161-0.641,0.417-0.935,0.764v-0.159
			c0-0.271-0.076-0.482-0.229-0.637c-0.156-0.15-0.346-0.23-0.577-0.23c-0.235,0-0.428,0.081-0.576,0.247
			c-0.145,0.162-0.217,0.403-0.217,0.72v4.802c0,0.348,0.081,0.612,0.243,0.792c0.162,0.177,0.37,0.267,0.626,0.267
			c0.258,0,0.464-0.09,0.625-0.267c0.154-0.18,0.234-0.444,0.234-0.792v-2.267c0-0.708,0.089-1.249,0.263-1.622
			c0.175-0.383,0.534-0.57,1.085-0.57c0.273,0,0.476,0.074,0.602,0.228c0.126,0.147,0.205,0.343,0.234,0.571
			c0.027,0.234,0.041,0.563,0.041,0.986v2.674c0,0.354,0.08,0.615,0.241,0.795c0.152,0.176,0.36,0.264,0.615,0.264
			c0.263,0,0.471-0.088,0.633-0.264c0.161-0.18,0.239-0.44,0.239-0.795v-2.23c0-0.719,0.064-1.221,0.184-1.504
			c0.112-0.217,0.268-0.397,0.467-0.526c0.198-0.129,0.408-0.198,0.63-0.198c0.273,0,0.479,0.074,0.617,0.222
			c0.133,0.147,0.217,0.33,0.248,0.549c0.028,0.216,0.044,0.505,0.044,0.865v2.823c0,0.348,0.081,0.612,0.244,0.792
			c0.162,0.177,0.368,0.267,0.624,0.267c0.262,0,0.475-0.088,0.634-0.264c0.158-0.18,0.237-0.44,0.237-0.795v-3.276
			C327.157,480.525,327.087,480.048,326.944,479.742z"/>
		<path style="fill:#F1F1F1;" d="M248.734,475.734c0.641-0.213,1.195-0.342,1.699-0.397c0.492-0.053,0.863-0.075,1.166-0.075
			c0.324,0,0.564,0.025,0.838,0.072l0.078-0.493c0,0-0.758-0.233-1.754-0.152l-0.078-0.269c0.309-0.065,0.541-0.341,0.541-0.67
			c0-0.377-0.307-0.682-0.684-0.682c-0.377,0-0.684,0.305-0.684,0.682c0,0.329,0.232,0.604,0.542,0.67l0.086,0.299
			c-1.058,0.146-1.9,0.559-1.9,0.559L248.734,475.734z"/>
		<path style="fill:#F1F1F1;" d="M245.734,477.755c0.024-0.032,0.049-0.063,0.073-0.093l-0.202-0.146l-0.316-0.23
			c-0.018,0.024-0.516,0.48-0.908,1.325c-0.017-0.026-0.035-0.053-0.058-0.078c-0.117-0.127-0.281-0.192-0.49-0.189
			c-0.003,0-0.006,0-0.01,0c-0.129,0-0.218-0.044-0.275-0.097c0.058-0.072,0.091-0.165,0.091-0.267c0-0.237-0.193-0.433-0.433-0.433
			c-0.238,0-0.433,0.195-0.433,0.433c0,0.24,0.194,0.434,0.433,0.434c0.037,0,0.074-0.006,0.108-0.013
			c0.106,0.117,0.275,0.221,0.522,0.216c0.128-0.001,0.221,0.031,0.283,0.101c0.072,0.078,0.096,0.19,0.104,0.276
			c-0.001,0.001-0.001,0.003-0.002,0.003c-0.282,0.771-0.201,1.728-0.201,1.728l0.684,0.026c0.015-0.349,0.064-0.958,0.24-1.443
			c0.342-0.938,0.769-1.523,0.785-1.549L245.734,477.755z"/>
		<path style="fill:#F1F1F1;" d="M257.554,475.835c-0.238,0-0.433,0.192-0.433,0.433c0,0.037,0.006,0.072,0.015,0.107
			c-0.118,0.106-0.222,0.276-0.218,0.523c0.002,0.128-0.031,0.221-0.101,0.283c-0.055,0.048-0.124,0.074-0.19,0.091
			c-0.51-0.713-1.137-1.148-1.137-1.148l-0.491,0.525c0.371,0.338,0.75,0.762,1.118,1.288c0.255,0.365,0.518,0.836,0.736,1.305
			l0.662-0.314c0,0-0.303-0.748-0.729-1.419c0.073-0.026,0.148-0.066,0.215-0.124c0.129-0.117,0.192-0.282,0.188-0.49
			c0-0.136,0.043-0.227,0.097-0.287c0.073,0.058,0.166,0.094,0.267,0.094c0.24,0,0.434-0.195,0.434-0.434
			C257.987,476.027,257.794,475.835,257.554,475.835z"/>
		<path style="fill:#F1F1F1;" d="M255.834,481.79c-0.912,0.445-2.414,1.032-4.389,1.308c-0.775,0.107-1.527,0.147-2.219,0.147
			c-0.901,0-1.695-0.066-2.306-0.145c-0.697-0.087-1.242-0.194-1.574-0.27c0,0-0.002,0-0.003,0c0.082,0.26,0.182,0.511,0.296,0.75
			c0.003,0.007,0.006,0.014,0.008,0.018c0.015,0.028,0.028,0.059,0.042,0.087c0.016,0.028,0.028,0.056,0.043,0.082
			c0.004,0.008,0.008,0.015,0.012,0.021c0.195,0.369,0.431,0.709,0.699,1.003c0.931,1.02,1.881,1.181,1.89,1.182l0.015,0.002
			l0.015,0.004c0.008,0.004,0.85,0.275,2.13,0.275c1.26,0,2.495-0.254,3.672-0.755c0.872-0.446,1.698-1.124,2.106-1.728
			c0.316-0.468,0.545-0.966,0.68-1.484c0.072-0.275,0.129-0.717,0.096-1.181C256.789,481.277,256.383,481.522,255.834,481.79z"/>
		<path style="fill:#F1F1F1;" d="M251.365,482.557c1.9-0.269,3.333-0.822,4.211-1.252c0.726-0.344,1.194-0.668,1.376-0.802
			c-0.182-0.659-0.678-1.71-1.137-2.359c-1.289-1.853-2.692-2.33-3.409-2.445c-0.277-0.047-0.497-0.066-0.803-0.066
			c-0.296,0-0.649,0.02-1.137,0.066c-0.477,0.049-1.012,0.182-1.633,0.392c-0.878,0.287-1.661,0.745-2.282,1.318l-0.019,0.02
			c-0.096,0.086-0.287,0.268-0.507,0.545c-0.028,0.038-0.43,0.602-0.735,1.46c-0.239,0.65-0.229,1.586-0.229,1.595
			c0,0.221,0.02,0.439,0.038,0.659c0,0,0,0,0,0.01c0.009,0.029,0.009,0.048,0.009,0.076c0.019,0.153,0.049,0.307,0.077,0.459
			C245.645,482.346,248.348,482.976,251.365,482.557z M253.963,477.542c0.62,0,1.127,0.506,1.127,1.127
			c0,0.631-0.507,1.137-1.127,1.137c-0.621,0-1.127-0.506-1.127-1.137C252.836,478.048,253.342,477.542,253.963,477.542z
			 M246.81,479.318c0-1.003,0.811-1.814,1.823-1.814c1.004,0,1.824,0.811,1.824,1.814c0,1.013-0.82,1.824-1.824,1.824
			C247.621,481.143,246.81,480.331,246.81,479.318z"/>
	</g>
</g>
</svg>
