<svg width="52" height="67" viewBox="0 0 52 67" fill="none" xmlns="http://www.w3.org/2000/svg">
<g id="Group 6">
<g id="Group 2">
<g id="Group 1">
<path id="Rectangle 3" d="M46 0H6C2.68629 0 0 2.68629 0 6V61C0 64.3137 2.68629 67 6 67H46C49.3137 67 52 64.3137 52 61V6C52 2.68629 49.3137 0 46 0Z" fill="#D9D9D9"/>
<path id="Intersect_2" fill-rule="evenodd" clip-rule="evenodd" d="M31.4928 67H6C2.68629 67 0 64.3137 0 61V42.6813L4.79491 35.6275C6.65781 32.887 10.3896 32.1756 13.1301 34.0385L31.502 46.5271V66.6654C31.502 66.7777 31.4989 66.8892 31.4928 67Z" fill="#9D9D9D" fill-opacity="0.63"/>
<path id="Intersect" fill-rule="evenodd" clip-rule="evenodd" d="M52 40.8617V61C52 64.3137 49.3137 67 46 67H6C4.20688 67 2.59747 66.2135 1.49802 64.9665L25.2929 29.9621C27.1559 27.2216 30.8876 26.5102 33.6281 28.3731L52 40.8617Z" fill="#7C7C7C"/>
</g>
<path id="Ellipse 1" d="M13.5 20C15.9853 20 18 17.9853 18 15.5C18 13.0147 15.9853 11 13.5 11C11.0147 11 9 13.0147 9 15.5C9 17.9853 11.0147 20 13.5 20Z" fill="#7C7C7C"/>
</g>
<g id="Group 3">
<g id="Group 1_2">
<path id="Rectangle 3_2" d="M46 0H6C2.68629 0 0 2.68629 0 6V61C0 64.3137 2.68629 67 6 67H46C49.3137 67 52 64.3137 52 61V6C52 2.68629 49.3137 0 46 0Z" fill="#D9D9D9"/>
<path id="Intersect_2_2" fill-rule="evenodd" clip-rule="evenodd" d="M31.4928 67H6C2.68629 67 0 64.3137 0 61V42.6813L4.79491 35.6275C6.65781 32.887 10.3896 32.1756 13.1301 34.0385L31.502 46.5271V66.6654C31.502 66.7777 31.4989 66.8892 31.4928 67Z" fill="#9D9D9D" fill-opacity="0.63"/>
<path id="Intersect_3" fill-rule="evenodd" clip-rule="evenodd" d="M52 40.8617V61C52 64.3137 49.3137 67 46 67H6C4.20688 67 2.59747 66.2135 1.49802 64.9665L25.2929 29.9621C27.1559 27.2216 30.8876 26.5102 33.6281 28.3731L52 40.8617Z" fill="#7C7C7C"/>
</g>
<path id="Ellipse 1_2" d="M13.5 20C15.9853 20 18 17.9853 18 15.5C18 13.0147 15.9853 11 13.5 11C11.0147 11 9 13.0147 9 15.5C9 17.9853 11.0147 20 13.5 20Z" fill="#7C7C7C"/>
</g>
<g id="Group 2_2">
<g id="Group 1_3">
<path id="Rectangle 3_3" d="M46 0H6C2.68629 0 0 2.68629 0 6V61C0 64.3137 2.68629 67 6 67H46C49.3137 67 52 64.3137 52 61V6C52 2.68629 49.3137 0 46 0Z" fill="#D9D9D9"/>
<path id="Intersect_4" fill-rule="evenodd" clip-rule="evenodd" d="M52 40.8617V61C52 64.3137 49.3137 67 46 67H6C4.20688 67 2.59747 66.2135 1.49802 64.9665L25.2929 29.9621C27.1559 27.2216 30.8876 26.5102 33.6281 28.3731L52 40.8617Z" fill="#583EEE"/>
<path id="Intersect_2_3" fill-rule="evenodd" clip-rule="evenodd" d="M31.4928 67H6C2.68629 67 0 64.3137 0 61V42.6813L4.79491 35.6275C6.65781 32.887 10.3896 32.1756 13.1301 34.0385L31.502 46.5271V66.6654C31.502 66.7777 31.4989 66.8892 31.4928 67Z" fill="#583EEE" fill-opacity="0.43"/>
</g>
<path id="Ellipse 1_3" d="M13.5 20C15.9853 20 18 17.9853 18 15.5C18 13.0147 15.9853 11 13.5 11C11.0147 11 9 13.0147 9 15.5C9 17.9853 11.0147 20 13.5 20Z" fill="#583EEE"/>
</g>
</g>
</svg>
