<svg width="32" height="32" viewBox="0 0 32 32" fill="none" xmlns="http://www.w3.org/2000/svg">
<path d="M16 2.01001C10.226 2.01001 5.545 6.69101 5.545 12.465C5.545 18.571 12.009 24.309 14.771 26.482C15.492 27.049 16.506 27.049 17.228 26.482C19.991 24.308 26.454 18.571 26.454 12.465C26.455 6.69001 21.774 2.01001 16 2.01001ZM16 16.33C13.767 16.33 11.957 14.52 11.957 12.287C11.957 10.054 13.767 8.24401 16 8.24401C18.233 8.24401 20.043 10.054 20.043 12.287C20.043 14.52 18.233 16.33 16 16.33Z" fill="white"/>
<path d="M20.552 26.0171C19.715 26.7821 18.945 27.4221 18.342 27.8971C17.676 28.4191 16.845 28.7081 16 28.7081C15.155 28.7081 14.324 28.4201 13.659 27.8971C13.055 27.4221 12.286 26.7821 11.448 26.0171C9.002 26.3971 7.37 27.0701 7.37 27.8411C7.37 29.0281 11.234 29.9911 16 29.9911C20.766 29.9911 24.63 29.0291 24.63 27.8411C24.63 27.0701 22.997 26.3961 20.552 26.0171Z" fill="white"/>
</svg>
