<svg width="512" height="512" viewBox="0 0 512 512" fill="none" xmlns="http://www.w3.org/2000/svg">
<path d="M483.36 117.28C481.913 114.947 479.793 113.106 477.28 112L266.88 22.8801C259.913 19.9999 252.087 19.9999 245.12 22.8801L144 65.7601L34.72 112C32.6015 112.992 30.7954 114.546 29.4978 116.492C28.2003 118.438 27.4609 120.703 27.36 123.04V379.04C27.3255 384.55 28.9364 389.945 31.9863 394.534C35.0362 399.124 39.3865 402.698 44.48 404.8L251.04 491.68C252.598 492.387 254.289 492.753 256 492.753C257.711 492.753 259.402 492.387 260.96 491.68L467.52 404.8C472.614 402.698 476.964 399.124 480.014 394.534C483.064 389.945 484.675 384.55 484.64 379.04V122.4C484.615 120.617 484.177 118.865 483.36 117.28ZM254.4 44.9601C255.443 44.6393 256.557 44.6393 257.6 44.9601L441.6 122.4L364.32 154.4L178.72 76.8001L254.4 44.9601ZM147.68 89.9201L333.28 168L256 200L70.4 122.4L147.68 89.9201ZM53.92 381.28C53.1746 380.993 52.5323 380.488 52.076 379.832C51.6198 379.177 51.3704 378.399 51.36 377.6V140.48L55.2 142.08L244 222.08V462.08L53.92 381.28ZM460.64 377.6C460.643 378.381 460.417 379.145 459.99 379.799C459.564 380.453 458.955 380.968 458.24 381.28L268 461.28V221.28L456.8 141.28L460.64 139.68V377.6Z" fill="white"/>
<path d="M70.88 323.36L106.56 338.4C108.032 339.01 109.607 339.335 111.2 339.36C113.961 339.346 116.632 338.38 118.763 336.626C120.895 334.871 122.356 332.436 122.901 329.729C123.446 327.023 123.041 324.212 121.755 321.769C120.469 319.326 118.38 317.402 115.84 316.32L80 301.28C78.5296 300.646 76.9486 300.309 75.3476 300.288C73.7466 300.267 72.1572 300.562 70.6706 301.157C69.184 301.751 67.8295 302.634 66.6848 303.753C65.54 304.873 64.6277 306.207 64 307.68C63.4073 309.16 63.1154 310.743 63.1414 312.337C63.1673 313.931 63.5105 315.503 64.151 316.963C64.7915 318.423 65.7165 319.74 66.8718 320.839C68.0271 321.937 69.3897 322.794 70.88 323.36Z" fill="white"/>
<path d="M120.32 355.2L80 338.4C78.5314 337.669 76.9285 337.247 75.2903 337.16C73.6521 337.073 72.0135 337.322 70.4756 337.893C68.9377 338.464 67.5332 339.345 66.3489 340.48C65.1646 341.615 64.2256 342.981 63.59 344.493C62.9543 346.006 62.6356 347.632 62.6533 349.273C62.6711 350.913 63.025 352.532 63.6932 354.031C64.3614 355.529 65.3297 356.874 66.5383 357.984C67.7469 359.093 69.1701 359.943 70.72 360.48L110.88 376.48C112.343 377.118 113.924 377.445 115.52 377.44C118.281 377.426 120.952 376.46 123.083 374.706C125.215 372.951 126.676 370.516 127.221 367.809C127.766 365.103 127.361 362.292 126.075 359.849C124.789 357.406 122.7 355.482 120.16 354.4L120.32 355.2Z" fill="white"/>
<path d="M157.76 333.92L146.56 329.12C143.526 327.868 140.119 327.873 137.088 329.133C134.058 330.393 131.652 332.806 130.4 335.84C129.148 338.874 129.153 342.281 130.413 345.312C131.673 348.342 134.086 350.748 137.12 352L148.32 356.64C149.792 357.25 151.367 357.575 152.96 357.6C155.734 357.623 158.431 356.683 160.591 354.942C162.75 353.2 164.24 350.764 164.806 348.048C165.372 345.332 164.979 342.503 163.694 340.044C162.41 337.585 160.313 335.647 157.76 334.56V333.92Z" fill="white"/>
<path d="M355.36 208L299.36 231.52C297.171 232.415 295.3 233.945 293.988 235.912C292.676 237.88 291.984 240.195 292 242.56V311.2C292.005 313.181 292.487 315.132 293.407 316.886C294.326 318.641 295.654 320.148 297.28 321.28C299.295 322.539 301.624 323.204 304 323.2C305.579 323.181 307.146 322.911 308.64 322.4L364.64 298.88C366.842 297.957 368.718 296.398 370.029 294.403C371.34 292.408 372.026 290.067 372 287.68V218.4C371.982 216.422 371.494 214.476 370.576 212.723C369.658 210.971 368.336 209.462 366.72 208.32C365 207.332 363.063 206.786 361.08 206.73C359.098 206.674 357.132 207.111 355.36 208ZM348 279.84L316 293.28V249.92L348 236.48V279.84Z" fill="white"/>
</svg>
