<svg width="512" height="512" viewBox="0 0 512 512" fill="none" xmlns="http://www.w3.org/2000/svg">
<g clip-path="url(#clip0_101_15)">
<path d="M443.86 196.919L141.46 10.514C119.582 -2.95497 93.1311 -3.51497 70.7021 9.01603C48.2731 21.545 34.8831 44.366 34.8831 70.057V441.169C34.8831 480.015 66.1831 511.788 104.653 511.998C104.758 511.998 104.863 511.999 104.966 511.999C116.988 511.998 129.516 508.23 141.217 501.09C150.63 495.347 153.605 483.061 147.862 473.649C142.119 464.235 129.831 461.261 120.421 467.004C114.948 470.342 109.603 472.069 104.868 472.068C90.3531 471.989 74.8121 459.555 74.8121 441.17V70.058C74.8121 59.037 80.5561 49.25 90.1761 43.875C99.7971 38.5 111.142 38.74 120.515 44.511L422.916 230.916C432.005 236.512 437.206 245.843 437.184 256.517C437.162 267.19 431.923 276.5 422.784 282.077L204.147 415.945C194.743 421.703 191.787 433.994 197.545 443.397C203.302 452.801 215.593 455.757 224.997 449.999L443.608 316.147C464.539 303.378 477.065 281.118 477.115 256.597C477.165 232.079 464.729 209.767 443.86 196.919Z" fill="white"/>
</g>
<defs>
<clipPath id="clip0_101_15">
<rect width="511.999" height="511.999" fill="white"/>
</clipPath>
</defs>
</svg>
