<svg height="512" viewBox="0 0 512 512" width="512" xmlns="http://www.w3.org/2000/svg" xmlns:xlink="http://www.w3.org/1999/xlink"><linearGradient id="linear-gradient" gradientTransform="matrix(0 -1 1 0 0 512)" gradientUnits="userSpaceOnUse" x1="38.65" x2="473.35" y1="38.65" y2="473.35"><stop offset="0" stop-color="#549eff"/><stop offset="1" stop-color="#006db0"/></linearGradient><linearGradient id="linear-gradient-2" gradientUnits="userSpaceOnUse" x1="236.18" x2="449.01" y1="284.86" y2="497.69"><stop offset="0" stop-opacity=".35"/><stop offset="1" stop-opacity="0"/></linearGradient><g id="Layer_2" data-name="Layer 2"><g id="InterfaceIcon"><g id="_12.Play" data-name="12.Play"><rect id="Background" fill="url(#linear-gradient)" height="512" rx="131.96" transform="matrix(0 1 -1 0 512 0)" width="512"/><path d="m512 353.34v26.66a132 132 0 0 1 -132 132h-124l-123.49-123.47 245-169.71z" fill="url(#linear-gradient-2)"/><path id="_12.Play-2" d="m119.14 256v-97.48c0-40.37 43.7-65.6 78.66-45.42l84.42 48.74 84.42 48.74c35 20.19 35 70.65 0 90.84l-84.42 48.74-84.42 48.74c-35 20.18-78.66-5-78.66-45.42z" fill="#fff" data-name="12.Play"/></g></g></g></svg>