<svg width="52" height="67" viewBox="0 0 52 67" fill="none" xmlns="http://www.w3.org/2000/svg">
<g id="Group 2">
<g id="Group 1">
<rect id="Rectangle 3" width="52" height="67" rx="6" fill="#D9D9D9"/>
<path id="Intersect" fill-rule="evenodd" clip-rule="evenodd" d="M52 40.8617V61C52 64.3137 49.3137 67 46 67H6C4.20688 67 2.59747 66.2135 1.49802 64.9665L25.2929 29.9621C27.1559 27.2216 30.8876 26.5102 33.6281 28.3731L52 40.8617Z" fill="#583EEE"/>
<path id="Intersect_2" fill-rule="evenodd" clip-rule="evenodd" d="M31.4928 67H6C2.68629 67 0 64.3137 0 61V42.6813L4.79491 35.6275C6.65781 32.887 10.3896 32.1756 13.1301 34.0385L31.502 46.5271V66.6654C31.502 66.7777 31.4989 66.8892 31.4928 67Z" fill="#583EEE" fill-opacity="0.43"/>
</g>
<circle id="Ellipse 1" cx="13.5" cy="15.5" r="4.5" fill="#583EEE"/>
</g>
</svg>
